<svg xmlns="http://www.w3.org/2000/svg" xmlns:xlink="http://www.w3.org/1999/xlink" viewBox="0 0 423.21 403.97"><defs><style>.cls-1{fill:#f1c4d9;}.cls-2{fill:#fff;}.cls-3{fill:#2755a3;}.cls-4{fill:#ef6744;}.cls-5{fill:url(#linear-gradient);}.cls-6{fill:url(#linear-gradient-2);}.cls-7{fill:url(#linear-gradient-3);}</style><linearGradient id="linear-gradient" x1="120.58" y1="149.43" x2="207.1" y2="99.48" gradientUnits="userSpaceOnUse"><stop offset="0.28" stop-color="#151e27"/><stop offset="0.39" stop-color="#192a41"/><stop offset="0.58" stop-color="#1f3c6b"/><stop offset="0.75" stop-color="#234a8a"/><stop offset="0.9" stop-color="#26529c"/><stop offset="1" stop-color="#2755a3"/></linearGradient><linearGradient id="linear-gradient-2" x1="224.47" y1="163.92" x2="280.74" y2="131.43" xlink:href="#linear-gradient"/><linearGradient id="linear-gradient-3" x1="167.66" y1="216.93" x2="235.12" y2="177.99" gradientUnits="userSpaceOnUse"><stop offset="0" stop-color="#ef6744"/><stop offset="0.02" stop-color="#ef6a49"/><stop offset="0.2" stop-color="#f08a7c"/><stop offset="0.37" stop-color="#f0a3a4"/><stop offset="0.53" stop-color="#f1b5c1"/><stop offset="0.67" stop-color="#f1c0d3"/><stop offset="0.77" stop-color="#f1c4d9"/></linearGradient></defs><title>Craftwork_illustrations</title><g id="background"><rect class="cls-1" x="177.31" y="47.29" width="105.22" height="66.64"/><circle class="cls-1" cx="256.05" cy="75.45" r="12.09"/><path class="cls-2" d="M256.05,88.15a12.7,12.7,0,1,1,12.69-12.7A12.71,12.71,0,0,1,256.05,88.15Zm0-24.18a11.48,11.48,0,1,0,11.48,11.48A11.49,11.49,0,0,0,256.05,64Z"/><path class="cls-2" d="M256.05,96.61A21.16,21.16,0,1,1,277.2,75.45,21.18,21.18,0,0,1,256.05,96.61Zm0-41.1A19.94,19.94,0,1,0,276,75.45,20,20,0,0,0,256.05,55.51Z"/><path class="cls-2" d="M265.54,93.92a.6.6,0,0,1-.53-.31L245.25,58.2a.61.61,0,0,1,1.06-.6L266.08,93a.62.62,0,0,1-.24.83A.6.6,0,0,1,265.54,93.92Z"/><path class="cls-2" d="M238.09,86.1a.6.6,0,0,1-.53-.32.6.6,0,0,1,.23-.82L273.52,65a.61.61,0,1,1,.6,1.06L238.38,86A.6.6,0,0,1,238.09,86.1Z"/><path class="cls-2" d="M250.15,95.49l-.17,0a.6.6,0,0,1-.41-.75L260.8,55.53a.6.6,0,0,1,.75-.42.62.62,0,0,1,.42.76L250.74,95.05A.62.62,0,0,1,250.15,95.49Z"/><path class="cls-2" d="M275.65,81.9l-.16,0L236.16,70.62a.61.61,0,0,1-.42-.76.6.6,0,0,1,.75-.41l39.33,11.26a.61.61,0,0,1-.17,1.19Z"/><rect class="cls-3" x="218.02" y="58.82" width="10.3" height="10.3"/><path class="cls-2" d="M246.22,102.32H235.15a.61.61,0,0,1-.61-.61.61.61,0,0,1,.61-.61h11.07a.61.61,0,0,1,.61.61A.61.61,0,0,1,246.22,102.32Z"/><path class="cls-2" d="M246.22,105.94H235.15a.61.61,0,0,1-.61-.61.61.61,0,0,1,.61-.61h11.07a.61.61,0,0,1,.61.61A.61.61,0,0,1,246.22,105.94Z"/><path class="cls-2" d="M246.22,109.56H235.15a.61.61,0,0,1-.61-.61.61.61,0,0,1,.61-.61h11.07a.61.61,0,0,1,.61.61A.61.61,0,0,1,246.22,109.56Z"/><path class="cls-2" d="M228.57,72.37H205.21a.61.61,0,0,1,0-1.22h23.36a.61.61,0,0,1,0,1.22Z"/><path class="cls-2" d="M228.57,76H205.21a.61.61,0,0,1,0-1.22h23.36a.61.61,0,0,1,0,1.22Z"/><path class="cls-2" d="M228.57,79.61H205.21a.61.61,0,0,1,0-1.22h23.36a.61.61,0,0,1,0,1.22Z"/><path class="cls-2" d="M260.94,102.32H249.86a.61.61,0,0,1-.61-.61.61.61,0,0,1,.61-.61h11.08a.61.61,0,0,1,.61.61A.61.61,0,0,1,260.94,102.32Z"/><path class="cls-2" d="M260.94,105.94H249.86a.61.61,0,0,1-.61-.61.61.61,0,0,1,.61-.61h11.08a.61.61,0,0,1,.61.61A.61.61,0,0,1,260.94,105.94Z"/><path class="cls-2" d="M260.94,109.56H249.86a.61.61,0,0,1-.61-.61.61.61,0,0,1,.61-.61h11.08a.61.61,0,0,1,.61.61A.61.61,0,0,1,260.94,109.56Z"/><path class="cls-2" d="M275.65,102.32H264.58a.61.61,0,0,1-.61-.61.61.61,0,0,1,.61-.61h11.07a.61.61,0,0,1,.61.61A.61.61,0,0,1,275.65,102.32Z"/><path class="cls-2" d="M275.65,105.94H264.58a.61.61,0,0,1-.61-.61.61.61,0,0,1,.61-.61h11.07a.61.61,0,0,1,.61.61A.61.61,0,0,1,275.65,105.94Z"/><path class="cls-2" d="M275.65,109.56H264.58A.61.61,0,0,1,264,109a.61.61,0,0,1,.61-.61h11.07a.61.61,0,0,1,.61.61A.61.61,0,0,1,275.65,109.56Z"/><rect class="cls-4" x="190.57" y="60.86" width="10.3" height="10.3"/><rect class="cls-4" x="219.43" y="82.65" width="10.3" height="10.3"/><rect class="cls-3" x="224.5" y="87.34" width="10.3" height="10.3"/><rect class="cls-3" x="184.8" y="66.29" width="10.3" height="10.3"/><rect class="cls-4" x="204.78" y="52.59" width="10.3" height="10.3"/><rect class="cls-1" x="114.37" y="95.21" width="99.94" height="58.48"/><polygon class="cls-1" points="170.09 153.77 158.6 153.77 158.6 169.29 139.16 169.29 139.16 180.77 189.52 180.77 189.52 169.29 170.09 169.29 170.09 153.77"/><rect class="cls-5" x="119.77" y="100.87" width="88.13" height="47.16"/><polygon class="cls-1" points="259.24 168.02 290.31 168.02 285.87 124.93 221.12 124.93 216.68 168.02 247.75 168.02 247.75 175.91 227.54 175.91 227.54 183.34 282.5 183.34 282.5 175.91 259.24 175.91 259.24 168.02"/><polygon class="cls-6" points="283.11 162.92 223.89 162.92 227.46 129.34 279.53 129.34 283.11 162.92"/><rect class="cls-4" x="85.48" y="180.78" width="229.48" height="7.92"/><path class="cls-3" d="M154.56,63.75h0l-4.47-5.55a.83.83,0,0,0-1.17-.13L142,63.65a.83.83,0,0,0-.13,1.17l2.8,3.48-48,31.83a11.79,11.79,0,0,0-4.83,13.08l17.55,61.6H99.42A1.19,1.19,0,0,0,98.23,176v3.56a1.19,1.19,0,0,0,1.19,1.19h22.69a1.19,1.19,0,0,0,1.19-1.19V176a1.19,1.19,0,0,0-1.19-1.19H111.86L94.12,112.54A9.33,9.33,0,0,1,98,102.17l48.22-32,.14.16h0L153,91l20.2-16.25Z"/><ellipse class="cls-4" cx="163.11" cy="82.83" rx="12.96" ry="1.95" transform="translate(-15.9 120.49) rotate(-38.8)"/><path class="cls-3" d="M125,164.57h31.19a0,0,0,0,1,0,0v5.19a10.41,10.41,0,0,1-10.41,10.41H135.37A10.41,10.41,0,0,1,125,169.76v-5.19A0,0,0,0,1,125,164.57Z"/><path class="cls-2" d="M143.47,180.78h-5.84a13.3,13.3,0,0,1-13.28-13.29v-2.92A.61.61,0,0,1,125,164h31.19a.61.61,0,0,1,.61.61v2.92A13.3,13.3,0,0,1,143.47,180.78Zm-17.9-15.6v2.31a12.08,12.08,0,0,0,12.06,12.07h5.84a12.08,12.08,0,0,0,12.07-12.07v-2.31Z"/><path class="cls-4" d="M155.27,162.77a25.18,25.18,0,0,0-6-2.47A9.26,9.26,0,0,0,147,160a13.2,13.2,0,0,0,2.22-2.09,16.75,16.75,0,0,0,2.86-5.66c.14-.5-.59-.91-1.17-.66a45.72,45.72,0,0,0-6.28,3.3,9.65,9.65,0,0,0,.31-2.21c.05-3.82.1-7.94.12-10.13,0-.45-.66-.79-.92-.47-1.41,1.71-3.94,5.22-4.55,8.83-1.87-3.15-3.82-6.43-4.88-8.2-.23-.39-1-.34-1,.07-.31,2.25-.66,6.72.81,10.16.69,1.6,1.59,3.35,2.49,5a5.61,5.61,0,0,0-.77-.41,30.5,30.5,0,0,1-7.11-4.23c-.47-.38-1.28-.15-1.24.35a5.92,5.92,0,0,0,1.64,3.86c2,1.77,4,2,5.56,2.77a8.41,8.41,0,0,1,.86.49c-.33,0-.67.05-1,.1-2,.28-5.61-.64-7.9-1.31-.57-.17-1,.33-.59.68a35,35,0,0,0,4.16,2.95,9.52,9.52,0,0,0,1.74.82h14l.16-.07c1.88-.88,6.66-.8,8.64-.72C155.38,163.18,155.51,162.91,155.27,162.77Z"/></g><g id="character"><polygon points="206.23 236.42 206.23 280.65 213.24 280.65 221.54 280.65 228.18 280.65 228.18 236.42 206.23 236.42"/><rect x="174.67" y="233.63" width="21.94" height="47.01"/><path d="M171.38,219.72s-3.29,7.38-1.32,13.45c2.21,6.79,8.63,8.48,18.2,9s37.17-.18,40.84-4.67c6.06-7.41,3-14.62,1-18.78S171.38,219.72,171.38,219.72Z"/><path class="cls-4" d="M241.1,154.13l-2.73-2.37a9.62,9.62,0,0,0,.95-2.85,3.05,3.05,0,0,0-.45-1.93,1.12,1.12,0,0,0-1.77-.23c-1.37,1.41-3.79,4.09-3.7,5.36.12,1.78,4.62,11,4.62,11l10.5,1.58s4.19-7.15,3.84-9.4-3.56-8.17-4.74-9c-.92-.65-5.47-1.15-7.47-1.34a.77.77,0,0,0-.82.93,4.11,4.11,0,0,0,1.3,2.3c1.42,1.19,2.25,2.14,2.13,3.56A3.66,3.66,0,0,1,241.1,154.13Z"/><path class="cls-4" d="M150.41,191.3a27.43,27.43,0,0,0-9.2-1.6c-5.72-.12-10,2.06-10.64,2.64-1.88,1.7-.72,2.5-.72,2.5s-1,1.48-.41,2.63c.46.84,1.87.51,1.87.51a1.05,1.05,0,0,0,.42,1.36c.84.6,4.9-.5,6.76-.59,7.85-.38,9.13.29,9.3.41h0Z"/><path class="cls-3" d="M248.52,164.71,238,163.13s-2,16.12-9,16.72c-7.68.66-1.31-5.93-8.55-14-6-6.75-32.26-8.55-43.46-2.85s-14.26,23-16.67,27.87-9.88.44-9.88.44v0l-2.62,7.86h0a47.52,47.52,0,0,0,20.33,12.77c-.47,4.79,0,10.45,3.35,14.95,6.26,8.39,52.28,5.26,56.16,3.05,7.57-4.32,7-11.59,6.48-24.75,4.3-2.84,8.1-7.16,11.55-13.7C251.81,179.85,248.52,164.71,248.52,164.71Z"/><polygon class="cls-2" points="246.92 156.33 233.72 140.92 232.78 138.41 235.26 139.6 248.46 155.01 246.92 156.33"/><rect class="cls-7" x="172.35" y="167.56" width="58.07" height="59.8" rx="3.13"/><path class="cls-1" d="M244,222.61H233.77A1.37,1.37,0,0,0,232.4,224v1.6a1.36,1.36,0,0,0,1.37,1.36h4.07c0,1.77,0,3.41,0,4.91.06,7.42.1,11.91-1.32,13.34a2.92,2.92,0,0,1-2.27.68h-3v-.59a3.82,3.82,0,0,0-3.82-3.82H209.53V227.34H193.75v14.12H175.82a3.82,3.82,0,0,0-3.82,3.82v.61l-3.54,0a2.82,2.82,0,0,1-2.26-.69c-1.42-1.44-1.36-5.92-1.26-13.34,0-1.5,0-3.14.05-4.91l4.07,0a1.37,1.37,0,0,0,1.38-1.36V224a1.37,1.37,0,0,0-1.37-1.37l-10.26-.05a1.37,1.37,0,0,0-1.38,1.36v1.6a1.36,1.36,0,0,0,1.36,1.37l3.76,0q0,2.64-.06,4.89c-.11,8.6-.17,12.91,2,15.08a5.32,5.32,0,0,0,4,1.42H172a3.82,3.82,0,0,0,3.8,3.62h17.35v5.95h6.49v54.88l-28.07,12.4a4.08,4.08,0,1,0,1.23,2.92,4.79,4.79,0,0,0-.07-.77l22.37-9.89L188,324.32a4,4,0,0,0-1.55-.31,4.08,4.08,0,1,0,4.08,4.08,4.14,4.14,0,0,0-.65-2.2l10.91-10.56,9.52,10.85a4,4,0,0,0-.5,1.91A4.08,4.08,0,1,0,213.9,324a3.92,3.92,0,0,0-1.84.46l-6.39-7.28,21.91,10.39a4.2,4.2,0,0,0-.05.51,4.12,4.12,0,1,0,1.06-2.72l-26.5-12.58v-54.9H209v-5.95h18.51a3.82,3.82,0,0,0,3.8-3.64h3a5.35,5.35,0,0,0,4-1.39c2.13-2.16,2.1-6.48,2-15.08,0-1.49,0-3.13,0-4.89H244a1.36,1.36,0,0,0,1.37-1.36V224A1.37,1.37,0,0,0,244,222.61Z"/><path d="M207.46,156.31c.19-.6-2.48-2.32-1.31-4.94s2.78.37,2.95-.16c.42-1.33.53-2,.77-2.62,1.82-4.94,5-6.79,7.23-6.59a1.83,1.83,0,0,1,1.37,1.1,7.6,7.6,0,0,0-5.15-6.28c-5.75-2.17-11.5-.43-18.88,7.49a185.17,185.17,0,0,1-17,15.63s4.45,8.9,11.5,11.39a22,22,0,0,0,13.16.46s2.17-5.68,4.16-11.4h0S206.24,160.12,207.46,156.31Z"/><path class="cls-4" d="M222.51,150.82s-2.21-.4-2.61-1.81c-.29-1-.48-4.2-1.43-5.91a1.83,1.83,0,0,0-1.37-1.1c-2.21-.2-5.41,1.65-7.23,6.59-.24.64-.35,1.29-.77,2.62-.17.53-1.82-2.37-2.95.16s1.5,4.34,1.31,4.94c-1.22,3.81-1.25,4.08-1.25,4.08h0l6,1.23.85-1.58s6.61.6,8.22-.6.4-5.61.4-5.61Z"/><path d="M219.25,155.67a1.46,1.46,0,0,1-1.13-.48.3.3,0,0,1,.06-.43.3.3,0,0,1,.42.05s.47.53,1.51,0a.31.31,0,1,1,.27.55A2.65,2.65,0,0,1,219.25,155.67Z"/><path d="M213.87,150.64h-.05a.3.3,0,0,1-.25-.35,8.85,8.85,0,0,1,.84-2.36c1.05-2,2.08-1.71,2.19-1.68a.3.3,0,0,1,.2.38.31.31,0,0,1-.37.21s-.69-.1-1.48,1.38a8.43,8.43,0,0,0-.78,2.18A.31.31,0,0,1,213.87,150.64Z"/><path d="M216.33,150.79h-.18a.3.3,0,0,1-.23-.36.29.29,0,0,1,.35-.24c.06,0,.55.06.87-.7a.3.3,0,1,1,.56.23A1.53,1.53,0,0,1,216.33,150.79Z"/><path class="cls-4" d="M212.61,282.84a9.73,9.73,0,0,1-2.15,2.8,4.82,4.82,0,0,1,5.08,1.12c3.06,3.78,2,9.44,1.46,12.72a23.58,23.58,0,0,0,.17,5,112.6,112.6,0,0,1,2.64-16.58q1-4.14,1.73-7.22h-8.3A11.77,11.77,0,0,1,212.61,282.84Z"/><path d="M217,299.48c.52-3.28,1.6-8.94-1.46-12.72a4.82,4.82,0,0,0-5.08-1.12,5.16,5.16,0,0,0-1.82,1.06c-2.48,2.18-3.14,5.32-1.9,12.27,1.1,6.12-.47,7.9,0,12.7s3.54,11.69,4.85,12.12,4.52-5.83,5.39-12.23a33.19,33.19,0,0,0,.23-7.11A23.58,23.58,0,0,1,217,299.48Z"/><path class="cls-4" d="M182.68,282.84a9.74,9.74,0,0,1-2.16,2.8,4.82,4.82,0,0,1,5.08,1.12c3.06,3.78,2,9.44,1.46,12.72a23.58,23.58,0,0,0,.17,5,112.6,112.6,0,0,1,2.64-16.58q1-4.14,1.73-7.22h-8.3A11.88,11.88,0,0,1,182.68,282.84Z"/><path d="M187.06,299.48c.52-3.28,1.6-8.94-1.46-12.72a4.82,4.82,0,0,0-5.08-1.12,5.34,5.34,0,0,0-1.82,1.06c-2.47,2.18-3.14,5.32-1.89,12.27,1.1,6.12-.48,7.9,0,12.7s3.53,11.69,4.84,12.12,4.52-5.83,5.4-12.23a33.08,33.08,0,0,0,.22-7.11A23.58,23.58,0,0,1,187.06,299.48Z"/></g><g id="other_details" data-name="other details"><polygon class="cls-1" points="132.37 331.57 112.69 331.57 105.36 284.22 138.67 284.22 132.37 331.57"/><path class="cls-2" d="M132.37,332.26H112.69a.69.69,0,0,1-.68-.59l-7.33-47.34a.69.69,0,0,1,.69-.8h33.3a.69.69,0,0,1,.52.24.71.71,0,0,1,.17.54l-6.31,47.35A.68.68,0,0,1,132.37,332.26Zm-19.09-1.38h18.49l6.12-46H106.17Z"/><path class="cls-4" d="M129.74,293a.71.71,0,0,1-.52-.23.68.68,0,0,1,.06-1l2.88-2.58a.69.69,0,0,1,.91,1l-2.87,2.58A.75.75,0,0,1,129.74,293Z"/><path class="cls-4" d="M127.46,316.22A.69.69,0,0,1,127,315l2.88-2.58a.69.69,0,1,1,.92,1l-2.88,2.58A.71.71,0,0,1,127.46,316.22Z"/><path class="cls-4" d="M120.8,293a.76.76,0,0,1-.33-.08l-3.64-2a.69.69,0,0,1,.66-1.21l3.64,2a.69.69,0,0,1-.33,1.29Z"/><path class="cls-4" d="M125.19,307.89a.8.8,0,0,1-.33-.08l-3.63-2a.69.69,0,0,1-.28-.94.68.68,0,0,1,.93-.28l3.64,2a.69.69,0,0,1-.33,1.3Z"/><path class="cls-4" d="M114.89,301.83a.71.71,0,0,1-.49-.2.69.69,0,0,1,0-1l2-2a.69.69,0,0,1,1,1l-2,2A.71.71,0,0,1,114.89,301.83Z"/><path class="cls-4" d="M117.16,314.55a.69.69,0,0,1-.49-.2.7.7,0,0,1,0-1l2-2a.69.69,0,0,1,1,0,.68.68,0,0,1,0,1l-2,2A.67.67,0,0,1,117.16,314.55Z"/><path class="cls-4" d="M123.07,324.1H123l-3.33-.3a.69.69,0,0,1-.63-.75.72.72,0,0,1,.75-.62l3.33.3a.69.69,0,0,1-.06,1.38Z"/><path class="cls-4" d="M127.92,329.25a.69.69,0,0,1-.43-1.23l2.27-1.82a.7.7,0,0,1,1,.11.69.69,0,0,1-.11,1l-2.27,1.82A.7.7,0,0,1,127.92,329.25Z"/><path class="cls-4" d="M129.22,303.09a.69.69,0,0,1-.68-.59l-.48-3.11a.69.69,0,0,1,1.36-.21l.48,3.11a.69.69,0,0,1-.58.79Z"/><path class="cls-4" d="M111.05,293.76a.69.69,0,0,1-.68-.58l-.48-3.11a.69.69,0,0,1,1.37-.21l.47,3.11a.69.69,0,0,1-.57.79Z"/><path class="cls-3" d="M122.09,283.42h1.38c-.4-7.69-.77-18.78-1.06-29.24.9-2.36,5.51-15.06,3.93-24.49-1.32-7.89-5-18.32-6.68-22.92-.29-.76-1.11-.59-1.2.26-.46,4.17-2,14.64-2.44,23.53a40.46,40.46,0,0,0,5,22C121.29,263.5,121.67,275.32,122.09,283.42Z"/><path class="cls-3" d="M116.89,270.74c.91,4.43,1.84,8.82,2.71,12.68H121C120,279,119,274,117.92,268.9c.78-4.95,2-15.62-.54-22.8s-7.83-16.33-10.23-20.29c-.4-.66-1.17-.23-1.13.62.23,4.21.8,12.86,2,21.6C109.52,258.29,115.13,267.91,116.89,270.74Z"/><path class="cls-3" d="M125.87,270.85c-.64,4.32-1.25,8.65-1.77,12.57h1.39c.49-3.66,1.05-7.67,1.64-11.7,2.13-4.24,7-14.8,7.47-24.06.49-9-.47-21.48-1-27-.08-.92-.81-1-1.06-.08-1.24,4.43-3.69,13.59-5.66,23.25C124.83,253.94,125.44,265.63,125.87,270.85Z"/><path class="cls-3" d="M146.93,237.33c-2.16,3.43-6.55,10.6-10.61,18.5-4.32,8.41-6.43,19.89-7.19,24.88-.39.91-.78,1.81-1.16,2.71h1.5l.57-1.33c2.88-2.66,10-9.85,12.59-18.33,2.52-8.14,4.47-20.32,5.27-25.76C148,237.1,147.37,236.64,146.93,237.33Z"/><path class="cls-3" d="M116.64,283.42l-.16-.27c-.61-4.89-2.39-15.62-6.71-20.51S98.25,253.13,95,251.16c-.54-.32-1.12.58-.85,1.32,1.35,3.65,4.22,11.09,7.72,18.17a35.66,35.66,0,0,0,11.33,12.77Z"/><rect class="cls-4" x="274.14" y="300.23" width="30.24" height="32.03"/><path class="cls-3" d="M286,294.27a47.18,47.18,0,0,0-2-10.38,6.17,6.17,0,0,0,1.06-3c.24-2.21-1.43-6.23-3.34-9.87a8.13,8.13,0,0,0,3.1.34,68.39,68.39,0,0,1,1.84,11.87,134,134,0,0,1,.3,17h3.94c.66-6.78,2.15-17.14,5.37-24.61a71,71,0,0,0,5.14-16.11,6.35,6.35,0,0,0,1.89-1c5.94-4.47,5.32-12.28,4.88-15.06a1.38,1.38,0,0,0-1.19-1.14,1.37,1.37,0,0,1-.68-2.44l1.13-.89a1.36,1.36,0,0,0,.49-1.38,56.13,56.13,0,0,0-3.83-11,140.35,140.35,0,0,0-7.35-13.28,1.39,1.39,0,0,0-1-.64l-1.68-.17,1-2.6a1.35,1.35,0,0,0,0-1.08c-.3-.64-.87-1.84-1.73-3.5s-2.45-4.5-3.58-6.53a1.37,1.37,0,0,0-2.45.1,20.24,20.24,0,0,0-1.5,4.57c-.72,3.74-.42,5.13-1.26,13.63a128.33,128.33,0,0,0-.69,13,1.36,1.36,0,0,0,.86,1.26l1.84.73-1.1.82a1.36,1.36,0,0,0-.52,1.39c.4,1.79,1.39,6.07,2.65,10.45s5.53,13.33,10.74,14.83a70.12,70.12,0,0,1-4.85,14.84,63.19,63.19,0,0,0-3.5,11.5c-.06-1-.13-1.93-.21-2.92a67.82,67.82,0,0,0-2.19-13.36,13.22,13.22,0,0,0,3.1-12c-2.08-8-12.52-21.31-18.63-25.63s-7.6-6.11-7.6-6.11-1.19,2.39-2.23,1.79-1.49-3.58-2.54-3.88-7.6-5.06-8.79-3.57.15,8.64,7.6,16.54,10,8.94,11.92,16.84c.37,1.49.8,2.95,1.28,4.36-5.15-2.56-10.71-7.22-13.79-9.43a36.44,36.44,0,0,0-5.52-3.07,1.39,1.39,0,0,0-2,1.5,40.81,40.81,0,0,0,3.89,10.51c4.32,8.5,7.3,8.95,11.77,14.16s5.82,9.24,10.58,12.37a7.44,7.44,0,0,0,4.65,1.5,46.51,46.51,0,0,1,1.69,9.12c.22,2.12.39,4,.54,5.64h3.09C286.45,298.48,286.27,296.52,286,294.27Z"/><path class="cls-3" d="M332.88,245.41a28.07,28.07,0,0,0-12.84,8c-3.94,4.25-10.21,7.51-12.42,8.58a1.14,1.14,0,0,0-.62,1.27l.65,3.06-2-1.09a1.14,1.14,0,0,0-1.41.23c-1.61,1.8-6,6.95-7.7,11.83-1.19,3.39-.9,5.67,0,7.23a59.16,59.16,0,0,0-3.3,8.4c-.77,2.54-1.41,5-2,7.34h3.16c.5-2.07,1.07-4.24,1.74-6.44a53.18,53.18,0,0,1,2.68-7l.38.23c2,1.1,6.6-.17,9-1a1.15,1.15,0,0,0,.56-1.77l-3.2-4.38,4.33,3.38a1.14,1.14,0,0,0,1.59-.18c2.31-2.84,9.69-12.16,14-20.15,3.55-6.62,6.95-12.74,8.71-15.89A1.15,1.15,0,0,0,332.88,245.41Z"/><path class="cls-2" d="M300.16,258.82h0a.3.3,0,0,1-.27-.33c.92-11-1.1-16.88-5.76-29.09C289.59,217.64,288,200.13,288,200a.31.31,0,0,1,.61,0c0,.17,1.57,17.6,6,29.29,4.7,12.29,6.74,18.19,5.8,29.35A.3.3,0,0,1,300.16,258.82Z"/><path class="cls-2" d="M285.47,269.2a.29.29,0,0,1-.28-.19c0-.11-4.18-10.58-7.25-18.77s-7.3-11.91-13.59-15.63-12.84-12.94-12.9-13a.3.3,0,1,1,.49-.35c.07.09,6.51,9.18,12.72,12.86,6.41,3.79,10.72,7.61,13.85,15.94,3.07,8.18,7.2,18.65,7.24,18.75a.31.31,0,0,1-.17.4Z"/><path class="cls-2" d="M281.85,283.82a.29.29,0,0,1-.23-.1,56,56,0,0,1-5.6-7.94c-1.36-2.42-6.3-10.71-12.74-15.83-5.66-4.5-11.64-12.53-11.7-12.61a.31.31,0,0,1,.06-.43.31.31,0,0,1,.43.07c.06.08,6,8,11.59,12.49,6.52,5.19,11.51,13.56,12.89,16a56,56,0,0,0,5.53,7.84.31.31,0,0,1,0,.43A.31.31,0,0,1,281.85,283.82Z"/><path class="cls-2" d="M298,285.51l-.09,0a.3.3,0,0,1-.2-.38c.09-.27,2.19-6.63,10.31-13.6a112.24,112.24,0,0,0,16-17.31l.28-.37c2.58-3.36,8.23-7.52,8.47-7.69a.29.29,0,0,1,.42.06.31.31,0,0,1-.06.43c-.06,0-5.82,4.28-8.35,7.57l-.28.37A113.26,113.26,0,0,1,308.44,272c-8,6.85-10.11,13.26-10.13,13.32A.31.31,0,0,1,298,285.51Z"/><rect class="cls-3" x="274.13" y="303.89" width="30.26" height="1.22"/><rect class="cls-3" x="274.13" y="307.97" width="30.26" height="1.22"/></g></svg>