<svg xmlns="http://www.w3.org/2000/svg" xmlns:xlink="http://www.w3.org/1999/xlink" viewBox="0 0 423.21 403.97"><defs><style>.cls-1{fill:url(#linear-gradient);}.cls-2{fill:#fff;}.cls-3{fill:#ef6744;}.cls-4,.cls-8{fill:none;}.cls-5{fill:#2755a3;}.cls-6{fill:url(#linear-gradient-2);}.cls-7{fill:url(#linear-gradient-3);}.cls-8{stroke:#fff;stroke-linecap:round;stroke-linejoin:round;}</style><linearGradient id="linear-gradient" x1="86.57" y1="191.55" x2="277.23" y2="81.47" gradientUnits="userSpaceOnUse"><stop offset="0" stop-color="#ef6744"/><stop offset="0.07" stop-color="#ef755b"/><stop offset="0.21" stop-color="#f08d81"/><stop offset="0.35" stop-color="#f0a1a1"/><stop offset="0.49" stop-color="#f1b0ba"/><stop offset="0.64" stop-color="#f1bbcb"/><stop offset="0.81" stop-color="#f1c2d6"/><stop offset="1" stop-color="#f1c4d9"/></linearGradient><linearGradient id="linear-gradient-2" x1="120.77" y1="242.04" x2="220.16" y2="242.04" gradientUnits="userSpaceOnUse"><stop offset="0.28" stop-color="#151e27"/><stop offset="0.39" stop-color="#192a41"/><stop offset="0.58" stop-color="#1f3c6b"/><stop offset="0.75" stop-color="#234a8a"/><stop offset="0.9" stop-color="#26529c"/><stop offset="1" stop-color="#2755a3"/></linearGradient><linearGradient id="linear-gradient-3" x1="162.55" y1="207.54" x2="287.3" y2="207.54" xlink:href="#linear-gradient-2"/></defs><title>Craftwork_illustrations</title><g id="background"><path class="cls-1" d="M193.71,208.71c3.72-6.23,5.82-19.52,23.16-26.87,14.6-6.19,63.8-7.54,69.43-58.56s-37.79-74.18-90-68.47C149.12,60,109.27,84.15,92.83,126.42c-14.39,37-6.6,71.6,12.48,95.58S171.63,245.71,193.71,208.71Z"/><path class="cls-2" d="M238.12,96.86c-4.16,10.5-8.46,21.36-18.09,21.36-4.3,0-9.24-5-10.57-16.08q-.11-1-.24-2.22c-.16-1.51-.36-3.31-.62-5.3-.31.83-.61,1.66-.92,2.48.12,1.07.23,2.07.33,3s.17,1.57.25,2.23c1.41,11.86,6.93,17.16,11.77,17.16,10.46,0,14.91-11.25,19.22-22.13,2.46-6.2,4.84-12.18,8.18-15.73-.1-.48-.19-1-.29-1.44C243.32,83.77,240.77,90.19,238.12,96.86Z"/><path class="cls-2" d="M207.35,94.49c.3-.81.59-1.61.88-2.41C206.43,80.41,202,63.83,188.36,56l-2.05.34C201.55,64.07,205.75,82.68,207.35,94.49Z"/><path class="cls-2" d="M135.49,88.81a75.61,75.61,0,0,1,6.28-17.27c-.63.35-1.26.69-1.89,1a80.2,80.2,0,0,0-5.58,16C134.69,88.65,135.09,88.72,135.49,88.81Z"/><path class="cls-2" d="M254.37,78.29c8.49,0,11.06,10.37,13.55,20.4,0,.14.06.26.1.4.32-.42.63-.86.93-1.3-2.45-9.84-5.33-20.72-14.58-20.72a9.89,9.89,0,0,0-6.18,2.16c.1.45.19.9.28,1.35A8.85,8.85,0,0,1,254.37,78.29Z"/><path class="cls-2" d="M278.18,114.41c-4.91,0-6.88-7.18-8.84-15-.31.42-.62.83-.95,1.23,2,8,4.17,15,9.79,15,3.34,0,6.11-1.68,8.6-4.12,0-.56,0-1.11-.09-1.65C284.19,112.52,281.45,114.41,278.18,114.41Z"/><path class="cls-2" d="M130.62,124.75a.6.6,0,0,0,.61.58h0a.61.61,0,0,0,.58-.63A148.11,148.11,0,0,1,135.2,90L134,89.79A148.89,148.89,0,0,0,130.62,124.75Z"/><path class="cls-3" d="M127.51,88.76l.27,1.18a19.45,19.45,0,0,1,6.23-.15c.09-.4.19-.8.29-1.2A19.9,19.9,0,0,0,127.51,88.76Z"/><path class="cls-3" d="M173,133.6c-17,0-22-14.7-25-30.57-1-5.55-3.46-9.6-7.2-12a15.67,15.67,0,0,0-5.33-2.17c-.1.4-.2.8-.29,1.19a14.45,14.45,0,0,1,5,2c3.45,2.25,5.69,6,6.67,11.24,2.91,15.61,8.31,31.56,26.21,31.56,19.24,0,27.74-19.15,34.64-37.71-.1-.82-.21-1.7-.33-2.61C200.43,113.32,192.21,133.6,173,133.6Z"/><path class="cls-3" d="M259.07,104.16c-6.55,0-7.93-8.17-9.53-17.64-.33-2-.67-4-1.07-5.94a12.22,12.22,0,0,0-1,1c.33,1.72.62,3.45.91,5.15,1.62,9.59,3.15,18.65,10.73,18.65,4.12,0,7-2,9.32-4.79-.12-.5-.25-1-.37-1.5C265.8,102,263,104.16,259.07,104.16Z"/><path class="cls-3" d="M271.75,93.1c-.87,1.56-1.78,3.18-2.8,4.69l.15.61.24,1a56.24,56.24,0,0,0,3.47-5.67c2.24-4,4.18-7.46,7.05-7.64-.21-.38-.43-.77-.66-1.14C276,85.49,273.93,89.19,271.75,93.1Z"/><path class="cls-3" d="M209.4,92.44c5.71-15.63,11.11-30.39,21.68-30.39s14.08,8.65,16.06,18.09a12.66,12.66,0,0,1,1.05-.91c-2.08-9.66-5.82-18.39-17.11-18.39S214.12,76,208.25,92l0,.06c.14.88.26,1.72.37,2.54C208.86,93.89,209.13,93.16,209.4,92.44Z"/><path class="cls-3" d="M208.23,92.08c-.29.8-.58,1.6-.88,2.41.12.91.23,1.79.33,2.61.31-.82.61-1.65.92-2.48C208.49,93.8,208.37,93,208.23,92.08Z"/><path class="cls-3" d="M269,97.79c-.3.44-.61.88-.93,1.3.12.5.25,1,.37,1.5.33-.4.64-.81.95-1.23l-.24-1Z"/><path class="cls-3" d="M134.3,88.59c-.1.4-.2.8-.29,1.2l1.19.21c.09-.39.19-.79.29-1.19C135.09,88.72,134.69,88.65,134.3,88.59Z"/><path class="cls-3" d="M248.19,79.23a12.66,12.66,0,0,0-1.05.91c.1.48.19,1,.29,1.44a12.22,12.22,0,0,1,1-1C248.38,80.13,248.29,79.68,248.19,79.23Z"/><path class="cls-2" d="M116.64,221.71a.61.61,0,1,0,0-1.21h-4.58v-7.28h4.58a.61.61,0,0,0,0-1.22h-4.58v-7.28h4.58a.61.61,0,0,0,0-1.22h-4.58v-7.28h4.58a.61.61,0,1,0,0-1.21h-4.58V139.37h4.58a.61.61,0,0,0,0-1.22h-4.58v-7.28h4.58a.61.61,0,0,0,.61-.61.61.61,0,0,0-.61-.61h-4.58v-7.28h4.58a.61.61,0,1,0,0-1.21h-4.58v-7.28h4.58a.61.61,0,0,0,0-1.22h-4.58v-9l2.38,3.66a.63.63,0,0,0,.52.28.6.6,0,0,0,.33-.1.61.61,0,0,0,.18-.84l-3.5-5.38,0,0,0,0a.5.5,0,0,0-.27-.18s0,0,0,0h-.31l-.15.06,0,0,0,0-.11.11,0,.05,0,0-3.23,5.38a.61.61,0,0,0,1,.63l2.1-3.5V227.67c.4.34.8.67,1.21,1v-6.95Z"/></g><g id="character"><path d="M287.52,210.33l-7.87,24.84,9.73,6.29,40-31.94a3.41,3.41,0,0,0,1-4l-3.65-8.68a160.23,160.23,0,0,0-25.88,7A63.56,63.56,0,0,0,287.52,210.33Z"/><path class="cls-3" d="M326.78,196.86l3.65,8.68a3.41,3.41,0,0,1-1,4l-40,31.94h0l3.6,2.32a2.66,2.66,0,0,0,3.17-.21l40.7-34.53a2.67,2.67,0,0,0,.64-3.26l-4.28-8.19a2.68,2.68,0,0,0-2.82-1.39l-3.6.64Z"/><path class="cls-2" d="M292.51,210.41s0,0,0,0,1,2.16.44,6.89c-.66,5.2-2.89,7.3-3,7.39a.61.61,0,0,1-.82-.9h0s2-1.93,2.61-6.64c.54-4.31-.32-6.19-.33-6.2a.61.61,0,0,1,1.07-.58Z"/><path class="cls-2" d="M297.87,209.06l0,0c0,.08,1,2.16.44,6.89-.66,5.2-2.9,7.31-3,7.39a.61.61,0,0,1-.83-.89c.05,0,2-2,2.61-6.65.55-4.31-.32-6.18-.32-6.2a.61.61,0,0,1,.28-.82A.6.6,0,0,1,297.87,209.06Z"/><path class="cls-2" d="M303.2,207.65s0,0,0,0,1.05,2.16.45,6.89c-.66,5.2-2.9,7.3-3,7.39a.61.61,0,0,1-.83-.89s2-2,2.61-6.65c.55-4.31-.32-6.18-.33-6.2a.63.63,0,0,1,.28-.82A.62.62,0,0,1,303.2,207.65Z"/><path class="cls-2" d="M308.4,206l0,0c0,.09,1.05,2.16.44,6.89-.66,5.2-2.89,7.31-3,7.4a.61.61,0,0,1-.86,0,.6.6,0,0,1,0-.86h0s2-1.93,2.61-6.65c.54-4.31-.32-6.18-.33-6.2a.61.61,0,0,1,1.07-.57Z"/><path class="cls-3" d="M188.85,113.73s-2.17-.39-2.57-1.77c0-.11-.05-.24-.08-.38-.37-1.5-1.93-6.77-5.39-3.67a21.25,21.25,0,0,0-4.16,6.48c-.2.62-4.21,6.26-5.75,6.26h-.27C169,122.5,167,125,167,125a9,9,0,0,0,4.15,3,9.2,9.2,0,0,0,4.34.39h0l4.14-5.52s6.51.59,8.09-.59.39-5.53.39-5.53Z"/><path d="M185.65,118.51a1.46,1.46,0,0,1-1.12-.47.31.31,0,1,1,.48-.38s.45.52,1.48,0a.29.29,0,0,1,.4.14.31.31,0,0,1-.14.41A2.5,2.5,0,0,1,185.65,118.51Z"/><path class="cls-4" d="M186.28,112l-.08-.38C186.23,111.72,186.25,111.85,186.28,112Z"/><path d="M188.35,105.52C187,102.65,185,104,185,104s.31-4.62-2.36-5.75-5.33,2.06-5.33,2.06-3.49-2.67-7.29-.72-3.28,8.51-3.28,8.51-3.27.1-3.67,4.3c-.58,6,5.67,8,7.6,8.21h.27c1.54,0,5.55-5.64,5.75-6.26a21.25,21.25,0,0,1,4.16-6.48c3.46-3.1,5,2.17,5.39,3.67l.08.38S189.69,108.39,188.35,105.52Z"/><path class="cls-3" d="M76,189.91a10.94,10.94,0,0,0-6-.58,37.81,37.81,0,0,0-2.71,9.78c-.76,5.58.53,9,1,9.73,1.46,2,2.37,1,2.37,1s1.32,1.19,2.52.7c.87-.36.71-1.78.71-1.78a1.49,1.49,0,0,0,1.74-.19c.68-.75-.77-4.22-.5-6a18.15,18.15,0,0,1,.73-3.06s1.1,2.56,2.09,1.9.49-2.59,1.13-4.37a17.81,17.81,0,0,1,1.54-3.2A7.74,7.74,0,0,0,76,189.91Z"/><path class="cls-3" d="M272.14,161.24c-.35-2.46-1.64-2-1.64-2s-.62-1.67-1.92-1.78c-.93-.09-1.44,1.25-1.44,1.25s-.68-1-1.63-.64-1.27,4.1-2.35,5.58a18.49,18.49,0,0,1-2.06,2.38s.21-2.79-1-2.66-1.63,2.07-3,3.35a18.21,18.21,0,0,1-2.45,1.89l-.4.24a7.75,7.75,0,0,0,2.28,5.58,11.05,11.05,0,0,0,5,3.28l.08,0a37.5,37.5,0,0,0,6.93-7.42C271.8,165.75,272.26,162.08,272.14,161.24Z"/><path class="cls-5" d="M188.49,112.22l-1.1-5.14a1.35,1.35,0,0,0-1.6-1l-13.16,2.83a1.35,1.35,0,0,0-1,1.6l0,.11a.22.22,0,0,1-.08,0l-8.72,1.88a.92.92,0,0,0-.71,1.1l.62,2.88a.92.92,0,0,0,1.1.71l8.72-1.87s0,0,.07,0l.08.36a1.34,1.34,0,0,0,1.59,1l13.17-2.83A1.33,1.33,0,0,0,188.49,112.22Z"/><path d="M165.91,294l-17.64-19.18L138,280.15l7.82,50.62a3.39,3.39,0,0,0,3,2.85l9.34,1.15a160,160,0,0,0,6.81-25.93A63.38,63.38,0,0,0,165.91,294Z"/><path class="cls-3" d="M158.08,334.77l-9.34-1.15a3.39,3.39,0,0,1-3-2.85L138,280.15h0l-3.81,2a2.67,2.67,0,0,0-1.39,2.85l9.74,52.49a2.66,2.66,0,0,0,2.51,2.17l9.23.36a2.68,2.68,0,0,0,2.61-1.76l1.24-3.44Z"/><path class="cls-2" d="M163.36,298.29h0c-.1,0-2.39-.16-6.2-3-4.19-3.15-4.9-6.14-4.93-6.27a.61.61,0,0,1,1.19-.27h0s.68,2.71,4.47,5.57c3.47,2.62,5.52,2.8,5.54,2.8a.61.61,0,0,1,0,1.21Z"/><path class="cls-2" d="M161.87,303.62h0c-.1,0-2.4-.17-6.21-3-4.18-3.16-4.9-6.15-4.92-6.27a.6.6,0,0,1,.46-.73.59.59,0,0,1,.72.46s.7,2.72,4.47,5.56c3.47,2.62,5.53,2.8,5.55,2.8a.63.63,0,0,1,.57.65A.62.62,0,0,1,161.87,303.62Z"/><path class="cls-2" d="M160.45,308.94h0c-.1,0-2.39-.17-6.2-3-4.19-3.16-4.9-6.14-4.93-6.27a.61.61,0,1,1,1.19-.27c0,.05.69,2.72,4.47,5.57,3.47,2.61,5.52,2.79,5.54,2.79a.62.62,0,0,1,.57.65A.61.61,0,0,1,160.45,308.94Z"/><path class="cls-2" d="M159.27,314.27h0c-.1,0-2.4-.16-6.21-3-4.18-3.15-4.9-6.14-4.92-6.26a.6.6,0,0,1,.46-.73.59.59,0,0,1,.72.45h0s.68,2.71,4.48,5.57c3.46,2.62,5.52,2.8,5.54,2.8a.61.61,0,0,1,0,1.22Z"/><path class="cls-6" d="M120.77,206.93c.48,5.41,3.09,14.21,13.59,22.67,16.81,13.53,47.88,15.8,47.88,15.8l-34.15,29.46L165.91,294l48.82-39.6a14.63,14.63,0,0,0,1.6-21.23c-4.18-4.59-9.32-10-14.74-15a127.49,127.49,0,0,0-14.85-12.24c-11-7.46-19.3-12.8-24.19-15.85-3,2.2-6.38,4.89-10.24,8.19C136.31,212,122.2,207.44,120.77,206.93Z"/><path class="cls-2" d="M165.85,294.84l-18.63-20,33.54-28.94c-6.34-.65-32.09-4-46.78-15.8-10.48-8.43-13.29-17.2-13.81-23.08l-.09-1,.9.32c1.51.54,15.24,4.89,30.94-8.57,3.57-3.06,7-5.83,10.27-8.22l.33-.24.35.22c5.07,3.16,13.38,8.47,24.22,15.86A129,129,0,0,1,202,217.7c4.69,4.4,9.66,9.47,14.77,15.07a15.23,15.23,0,0,1-1.67,22.11ZM149,274.91l17,18.27,48.38-39.24a14,14,0,0,0,1.53-20.35c-5.09-5.58-10-10.62-14.7-15a126.43,126.43,0,0,0-14.78-12.17c-10.57-7.21-18.74-12.44-23.82-15.62-3.12,2.32-6.44,5-9.87,7.92-14.51,12.43-27.52,10.1-31.23,9.07.71,5.62,3.65,13.6,13.26,21.33,16.47,13.26,47.23,15.65,47.54,15.67l1.47.11Z"/><path class="cls-4" d="M193.17,172.27a107.54,107.54,0,0,1-7.14-9.06l-6.87,17.37-.24,0,22.62-.77A57.29,57.29,0,0,1,193.17,172.27Z"/><path class="cls-7" d="M249,186.16a51.62,51.62,0,0,1-9.94,3.21c-15.91,3.44-29.23-3.28-37.54-9.51l-22.62.77c-1.13.31-6.28,2-16.37,9.43,4.89,3.05,13.24,8.39,24.19,15.85a127.49,127.49,0,0,1,14.85,12.24c2.95-.07,6.19-.2,9.74-.4a171,171,0,0,0,27.79-4.11L280,235.22l7.31-25Z"/><path class="cls-2" d="M280.37,236.11,239,214.28a173.11,173.11,0,0,1-27.67,4.08c-3.36.19-6.64.32-9.76.4h-.25l-.18-.17a126.43,126.43,0,0,0-14.78-12.17c-10.82-7.38-19.12-12.69-24.17-15.84l-.77-.47.73-.54c10-7.4,15.22-9.16,16.57-9.52l.14,0,22.83-.79.17.13c8.23,6.17,21.34,12.8,37,9.4a50.9,50.9,0,0,0,9.83-3.17l.29-.13.28.17L288,209.93ZM239.2,213l.2.11,40.22,21.23,7-23.86L249,186.85A52.58,52.58,0,0,1,239.2,190c-16,3.48-29.41-3.2-37.85-9.48l-22.34.76c-1.06.3-5.95,1.93-15.38,8.78,5.12,3.21,13.15,8.36,23.46,15.39a128.9,128.9,0,0,1,14.74,12.12c3-.07,6.22-.2,9.47-.38a172,172,0,0,0,27.67-4.1Z"/><path class="cls-2" d="M256.54,174.46a7.75,7.75,0,0,1-2.28-5.58l.4-.24c-2.76,1.09-11.74,3.66-24.95-2.41-13.41-6.16-24.45-34.89-35.44-38.18s-18.83.28-18.83.28h0a9.2,9.2,0,0,1-4.34-.39,9,9,0,0,1-4.15-3s-8.57-6.8-24.68-3.75-26.51,8.65-43.06,23.14c-21.78,19.08-29.28,45-29.28,45a10.94,10.94,0,0,1,6,.58,7.74,7.74,0,0,1,4.6,3.89s7.91-16.16,26.75-28.66c10.85-7.21,23.77-9.35,23.77-9.35s-6,15.11-8.52,27.47a108.5,108.5,0,0,0-1.92,23.63l.12,0c1.43.51,15.54,5,31.54-8.68,3.86-3.3,7.26-6,10.24-8.19h0c10.09-7.44,15.24-9.12,16.37-9.43l.24,0L186,163.21a107.54,107.54,0,0,0,7.14,9.06,57.29,57.29,0,0,0,8.37,7.59L225.9,179a36.43,36.43,0,0,1,20.62,5.56l2.5,1.57a40.39,40.39,0,0,0,12.52-8.42A11.05,11.05,0,0,1,256.54,174.46Z"/><path class="cls-2" d="M225.9,179l-24.36.83c8.31,6.23,21.63,12.95,37.54,9.51a51.62,51.62,0,0,0,9.94-3.21l-2.5-1.57A36.43,36.43,0,0,0,225.9,179Z"/><line class="cls-8" x1="111.64" y1="169.22" x2="116.66" y2="169.22"/><line class="cls-8" x1="111.64" y1="177.71" x2="116.66" y2="177.71"/><line class="cls-8" x1="111.64" y1="186.21" x2="116.66" y2="186.21"/><line class="cls-8" x1="111.64" y1="194.71" x2="116.66" y2="194.71"/><path class="cls-2" d="M272.47,226.8l-.18,0a.61.61,0,0,1-.4-.76l5.95-19.19a.6.6,0,0,1,.76-.4.61.61,0,0,1,.4.76l-5.95,19.19A.61.61,0,0,1,272.47,226.8Z"/><path class="cls-2" d="M240.59,210.85h-.1a.59.59,0,0,1-.5-.7l1.08-6.48a.6.6,0,0,1,.7-.5.61.61,0,0,1,.5.7l-1.08,6.48A.61.61,0,0,1,240.59,210.85Z"/><path class="cls-2" d="M243.11,212.26a.55.55,0,0,1-.32-.1.6.6,0,0,1-.19-.84l3.31-5.18a.6.6,0,0,1,.84-.19.61.61,0,0,1,.19.84L243.63,212A.63.63,0,0,1,243.11,212.26Z"/><path class="cls-2" d="M173.78,284.69a.62.62,0,0,1-.44-.18l-15.15-15.39a.6.6,0,0,1,0-.86.62.62,0,0,1,.87,0l15.15,15.39a.6.6,0,0,1,0,.86A.58.58,0,0,1,173.78,284.69Z"/><path class="cls-2" d="M186.64,244.73a.61.61,0,0,1-.24-1.17l6.43-2.76a.61.61,0,0,1,.48,1.12l-6.43,2.76A.69.69,0,0,1,186.64,244.73Z"/><path class="cls-2" d="M191.46,247.71h-.05l-5.28-.46a.61.61,0,0,1-.56-.66.62.62,0,0,1,.66-.55l5.28.46a.61.61,0,0,1,.56.66A.62.62,0,0,1,191.46,247.71Z"/></g><g id="other_details" data-name="other details"><rect class="cls-2" x="233.04" y="115.75" width="34.33" height="33.38"/><path class="cls-5" d="M267.38,149.74H233a.61.61,0,0,1-.6-.61V115.75a.6.6,0,0,1,.6-.61h34.34a.61.61,0,0,1,.61.61v33.38A.62.62,0,0,1,267.38,149.74Zm-33.73-1.22h33.12V116.36H233.65Z"/><rect class="cls-2" x="217.13" y="100.92" width="39.18" height="38.09"/><path class="cls-5" d="M256.31,139.63H217.13a.61.61,0,0,1-.61-.61v-38.1a.61.61,0,0,1,.61-.61h39.18a.61.61,0,0,1,.61.61V139A.61.61,0,0,1,256.31,139.63Zm-38.57-1.22h38V101.53h-38Z"/><path class="cls-5" d="M252.29,117.87H221.15a.6.6,0,0,1-.61-.6V107.12a.61.61,0,0,1,.61-.61h31.14a.62.62,0,0,1,.61.61v10.15A.61.61,0,0,1,252.29,117.87Zm-30.53-1.21h29.92v-8.93H221.76Z"/><path class="cls-5" d="M252.29,134.56H240.58a.6.6,0,0,1-.6-.61V122.64a.6.6,0,0,1,.6-.61h11.71a.61.61,0,0,1,.61.61V134A.61.61,0,0,1,252.29,134.56Zm-11.1-1.21h10.49v-10.1H241.19Z"/><path class="cls-5" d="M221.15,117.87a.6.6,0,0,1-.58-.42.62.62,0,0,1,.4-.77L252,107a.61.61,0,0,1,.36,1.16l-31,9.69A.55.55,0,0,1,221.15,117.87Z"/><path class="cls-5" d="M252.29,117.87a.62.62,0,0,1-.19,0L221,107.7a.61.61,0,1,1,.38-1.16l31.14,10.15a.6.6,0,0,1-.19,1.18Z"/><path class="cls-5" d="M233.33,124H221.67a.61.61,0,0,1-.61-.61.61.61,0,0,1,.61-.61h11.66a.61.61,0,0,1,.61.61A.61.61,0,0,1,233.33,124Z"/><path class="cls-5" d="M233.33,127.47H221.67a.61.61,0,1,1,0-1.22h11.66a.61.61,0,0,1,0,1.22Z"/><path class="cls-5" d="M233.33,131H221.67a.61.61,0,1,1,0-1.22h11.66a.61.61,0,1,1,0,1.22Z"/><path class="cls-5" d="M233.33,134.49H221.67a.61.61,0,0,1-.61-.61.61.61,0,0,1,.61-.61h11.66a.61.61,0,0,1,.61.61A.61.61,0,0,1,233.33,134.49Z"/><circle class="cls-3" cx="298.2" cy="179.9" r="10.66"/><path class="cls-5" d="M312,177.72c-1.1-.36-2.33-.69-3.65-1a10.14,10.14,0,0,1,.31,1.33c1.06.27,2.06.55,3,.84,4,1.28,4.79,2.3,4.76,2.55s-1.06,1-5.24,1.32a73.33,73.33,0,0,1-13.27-.58,74.1,74.1,0,0,1-13-2.65c-4-1.29-4.79-2.3-4.76-2.56.08-.66,3-1.4,8.31-1.41a9.1,9.1,0,0,1,.63-1.21c-5.18-.06-9.9.48-10.15,2.47-.16,1.34,1.67,2.6,5.6,3.87a75.66,75.66,0,0,0,13.23,2.7,86.75,86.75,0,0,0,10.29.69c1.14,0,2.22,0,3.21-.1,4.12-.27,6.21-1.05,6.37-2.39S316,179,312,177.72Z"/><circle class="cls-5" cx="120.86" cy="181.22" r="16.91"/><path class="cls-5" d="M137.54,166.53c-1.78.47-3.71,1.06-5.75,1.76a15.93,15.93,0,0,1,1.55,1.51c1.64-.54,3.22-1,4.68-1.4,6.43-1.66,8.38-1,8.55-.62s-.53,2.3-5.89,6.22a117,117,0,0,1-18.27,10.5,118.34,118.34,0,0,1-19.68,7.5c-6.43,1.67-8.37,1-8.55.62-.45-1,2.82-4.41,9.93-9a15.45,15.45,0,0,1-.18-2.16c-7,4.32-12.86,9.06-11.49,11.94.91,1.92,4.43,2.06,10.77.42a119.86,119.86,0,0,0,20-7.63,136.35,136.35,0,0,0,14.36-7.81q2.29-1.47,4.22-2.87c5.28-3.86,7.41-6.68,6.5-8.61S143.88,164.89,137.54,166.53Z"/></g></svg>