<svg xmlns="http://www.w3.org/2000/svg" xmlns:xlink="http://www.w3.org/1999/xlink" viewBox="0 0 423.21 403.97"><defs><style>.cls-1{fill:#ef6744;}.cls-2{fill:url(#linear-gradient);}.cls-3{fill:#f1c4d9;}.cls-4{fill:#2755a3;}.cls-5{fill:#fff;}.cls-6{fill:url(#linear-gradient-2);}.cls-7{fill:url(#linear-gradient-3);}</style><linearGradient id="linear-gradient" x1="266.25" y1="265.19" x2="266.25" y2="102.24" gradientUnits="userSpaceOnUse"><stop offset="0" stop-color="#ef6744"/><stop offset="0.28" stop-color="#f08371"/><stop offset="0.77" stop-color="#f1b2bc"/><stop offset="1" stop-color="#f1c4d9"/></linearGradient><linearGradient id="linear-gradient-2" x1="183.27" y1="114.47" x2="277.46" y2="114.47" gradientUnits="userSpaceOnUse"><stop offset="0.28" stop-color="#151e27"/><stop offset="0.39" stop-color="#192a41"/><stop offset="0.58" stop-color="#1f3c6b"/><stop offset="0.75" stop-color="#234a8a"/><stop offset="0.9" stop-color="#26529c"/><stop offset="1" stop-color="#2755a3"/></linearGradient><linearGradient id="linear-gradient-3" x1="60.28" y1="193.98" x2="172.11" y2="193.98" xlink:href="#linear-gradient-2"/></defs><title>Craftwork_illustrations</title><g id="background"><path class="cls-1" d="M336.8,239.47l.17,0c.26-.36.53-.72.78-1.09A4.48,4.48,0,0,0,336.8,239.47Z"/><path class="cls-2" d="M321.56,110.5c-22.83-17.71-66.05-6.9-78,31.92-2,6.54-1,19.19-15.21,29.79-12,8.94-56.76,21.16-50.52,69.15a66,66,0,0,0,5.73,20.08,88.14,88.14,0,0,1,31.6-2c42.42,5.28,54.29,12.29,83.21-6.91a80,80,0,0,1,24-10.26,24.13,24.13,0,0,1,13.36-7.36,7.9,7.9,0,0,1,4.05.41c.37-.58.73-1.17,1.09-1.76-1.95-1-4-1.46-5.71-.45-5.19,3.05-16.07,2-16.89-4.11s-1.49-7.59-7.6-7.26c-5,.27-9.4-8.36-5.85-11.84a9.08,9.08,0,0,1,12.46-.41c3.94,3.7,7.2,3,11.39,3s9.17,5.65,10.35,11.24c.42,2,1.9,4.41,3.65,6.75.36-.64.72-1.28,1.06-1.93-2.25-3-3.3-7.18-2-9.46,1.6-2.71,3.29-4.57,2.38-8.54a6.86,6.86,0,0,1,5-8,4,4,0,0,1,3.68,1.22c.63-2.81,1.15-5.67,1.53-8.6a101,101,0,0,0-.44-30.42c-17.7,1-44.08.4-44.56-1.69-.7-3,9.1-3.79,9.1-3.79s-.7-3.59,4.9-4.79,6.3,0,6.3,0,2.26-4.22,12.26-3.19a17.77,17.77,0,0,1,9.86,4.05A86.28,86.28,0,0,0,321.56,110.5Zm-8.12,83.3c1.62.72,4.13,1.86,7.31,3.44A4.37,4.37,0,0,1,319.4,195c-1-3.5,1.05-8.55,1.05-8.55s4.32,2.71,5.05,6a7.31,7.31,0,0,1-1.67,5.93,4.53,4.53,0,0,1-1.11-.13c1.15.59,2.36,1.22,3.63,1.9a29.15,29.15,0,0,1,2.53,1.53,3.4,3.4,0,0,1-.08-.57c-.28-3.63,2.7-8.18,2.7-8.18s3.71,3.5,3.79,6.84a7.12,7.12,0,0,1-2.51,5.25,16.4,16.4,0,0,1,3.5,5.87.47.47,0,0,1-.07.43.44.44,0,0,1-.25.19.48.48,0,0,1-.62-.31,15.71,15.71,0,0,0-4.18-6.42,4.38,4.38,0,0,1-1.56-1.35,25.34,25.34,0,0,0-3.71-2.41l-2.56-1.35a4.41,4.41,0,0,1-3.27,3.89c-3.49,1-8.56-.94-8.56-.94s2.65-4.35,5.9-5.13a5.82,5.82,0,0,1,1.28-.16c-2.33-1.13-4.21-2-5.53-2.57a4.37,4.37,0,0,1-4.59,1.76c-3.56-.71-7.13-4.82-7.13-4.82s4.37-2.61,7.61-1.79A7.18,7.18,0,0,1,313.44,193.8Zm6.12-68.65c-5.25,3.59-59.17,3.59-59.87.6s9.1-3.79,9.1-3.79-.7-3.59,4.9-4.79,6.31,0,6.31,0,2.25-4.22,12.25-3.19c7.7.8,11.2,5.39,11.2,5.39C307.66,119.37,325.74,120.93,319.56,125.15Z"/><path class="cls-3" d="M331.9,244.13c-4.09,1.44-4.55-1-5.91.21s-1.87,5.38-4.31,7.17-3.95.88-4.2.2c-.48-1.34.55-3.51,3-7.16a17.8,17.8,0,0,1,1.82-2.25,80,80,0,0,0-24,10.26c-28.92,19.2-40.79,12.19-83.21,6.91a88.14,88.14,0,0,0-31.6,2c14.78,30.84,52.82,36.76,92,22.55,25.67-9.32,47.23-24.51,61.44-44.55l-.17,0C335.81,241,334.79,243.11,331.9,244.13Z"/><path class="cls-4" d="M301.43,191.69s3.57,4.11,7.13,4.82a4.37,4.37,0,0,0,4.59-1.76c1.32.59,3.2,1.44,5.53,2.57a5.82,5.82,0,0,0-1.28.16c-3.25.78-5.9,5.13-5.9,5.13s5.07,2,8.56.94a4.41,4.41,0,0,0,3.27-3.89l2.56,1.35a25.34,25.34,0,0,1,3.71,2.41,4.38,4.38,0,0,0,1.56,1.35,15.71,15.71,0,0,1,4.18,6.42.48.48,0,0,0,.62.31.44.44,0,0,0,.25-.19.47.47,0,0,0,.07-.43,16.4,16.4,0,0,0-3.5-5.87,7.12,7.12,0,0,0,2.51-5.25c-.08-3.34-3.79-6.84-3.79-6.84s-3,4.55-2.7,8.18a3.4,3.4,0,0,0,.08.57,29.15,29.15,0,0,0-2.53-1.53c-1.27-.68-2.48-1.31-3.63-1.9a4.53,4.53,0,0,0,1.11.13,7.31,7.31,0,0,0,1.67-5.93c-.73-3.26-5.05-6-5.05-6s-2,5.05-1.05,8.55a4.37,4.37,0,0,0,1.35,2.22c-3.18-1.58-5.69-2.72-7.31-3.44a7.18,7.18,0,0,0-4.4-3.9C305.8,189.08,301.43,191.69,301.43,191.69Z"/><path class="cls-5" d="M303.45,119.37s-3.5-4.59-11.2-5.39c-10-1-12.25,3.19-12.25,3.19s-.7-1.19-6.31,0-4.9,4.79-4.9,4.79-9.8.8-9.1,3.79,54.62,3,59.87-.6C325.74,120.93,307.66,119.37,303.45,119.37Z"/><path class="cls-5" d="M329.64,154.57s-.7-1.19-6.3,0-4.9,4.79-4.9,4.79-9.8.8-9.1,3.79c.48,2.09,26.86,2.72,44.56,1.69a91.37,91.37,0,0,0-2.14-9.41,17.77,17.77,0,0,0-9.86-4.05C331.9,150.35,329.64,154.57,329.64,154.57Z"/><path class="cls-4" d="M349.13,202.64a6.86,6.86,0,0,0-5,8c.91,4-.78,5.83-2.38,8.54-1.34,2.28-.29,6.46,2,9.46a97,97,0,0,0,9.12-24.73A4,4,0,0,0,349.13,202.64Z"/><path class="cls-4" d="M339,223.77c-1.18-5.59-6.17-11.25-10.35-11.24s-7.45.69-11.39-3a9.08,9.08,0,0,0-12.46.41c-3.55,3.48.87,12.11,5.85,11.84,6.11-.33,6.79,1.11,7.6,7.26s11.7,7.16,16.89,4.11c1.73-1,3.76-.57,5.71.45.61-1,1.22-2,1.8-3.07C340.88,228.18,339.4,225.74,339,223.77Z"/><path class="cls-4" d="M337.75,238.35c.68-1,1.34-2,2-3a7.9,7.9,0,0,0-4.05-.41,24.13,24.13,0,0,0-13.36,7.36,122.72,122.72,0,0,1,14.47-2.83A4.48,4.48,0,0,1,337.75,238.35Z"/><path class="cls-4" d="M317.48,251.71c.25.68,1.77,1.59,4.2-.2s2.95-6,4.31-7.17,1.82,1.23,5.91-.21c2.89-1,3.91-3.18,4.9-4.66a122.72,122.72,0,0,0-14.47,2.83,17.8,17.8,0,0,0-1.82,2.25C318,248.2,317,250.37,317.48,251.71Z"/></g><g id="character"><path class="cls-1" d="M183.45,74.14c-1.69,1.73-2.59,5.3-3.33,7.15-.22.55-3.41,5.75-4.65,5.75a2.84,2.84,0,0,1-1.15-.42c-1.53,1.69-4.16,4.87-4.16,4.87A8.35,8.35,0,0,0,174,94.23a8.68,8.68,0,0,0,4,.37l3.83-5.12s6,.55,7.5-.55.37-5.12.37-5.12l.73-2.74s-2-.37-2.38-1.65c0-.12-.07-.29-.1-.47l-.07.11S186.69,70.85,183.45,74.14Z"/><path d="M190,67.2A1.6,1.6,0,0,0,187.6,66c-5.42,4-5.73,1.83-12.8,3.09-3.56.64-6.79,4.25-6.14,10.56.32,3.07,3.69,6,5.66,7a2.84,2.84,0,0,0,1.15.42c1.24,0,4.43-5.2,4.65-5.75.74-1.85,1.64-5.42,3.33-7.15,3.24-3.29,4.46,4.92,4.46,4.92L188,79c.38-.62,2.27-3.84,2.48-6.45A20.5,20.5,0,0,0,190,67.2Z"/><path d="M75.42,242.68l-15-21.28-10.89,4,1.27,51.2a3.4,3.4,0,0,0,2.56,3.21l9.12,2.33a160.08,160.08,0,0,0,10.07-24.84A63.63,63.63,0,0,0,75.42,242.68Z"/><path class="cls-1" d="M62.44,282.1l-9.12-2.33a3.4,3.4,0,0,1-2.56-3.21l-1.27-51.2v0l-4,1.47a2.68,2.68,0,0,0-1.75,2.65l2.94,53.3a2.65,2.65,0,0,0,2.21,2.47L58,286.77a2.67,2.67,0,0,0,2.81-1.41l1.67-3.25Z"/><path class="cls-5" d="M72.34,246.6h0c-.09,0-2.35-.47-5.76-3.81-3.74-3.67-4.07-6.72-4.08-6.85a.61.61,0,0,1,.55-.66.59.59,0,0,1,.66.54h0s.33,2.77,3.72,6.1c3.11,3,5.12,3.48,5.14,3.48a.61.61,0,0,1-.19,1.2Z"/><path class="cls-5" d="M70.18,251.69h0c-.1,0-2.35-.47-5.76-3.81-3.75-3.67-4.07-6.72-4.09-6.85a.61.61,0,0,1,1.22-.12c0,.06.34,2.79,3.72,6.1,3.1,3,5.12,3.48,5.14,3.48a.62.62,0,0,1,.48.72A.61.61,0,0,1,70.18,251.69Z"/><path class="cls-5" d="M68.09,256.79h0c-.09,0-2.35-.48-5.76-3.81-3.74-3.67-4.07-6.72-4.08-6.85a.6.6,0,0,1,.55-.66.59.59,0,0,1,.66.54c0,.05.34,2.79,3.72,6.1,3.11,3,5.12,3.48,5.14,3.48a.61.61,0,0,1-.19,1.2Z"/><path class="cls-5" d="M66.24,261.92h0c-.1,0-2.36-.47-5.77-3.81-3.74-3.67-4.07-6.72-4.08-6.85a.6.6,0,0,1,.55-.66.59.59,0,0,1,.66.54h0s.33,2.77,3.73,6.1c3.1,3,5.12,3.48,5.14,3.48a.61.61,0,0,1,.47.72A.6.6,0,0,1,66.24,261.92Z"/><path class="cls-1" d="M267.67,100a7.16,7.16,0,0,0,4.21,3.67,10.06,10.06,0,0,0,5.58.62,34.81,34.81,0,0,0,2.65-9c.78-5.16-.36-8.39-.81-9-1.32-1.9-2.18-1-2.18-1s-1.21-1.13-2.33-.69c-.81.33-.68,1.64-.68,1.64a1.38,1.38,0,0,0-1.61.15c-.64.69.65,3.92.37,5.6a17.13,17.13,0,0,1-.71,2.83s-1-2.4-1.92-1.8-.49,2.4-1.1,4A16.51,16.51,0,0,1,267.67,100Z"/><path class="cls-5" d="M275.13,206.11c-1-3.18-2.12-6.45-2.93-8.69a125.69,125.69,0,0,0-11.3-26.33c-15-25-17-27.27-17-27.27s-26.6-5.39-26.6-5.28v.35c-.43-.25-.67-.37-.67-.37s-12.83,3.83-16,19.42c-3.69,18,6.83,25.77,13.24,35.12S224.64,206,224.64,206a40.36,40.36,0,0,0-32.38,2.2c-16.61,8.84-26.7,12.62-30.32,13.35-1.23.24-1.29.35-1.29.35l-1,9s16.51,7.23,45,4.64,41.62-8.3,45-13.13a.25.25,0,0,0,0-.07,210.27,210.27,0,0,0,19.74,31.83c8.48,11.15,17.35,15.34,17.35,15.34l9.21-3.1S279,218.81,275.13,206.11Z"/><path class="cls-4" d="M171.56,278.05l-3.93-51.62a8.55,8.55,0,0,0-1.44-4.38l-18.5-34.33,22.89-30.38,21.64,45.35a18.52,18.52,0,0,1,2.54,9.63l1.73,57.86Z"/><path class="cls-1" d="M240.88,73.36,240,70.07a2,2,0,0,0-2-1.37,7.8,7.8,0,0,0-5.47,1.81c-2.09,1.9-2.47.95-4,1.9s1.14,5.13,1.14,5.13l-1.09,1.81L227.1,85a7.44,7.44,0,0,0,2.31,2.58c1.83.85,3.26.37,3.59-1.57.16-.95.5-2.26.5-2.26l1.14.32a2.19,2.19,0,0,0,2.05-.48,13.27,13.27,0,0,0,4-6.53,13,13,0,0,0,.2-3.75Zm-6.8.15a.3.3,0,1,1,.49-.35,1.35,1.35,0,0,0,.87.63,1.24,1.24,0,0,0,.78-.19.29.29,0,0,1,.42.05.31.31,0,0,1,0,.43,1.77,1.77,0,0,1-1,.33l-.24,0A1.88,1.88,0,0,1,234.08,73.51Zm3.08,6.78-.33,0c-1.2,0-1.43-.73-1.44-.76a.3.3,0,1,1,.58-.18s.2.4,1.13.32a.28.28,0,0,1,.33.27A.29.29,0,0,1,237.16,80.29Zm1.63-2.67a.32.32,0,0,1-.21.08h0l-1.4-.16a.31.31,0,0,1-.27-.34.29.29,0,0,1,.34-.27l1.05.13-.09-2.58a.32.32,0,0,1,.3-.31.28.28,0,0,1,.31.29l.1,2.93A.35.35,0,0,1,238.79,77.62Z"/><path d="M238.48,74.16a.32.32,0,0,0-.3.31l.09,2.58-1.05-.13a.29.29,0,0,0-.34.27.31.31,0,0,0,.27.34l1.4.16h0a.32.32,0,0,0,.21-.08.35.35,0,0,0,.1-.24l-.1-2.93A.28.28,0,0,0,238.48,74.16Z"/><path d="M237.1,79.69c-.93.08-1.12-.3-1.13-.32a.3.3,0,1,0-.58.18s.24.76,1.44.76l.33,0a.29.29,0,0,0,.27-.33A.28.28,0,0,0,237.1,79.69Z"/><path d="M236.59,74.08a.31.31,0,0,0,0-.43.29.29,0,0,0-.42-.05,1.24,1.24,0,0,1-.78.19,1.35,1.35,0,0,1-.87-.63.3.3,0,1,0-.49.35,1.88,1.88,0,0,0,1.26.88l.24,0A1.77,1.77,0,0,0,236.59,74.08Z"/><path d="M240.67,64.15a10.71,10.71,0,0,0-8.91-5.73c-.62-3-2.32-6.88-6.92-8.28-9.76-3-15.24,6.47-18.2,9.1s-8.76,1.86-9.53,2.74-1.49,3.36,1,7c2.3,3.4,6.66,4.62,11.42,2.57,8.23-3.54,8.74-11.66,10.82-13.85s7-1,8,1.23l-.4.16c-4,1.9-6.49,8.18-5,13.5a10.26,10.26,0,0,0,5.54,6.84l.05-.09,1.09-1.81s-2.66-4.18-1.14-5.13,1.9,0,4-1.9A7.8,7.8,0,0,1,238,68.7a2,2,0,0,1,2,1.37l.91,3.29,0-.07A10.62,10.62,0,0,0,240.67,64.15Z"/><path class="cls-3" d="M228.45,59.13s.45.91,1.94.48c1.31-.37,1.44-1.19,1.44-1.19L231.41,57a5.24,5.24,0,0,1-1.61,1.06,3.87,3.87,0,0,1-1.87.19Z"/><path class="cls-4" d="M286.8,269.47l9-3.61a49.86,49.86,0,0,0,11.39,2.62c6.33.66,20-.34,22.33-.34s3,3-11.33,9-23.33,10-25.66,9.67S286.8,269.47,286.8,269.47Z"/><path d="M329.54,268.14c2.33,0,3,3-11.33,9s-23.33,10-25.66,9.67c-.49-.07-1-.86-1.56-2.07C288.94,280.14,327.21,268.14,329.54,268.14Z"/><path class="cls-5" d="M297.14,269.87a.61.61,0,0,1-.32-1.13c.72-.43,2.68-1.81,3.17-2.94a.6.6,0,0,1,.8-.31.61.61,0,0,1,.32.8c-.74,1.68-3.36,3.31-3.66,3.49A.56.56,0,0,1,297.14,269.87Z"/><path class="cls-5" d="M300.94,270.84a.59.59,0,0,1-.52-.29.61.61,0,0,1,.2-.84c.71-.43,2.67-1.81,3.17-2.94a.61.61,0,0,1,.8-.31.6.6,0,0,1,.31.8c-.73,1.69-3.35,3.31-3.65,3.49A.56.56,0,0,1,300.94,270.84Z"/><path class="cls-5" d="M304.74,271.52a.59.59,0,0,1-.52-.29.61.61,0,0,1,.2-.84c.71-.43,2.67-1.8,3.17-2.93a.61.61,0,0,1,.8-.32.6.6,0,0,1,.31.8c-.73,1.69-3.35,3.32-3.65,3.5A.6.6,0,0,1,304.74,271.52Z"/><path class="cls-4" d="M160.71,221.87l-1.11,9.66a49.51,49.51,0,0,0-7.71,8.77c-3.6,5.26-9.22,17.75-10.32,19.81s-4.07,1.21-2.53-14.25,2.29-25.28,3.69-27.17S160.71,221.87,160.71,221.87Z"/><path d="M141.57,260.11c-1.11,2.05-4.07,1.21-2.53-14.25s2.29-25.28,3.69-27.17c.29-.4,1.24-.49,2.56-.39C150.31,218.69,142.67,258.05,141.57,260.11Z"/><path class="cls-5" d="M157.2,236.21a.58.58,0,0,1-.48-.24c-1.14-1.45-1.32-4.52-1.34-4.87a.61.61,0,0,1,.58-.64.56.56,0,0,1,.63.58c0,.83.32,3.21,1.08,4.18a.62.62,0,0,1-.1.86A.64.64,0,0,1,157.2,236.21Z"/><path class="cls-5" d="M154.53,239.09a.63.63,0,0,1-.48-.24c-1.13-1.45-1.32-4.52-1.33-4.87a.61.61,0,0,1,.57-.64.57.57,0,0,1,.64.58c0,.83.32,3.21,1.08,4.18a.62.62,0,0,1-.1.86A.67.67,0,0,1,154.53,239.09Z"/><path class="cls-5" d="M152.13,242.1a.62.62,0,0,1-.48-.23c-1.14-1.45-1.32-4.53-1.34-4.87a.61.61,0,0,1,.58-.64h0a.61.61,0,0,1,.61.58c0,.83.32,3.21,1.08,4.18a.6.6,0,0,1-.11.85A.58.58,0,0,1,152.13,242.1Z"/><path class="cls-1" d="M211.38,136.19a7.19,7.19,0,0,0-4.81,2.84,10.07,10.07,0,0,0-2.35,5.1,35.05,35.05,0,0,0,7.73,5.36c4.65,2.37,8.07,2.3,8.83,2.08,2.21-.66,1.58-1.77,1.58-1.77s1.45-.79,1.39-2c-.05-.87-1.34-1.16-1.34-1.16a1.4,1.4,0,0,0,.37-1.57c-.45-.83-3.94-.62-5.44-1.41a16.86,16.86,0,0,1-2.45-1.57s2.58-.18,2.3-1.26-2.12-1.22-3.48-2.31A16.65,16.65,0,0,1,211.38,136.19Z"/><path class="cls-6" d="M267.67,100s-7.49,13.64-16.84,12.46a36.72,36.72,0,0,0-.36-7.1c-2.25-13.45-17.79-18.73-17.79-18.73L227.1,85h-.16a3.29,3.29,0,0,0-.43-.09c-5.06-.49-39,.33-42.84,21.84s20.55,37.39,20.55,37.39l7.16-7.94S199.12,123,206,114.4a8.91,8.91,0,0,1,5-2.64c1.72,12.73,4.55,27.12,4.55,27.12l28.29,4.94a54.67,54.67,0,0,0,2.76-8.09c.59,0,1.19-.09,1.79-.17,21.62-3.16,29-31.29,29-31.29Z"/><path class="cls-4" d="M252.59,218a.63.63,0,0,1-.19,0,.62.62,0,0,1-.39-.77c.56-1.68,2.16-17.74-7-39.13l-9.64-22.6a.61.61,0,1,1,1.12-.48l9.64,22.61c10.2,23.92,7,39.85,7,40A.61.61,0,0,1,252.59,218Z"/><path class="cls-4" d="M209.18,159.57c-3.43,0-4.4-2-4.45-2.1a.61.61,0,0,1,1.1-.52c.06.11,1.25,2.31,6.22,1s5.62-3.82,5.62-3.84a.61.61,0,0,1,1.2.19c0,.13-.56,3.23-6.5,4.83A12.59,12.59,0,0,1,209.18,159.57Z"/><path class="cls-5" d="M173.21,264.26a.61.61,0,0,1-.2-1.18,87.93,87.93,0,0,1,10.06-2.81,34.35,34.35,0,0,1,8.08-.89.6.6,0,0,1,.58.63.59.59,0,0,1-.64.58,34.79,34.79,0,0,0-7.77.87,87.54,87.54,0,0,0-9.9,2.77Z"/><path class="cls-5" d="M169.86,223.21a.61.61,0,0,1-.33-1.12l4.73-3.06a.61.61,0,0,1,.66,1l-4.73,3.06A.56.56,0,0,1,169.86,223.21Z"/><path class="cls-5" d="M175.63,226.86h0l-5.47-.3a.6.6,0,0,1-.58-.64.59.59,0,0,1,.64-.57l5.47.29a.61.61,0,0,1,0,1.22Z"/><path class="cls-7" d="M134.17,145.1s-4.59-.15-10.58,18.16c-3.15,9.64-7.28,23.46-9.2,30a8.3,8.3,0,0,1-4.56,5.2L60.28,221.57l14.87,21.29L132.71,220a11.72,11.72,0,0,0,6-4.71c7.28-11.33,30.5-47.57,32.85-52.43C177.65,150.14,134.17,145.1,134.17,145.1Z"/><path class="cls-5" d="M74.93,243.61,59.36,221.33l50.22-23.45a7.65,7.65,0,0,0,4.22-4.83c2.12-7.14,6.13-20.54,9.21-30,6-18.21,10.6-18.6,11.17-18.58h.06c1.33.15,32.63,3.89,37.75,13.2a5.58,5.58,0,0,1,.08,5.39c-2.37,4.92-25.78,41.43-32.89,52.5a12.42,12.42,0,0,1-6.26,5ZM61.19,221.82l14.18,20.3,57.12-22.72a11.21,11.21,0,0,0,5.66-4.48c7.11-11.06,30.48-47.51,32.82-52.37a4.4,4.4,0,0,0,0-4.28c-4.73-8.58-35.24-12.38-36.78-12.56-.34,0-4.54,1.11-10,17.74-3.08,9.42-7.09,22.81-9.2,30a8.91,8.91,0,0,1-4.89,5.59Z"/><path class="cls-5" d="M170.16,91.49s12.61,1.23,14.61,16.64-.2,25.43-5.81,38-8.2,16.62-8.2,16.62-7.76,8.22-25.1,3.88C132.45,163.35,126,156.48,126,156.48s5.52-14.6,15.16-34A74.06,74.06,0,0,1,170.16,91.49Z"/><path class="cls-1" d="M175.53,133.11a7.18,7.18,0,0,0-2.47,5,10,10,0,0,0,.82,5.56,34.7,34.7,0,0,0,9.4.27c5.19-.56,8-2.49,8.53-3.09,1.5-1.76.36-2.35.36-2.35s.78-1.45.07-2.42c-.52-.71-1.76-.25-1.76-.25a1.38,1.38,0,0,0-.55-1.52c-.83-.44-3.63,1.63-5.32,1.79a16.21,16.21,0,0,1-2.92,0s2.07-1.56,1.25-2.31-2.44.14-4.18,0A16.42,16.42,0,0,1,175.53,133.11Z"/><path d="M187.49,85.52a1.34,1.34,0,0,1-1.05-.45.3.3,0,1,1,.47-.38s.42.46,1.35,0a.31.31,0,0,1,.41.14.31.31,0,0,1-.14.41A2.35,2.35,0,0,1,187.49,85.52Z"/><path d="M182.58,80.93h-.05a.3.3,0,0,1-.25-.35,8.1,8.1,0,0,1,.77-2.16c1-1.8,1.92-1.57,2-1.54a.3.3,0,0,1,.2.38.29.29,0,0,1-.37.2s-.62-.08-1.33,1.25a7.88,7.88,0,0,0-.7,2A.31.31,0,0,1,182.58,80.93Z"/><path d="M184.82,81.07l-.16,0a.3.3,0,0,1-.24-.36.3.3,0,0,1,.35-.23c.06,0,.48.05.77-.63a.3.3,0,0,1,.4-.16.31.31,0,0,1,.16.4A1.42,1.42,0,0,1,184.82,81.07Z"/><path class="cls-3" d="M170.74,71.34a62.05,62.05,0,0,0,10.09,1.43,51.1,51.1,0,0,0,9.75-.2,12.12,12.12,0,0,1-.41,2.09c-.17.51-.81,2.06-.81,2.06a37.81,37.81,0,0,1-10.39.53c-5.25-.5-10.32-1.42-10.32-1.42a8.53,8.53,0,0,1,.72-2.41A7.62,7.62,0,0,1,170.74,71.34Z"/><path class="cls-4" d="M170.11,91.59s-1.11-3.46-10.33-4.73-22.18,8.45-27.86,16.58c-7.29,10.43-10.6,19.58-6.5,29.63,5.48,13.47,48.46,10.6,48.46,10.6l1.65-10.56a82.7,82.7,0,0,0-16.08-6.33,57.38,57.38,0,0,0-7.19-1.55,5.35,5.35,0,0,1-2.64-9.42,22.51,22.51,0,0,1,4.57-2.84c8.49-4,10.34-6,12.91-10.07A21.66,21.66,0,0,0,170.11,91.59Z"/><path class="cls-5" d="M79.8,237.09a.62.62,0,0,1-.54-.32l-3.19-5.85a99.58,99.58,0,0,0-7.38-11.26.61.61,0,1,1,1-.74,99.1,99.1,0,0,1,7.49,11.42l3.19,5.85a.61.61,0,0,1-.53.9Z"/><path class="cls-5" d="M118.43,207.67a.61.61,0,0,1-.54-.31l-3.72-6.74a.61.61,0,0,1,1.07-.59l3.72,6.74a.62.62,0,0,1-.24.83A.59.59,0,0,1,118.43,207.67Z"/><path class="cls-5" d="M120.73,201.11a.59.59,0,0,1-.29-.07l-5.14-2.84a.6.6,0,0,1-.24-.82.59.59,0,0,1,.82-.24L121,200a.61.61,0,0,1,.24.83A.6.6,0,0,1,120.73,201.11Z"/><path d="M196.46,270.2,171.61,278l.45,11.58L221.22,304a3.4,3.4,0,0,0,3.83-1.46l5-8a159.31,159.31,0,0,0-20.59-17.16A63.75,63.75,0,0,0,196.46,270.2Z"/><path class="cls-1" d="M230.05,294.57l-5,8a3.4,3.4,0,0,1-3.83,1.46l-49.16-14.39h0l.17,4.28a2.65,2.65,0,0,0,2,2.47l51.67,13.44a2.66,2.66,0,0,0,3-1.36l4.24-8.2a2.67,2.67,0,0,0-.49-3.11l-2.59-2.58Z"/><path class="cls-5" d="M199.26,274.33l0,0c-.05.08-1.17,2.1-5.38,4.33-4.64,2.45-7.64,1.83-7.77,1.8a.61.61,0,0,1,.26-1.19h0s2.74.53,6.94-1.69c3.84-2,4.87-3.82,4.88-3.83a.61.61,0,0,1,1.09.55Z"/><path class="cls-5" d="M203.45,277.93l0,0c0,.09-1.16,2.1-5.38,4.33-4.63,2.45-7.64,1.83-7.77,1.8a.6.6,0,0,1-.46-.72.61.61,0,0,1,.72-.47c.05,0,2.76.52,6.94-1.69,3.84-2,4.87-3.81,4.88-3.83a.61.61,0,0,1,1.09.55Z"/><path class="cls-5" d="M207.66,281.48a0,0,0,0,1,0,0c-.05.08-1.17,2.1-5.38,4.33-4.64,2.45-7.65,1.83-7.77,1.8a.59.59,0,0,1-.46-.72.6.6,0,0,1,.72-.47c.05,0,2.75.52,6.94-1.69,3.84-2,4.87-3.81,4.88-3.83a.62.62,0,0,1,.83-.24A.6.6,0,0,1,207.66,281.48Z"/><path class="cls-5" d="M212,284.8l0,0c0,.09-1.16,2.1-5.38,4.33C202,291.61,199,291,198.82,291a.61.61,0,0,1,.26-1.19h0s2.74.54,6.94-1.69c3.84-2,4.87-3.81,4.88-3.83a.61.61,0,0,1,1.09.55Z"/></g></svg>