<svg xmlns="http://www.w3.org/2000/svg" xmlns:xlink="http://www.w3.org/1999/xlink" viewBox="0 0 423.21 403.97"><defs><style>.cls-1{fill:#2755a3;}.cls-2{fill:#f1c4d9;}.cls-3{fill:#fff;}.cls-4{fill:#ef6744;}.cls-5{fill:#151e27;}.cls-6{fill:url(#linear-gradient);}.cls-7{fill:url(#linear-gradient-2);}.cls-8{fill:url(#linear-gradient-3);}.cls-10,.cls-13,.cls-14,.cls-9{fill:none;}.cls-10{stroke:#000;stroke-width:0.5px;}.cls-10,.cls-12,.cls-13,.cls-14{stroke-linecap:round;stroke-linejoin:round;}.cls-11{fill:url(#linear-gradient-4);}.cls-12,.cls-13,.cls-15{stroke:#fff;}.cls-12{fill:url(#linear-gradient-5);}.cls-14{stroke:#ef6744;}.cls-15{stroke-miterlimit:10;fill:url(#linear-gradient-6);}</style><linearGradient id="linear-gradient" x1="243.08" y1="205.41" x2="357.83" y2="205.41" gradientUnits="userSpaceOnUse"><stop offset="0.28" stop-color="#151e27"/><stop offset="0.39" stop-color="#192a41"/><stop offset="0.58" stop-color="#1f3c6b"/><stop offset="0.75" stop-color="#234a8a"/><stop offset="0.9" stop-color="#26529c"/><stop offset="1" stop-color="#2755a3"/></linearGradient><linearGradient id="linear-gradient-2" x1="214.69" y1="234.09" x2="299.78" y2="234.09" xlink:href="#linear-gradient"/><linearGradient id="linear-gradient-3" x1="191.36" y1="127.66" x2="297.03" y2="127.66" gradientUnits="userSpaceOnUse"><stop offset="0" stop-color="#ef6744"/><stop offset="0.02" stop-color="#ef6a49"/><stop offset="0.2" stop-color="#f08a7c"/><stop offset="0.37" stop-color="#f0a3a4"/><stop offset="0.53" stop-color="#f1b5c1"/><stop offset="0.67" stop-color="#f1c0d3"/><stop offset="0.77" stop-color="#f1c4d9"/></linearGradient><linearGradient id="linear-gradient-4" x1="79.5" y1="281.39" x2="210.88" y2="205.54" xlink:href="#linear-gradient"/><linearGradient id="linear-gradient-5" x1="81.44" y1="79.26" x2="107.94" y2="79.26" gradientTransform="translate(79.26 26.93) rotate(-2.59)" xlink:href="#linear-gradient"/><linearGradient id="linear-gradient-6" x1="-1153.45" y1="-1264.31" x2="-1148.31" y2="-1264.31" gradientTransform="translate(1333.8 1708.75) scale(1 1.28)" xlink:href="#linear-gradient"/></defs><title>Craftwork_illustrations</title><g id="background"><path class="cls-1" d="M198.51,177.84l-.15,0a.61.61,0,0,1-.44-.74c.05-.18,4.71-19,2.45-29.44l-.31-1.31c-1.9-7.81-1.26-10.57.89-15.92l.48-1.38c1.31-3.79,2.09-9.93,1-14.33-.5-2-2.45-8.13-2.47-8.19a.61.61,0,1,1,1.16-.38c.08.26,2,6.2,2.49,8.28,1.17,4.85.27,11.18-1.06,15l-.49,1.41c-2.1,5.22-2.67,7.71-.85,15.21l.31,1.32c2.33,10.73-2.25,29.23-2.45,30A.6.6,0,0,1,198.51,177.84Z"/><path class="cls-2" d="M226.28,68.68A29.75,29.75,0,1,0,198,103.55l-.93,6.5,8.93-1.56-3.62-5.41A29.76,29.76,0,0,0,226.28,68.68Z"/><path class="cls-3" d="M196.32,110.79l.94-6.62a30.47,30.47,0,0,1-30.19-25.11,30.36,30.36,0,1,1,36.29,24.43l3.63,5.43Zm2.35-7.87-.9,6.38,7.17-1.25-3.61-5.41.91-.16a29.23,29.23,0,0,0,23.44-33.69h0a29.14,29.14,0,1,0-57.41,10.06A29.25,29.25,0,0,0,198,102.94Z"/><path class="cls-1" d="M164.27,234.75a.39.39,0,0,1-.15,0,.61.61,0,0,1-.45-.73c.06-.24,5.81-23.43,3-36.31l-.37-1.61c-2.33-9.58-1.55-13,1.08-19.51l.59-1.71c1.63-4.68,2.59-12.27,1.27-17.72-.6-2.52-3-10-3-10.09a.6.6,0,0,1,.39-.77.61.61,0,0,1,.77.39c.1.31,2.44,7.62,3.06,10.19,1.43,5.93.33,13.7-1.3,18.4l-.61,1.73c-2.54,6.32-3.28,9.57-1,18.81l.38,1.62c2.86,13.17-2.77,35.91-3,36.87A.61.61,0,0,1,164.27,234.75Z"/><path class="cls-2" d="M198.44,100.53a36.62,36.62,0,1,0-34.84,42.92l-1.14,8,11-1.92L169,142.87A36.62,36.62,0,0,0,198.44,100.53Z"/><path class="cls-4" d="M202.87,263.38a.36.36,0,0,1-.14,0,.61.61,0,0,1-.45-.73c.05-.19,4.72-19,2.45-29.45l-.31-1.3c-1.9-7.82-1.26-10.57.89-15.92l.48-1.39c1.31-3.79,2.09-9.93,1-14.33-.5-2-2.45-8.13-2.47-8.19a.61.61,0,1,1,1.16-.37c.08.25,2,6.19,2.49,8.28,1.17,4.84.27,11.18-1.06,15l-.49,1.41c-2.1,5.22-2.67,7.71-.84,15.21l.3,1.32c2.33,10.73-2.25,29.23-2.45,30A.6.6,0,0,1,202.87,263.38Z"/><path class="cls-2" d="M230.64,154.22a29.75,29.75,0,1,0-28.31,34.87l-.92,6.5,8.92-1.56-3.62-5.41A29.76,29.76,0,0,0,230.64,154.22Z"/><path class="cls-3" d="M200.68,196.34l.95-6.62h-.32a30.36,30.36,0,0,1-5.22-60.26,30.36,30.36,0,0,1,35.15,24.66h0A30.45,30.45,0,0,1,207.72,189l3.63,5.43Zm2.35-7.88-.9,6.39,7.17-1.26-3.61-5.4.91-.17A29.22,29.22,0,0,0,230,154.33h0a29.14,29.14,0,1,0-57.41,10.06,29.22,29.22,0,0,0,29.68,24.09Z"/><path class="cls-4" d="M106.08,299.8a.6.6,0,0,1-.22,0,.61.61,0,0,1-.35-.79c.09-.22,8.57-22.45,7.36-35.53l-.18-1.63c-1.14-9.75,0-13,3.43-19.16l.79-1.62c2.17-4.43,4-11.82,3.4-17.36-.3-2.57-1.77-10.27-1.79-10.35a.61.61,0,0,1,1.2-.23c.06.32,1.49,7.82,1.8,10.44.7,6-1.33,13.58-3.51,18l-.81,1.64c-3.27,5.94-4.4,9.06-3.3,18.46l.18,1.65c1.24,13.37-7.08,35.17-7.43,36.09A.61.61,0,0,1,106.08,299.8Z"/><path class="cls-2" d="M156,171.22a36.47,36.47,0,1,0-39.63,38.23l-2.09,7.77,11.09-.58-3.6-7.12A36.47,36.47,0,0,0,156,171.22Z"/><path class="cls-3" d="M113.47,217.87l2.12-7.89A37.07,37.07,0,0,1,92,148.3a37.08,37.08,0,0,1,64.58,22.89h0a37.18,37.18,0,0,1-33.89,38.87l3.61,7.14Zm6.15-80.62c-.64,0-1.27,0-1.91.05a35.86,35.86,0,0,0-1.29,71.54l.72.06-2.06,7.67,9.32-.49L120.81,209l.92-.06a36,36,0,0,0,33.66-37.66h0a35.87,35.87,0,0,0-35.77-34Z"/><path class="cls-4" d="M95.83,241.83l-.18,0a.62.62,0,0,1-.41-.76c.06-.18,5.63-18.75,3.87-29.29l-.24-1.32c-1.52-7.89-.75-10.62,1.66-15.86l.54-1.35c1.5-3.72,2.57-9.82,1.72-14.27-.39-2.07-2-8.24-2.06-8.3a.61.61,0,1,1,1.17-.32c.07.26,1.69,6.28,2.09,8.39.93,4.9-.27,11.19-1.79,14.95l-.55,1.38c-2.35,5.12-3,7.57-1.59,15.16l.25,1.33c1.81,10.83-3.67,29.08-3.9,29.86A.61.61,0,0,1,95.83,241.83Z"/><path class="cls-2" d="M128.82,134.14a29.75,29.75,0,1,0-30,33.46L97.62,174l9-1.12-3.35-5.58A29.75,29.75,0,0,0,128.82,134.14Z"/><path class="cls-3" d="M96.86,174.75l1.26-6.56a30.36,30.36,0,1,1,31.3-34.12h0a30.43,30.43,0,0,1-25.18,33.73l3.37,5.6Zm2.46-66a28.06,28.06,0,0,0-3.65.23A29.14,29.14,0,0,0,98.86,167h.73l-1.22,6.34,7.23-.91-3.35-5.57.92-.13a29.14,29.14,0,0,0-3.85-58Z"/><path class="cls-1" d="M231.25,202.87h-.15a.61.61,0,0,1-.44-.74c.05-.19,4.71-19,2.44-29.45l-.3-1.3c-1.9-7.81-1.27-10.57.89-15.92l.47-1.38c1.32-3.79,2.09-9.94,1-14.34-.49-2-2.44-8.13-2.46-8.19a.6.6,0,1,1,1.15-.37c.09.25,2,6.19,2.5,8.28,1.16,4.84.26,11.18-1.07,15l-.48,1.4c-2.1,5.22-2.67,7.71-.85,15.21l.31,1.32c2.33,10.74-2.25,29.23-2.45,30A.61.61,0,0,1,231.25,202.87Z"/><path class="cls-2" d="M259,93.72a29.75,29.75,0,1,0-28.32,34.86l-.92,6.5,8.92-1.56-3.62-5.41A29.75,29.75,0,0,0,259,93.72Z"/><path class="cls-3" d="M229.06,135.83l.94-6.62h-.32a30.36,30.36,0,1,1,6.42-.68l3.63,5.43Zm2.35-7.88-.91,6.39,7.18-1.26-3.62-5.4.91-.17a29.23,29.23,0,0,0,23.45-33.69h0A29.15,29.15,0,1,0,229.68,128c.34,0,.67,0,1,0Z"/><path class="cls-1" d="M116.91,98h-.1l-3.28-.56a4.14,4.14,0,0,1-3.47-4.14v-.53a3,3,0,0,0-2.57-3l-.57-.07A4.18,4.18,0,0,1,103.31,86l-.22-2.53a.61.61,0,0,1,.55-.66.62.62,0,0,1,.66.56l.22,2.52a3,3,0,0,0,2.56,2.66l.57.07a4.18,4.18,0,0,1,3.64,4.17v.53a2.93,2.93,0,0,0,2.45,2.93l3.28.56a.6.6,0,0,1-.1,1.2Z"/><path class="cls-1" d="M304.66,99.14h-.09a.61.61,0,0,1-.52-.68l.46-3.29a4.15,4.15,0,0,1,4-3.59h.54A2.93,2.93,0,0,0,312,88.91l.06-.57a4.19,4.19,0,0,1,3.66-3.73l2.52-.29a.62.62,0,0,1,.67.53.61.61,0,0,1-.53.68l-2.52.29a3,3,0,0,0-2.59,2.64l-.05.57a4.16,4.16,0,0,1-4.06,3.75h-.54a2.92,2.92,0,0,0-2.85,2.53l-.46,3.3A.6.6,0,0,1,304.66,99.14Z"/><path class="cls-1" d="M163.39,62a.6.6,0,0,1-.46-.21l-2.19-2.51a4.14,4.14,0,0,1-.06-5.4l.34-.4a3,3,0,0,0-.12-3.91l-.4-.42a4.18,4.18,0,0,1-.42-5.2l1.43-2.1a.61.61,0,1,1,1,.69l-1.43,2.09a3,3,0,0,0,.3,3.69l.39.41a4.17,4.17,0,0,1,.18,5.53l-.35.4a2.93,2.93,0,0,0,0,3.82L163.85,61a.61.61,0,0,1-.06.86A.62.62,0,0,1,163.39,62Z"/><path class="cls-1" d="M244.88,68.64a.61.61,0,0,1-.61-.59l-.12-3.32a4.14,4.14,0,0,1,3.34-4.24l.53-.1a3,3,0,0,0,2.36-3.12l0-.57a4.19,4.19,0,0,1,2.95-4.31l2.43-.73a.61.61,0,1,1,.35,1.17l-2.43.73a3,3,0,0,0-2.08,3l0,.57a4.15,4.15,0,0,1-3.34,4.4l-.52.11a2.93,2.93,0,0,0-2.37,3l.13,3.33a.62.62,0,0,1-.59.63Z"/></g><g id="character"><path class="cls-5" d="M61.56,253.9l0-.15a13,13,0,0,0-1.77-3.88A10.65,10.65,0,0,0,57,247a3.19,3.19,0,0,0-2.35-.78L47,248.38c-.7.18-1.06.64-1.3,1.56a1.1,1.1,0,0,1-.48.74c-1,.69-4.29-.56-4.29-.56L29.2,253.47c-5,1.42-8.11,4.89-9.81,6.91a1.12,1.12,0,0,0,.9,1.84,54.73,54.73,0,0,0,5.83-.58,64.92,64.92,0,0,1,9.67-.45l0-.05a14.86,14.86,0,0,1,4.25-4c2-1.2,8-.85,12.91-.11S61.56,253.9,61.56,253.9Z"/><path class="cls-4" d="M69.49,249.61a38.24,38.24,0,0,1-7.86,4.14h-.1l0,.15S57.93,257.73,53,257s-10.89-1.09-12.91.11a14.86,14.86,0,0,0-4.25,4c6.5-.07,24.31-.26,26.4-.37,2.44-.13,5.88,0,7.91-.06C70.26,259.28,69.56,250.25,69.49,249.61Z"/><path class="cls-5" d="M123.81,305.18l-.1-.12a12.93,12.93,0,0,0-3.37-2.6,10.47,10.47,0,0,0-3.82-1.24,3.16,3.16,0,0,0-2.44.41l-5.7,5.44a1.81,1.81,0,0,0-.42,2,1.12,1.12,0,0,1-.08.88c-.6,1.09-4.06,1.5-4.06,1.5L95,319.89c-3.74,3.57-4.89,8.11-5.45,10.68a1.11,1.11,0,0,0,1.65,1.21,54.23,54.23,0,0,0,4.89-3.23,64.76,64.76,0,0,1,8.34-4.91v-.06A15,15,0,0,1,106.3,318c1.23-2,6.66-4.48,11.37-6.12S123.81,305.18,123.81,305.18Z"/><path class="cls-4" d="M128.83,297.69a38.25,38.25,0,0,1-5,7.33l-.09,0,.1.12s-1.43,5.08-6.14,6.73S107.53,316,106.3,318a15,15,0,0,0-1.88,5.55c5.72-3.09,21.39-11.56,23.19-12.64,2.09-1.24,5.2-2.72,7-3.73C134,305.88,129.19,298.23,128.83,297.69Z"/><path class="cls-4" d="M245.2,116.55c.25-1.59,1.16-1.93,2-3.45a10.52,10.52,0,0,0,.7-6.62c-.65-4-4.56-1.25-5.62-.44l-.26.21c-1,.72-2.69-.19-2.69-.19l-1.07,2.42s-3.15,2.29-2.72,3.94c.36,1.43,2.9,4,4.56,5.17l-.71,3.91s.33,2.88,2.32,4a4.15,4.15,0,0,0,4.23-.28l.38-5.38a.88.88,0,0,0,.05-.42C246,118.86,245,117.68,245.2,116.55Z"/><path d="M257.27,114.27s3.9-4.15,2.39-7.52a6.27,6.27,0,0,0-5.3-3.46s-.08-3.59-2.49-4.27-4.7,2.6-4.7,2.6-.64-2.05-3.09-.84-2.09,5.47-2.09,5.47l.26-.21c1.06-.81,5-3.52,5.62.44a10.52,10.52,0,0,1-.7,6.62c-.81,1.52-1.72,1.86-2,3.45-.17,1.13.76,2.31,1.14,2.86l.08.12c1.22,1.87,8,4.2,11-.38C259.42,116.09,257.27,114.27,257.27,114.27Z"/><path d="M351.51,230l10.63,6.53,38.19-31.61-6-9.52a139.29,139.29,0,0,0-25.08,7.1,55.28,55.28,0,0,0-11.43,5.87Z"/><path class="cls-3" d="M359.87,221a.59.59,0,0,1-.44-.19.6.6,0,0,1,0-.85h0s1.68-1.7,2.1-5.75c.38-3.71-.39-5.29-.4-5.31a.62.62,0,0,1,.26-.82.61.61,0,0,1,.82.26c0,.07,1,1.87.53,6-.47,4.54-2.38,6.42-2.47,6.5A.57.57,0,0,1,359.87,221Z"/><path class="cls-3" d="M364.48,219.71a.62.62,0,0,1-.44-.18.61.61,0,0,1,0-.86h0s1.68-1.7,2.1-5.75c.39-3.7-.39-5.29-.4-5.31a.62.62,0,0,1,.27-.82.6.6,0,0,1,.81.26c0,.07,1,1.87.53,6-.47,4.53-2.38,6.42-2.46,6.49A.58.58,0,0,1,364.48,219.71Z"/><path class="cls-3" d="M369.05,218.39a.57.57,0,0,1-.43-.19.6.6,0,0,1,0-.86h0s1.68-1.69,2.1-5.75c.38-3.7-.39-5.29-.4-5.3a.61.61,0,0,1,1.08-.57c0,.08,1,1.87.53,6-.47,4.54-2.38,6.42-2.46,6.5A.63.63,0,0,1,369.05,218.39Z"/><path class="cls-3" d="M373.52,216.88a.59.59,0,0,1-.44-.19.6.6,0,0,1,0-.85h0s1.68-1.7,2.1-5.75c.38-3.71-.39-5.29-.4-5.31a.62.62,0,0,1,.26-.82.61.61,0,0,1,.82.26c0,.07,1,1.87.53,6-.47,4.54-2.39,6.42-2.47,6.5A.63.63,0,0,1,373.52,216.88Z"/><path class="cls-4" d="M360,235.24l34-28.4a2.94,2.94,0,0,0,.79-3.46l-3.33-7.44,3.1-.62a2.31,2.31,0,0,1,2.47,1.14l3.86,7a2.29,2.29,0,0,1-.49,2.83l-34.5,30.66a2.3,2.3,0,0,1-2.73.24Z"/><path class="cls-6" d="M263.67,214.45s8.68,1.55,28.48.44a147.34,147.34,0,0,0,24-3.56L351.51,230l6.32-21.63-35.26-22.15a31.51,31.51,0,0,0-17.83-4.8l-43.13-.59-18.53,7.23Z"/><path class="cls-3" d="M344,222.79l-.18,0a.61.61,0,0,1-.41-.77l5.14-16.59a.61.61,0,0,1,1.17.37l-5.14,16.58A.61.61,0,0,1,344,222.79Z"/><path class="cls-3" d="M316.39,209h-.1a.6.6,0,0,1-.5-.7l.93-5.61a.61.61,0,0,1,1.2.2L317,208.5A.61.61,0,0,1,316.39,209Z"/><path class="cls-3" d="M318.57,210.22a.68.68,0,0,1-.33-.09.61.61,0,0,1-.18-.84l2.86-4.49a.61.61,0,0,1,1,.66l-2.87,4.48A.6.6,0,0,1,318.57,210.22Z"/><path d="M237.62,264.24,226.55,270l7.32,49,11.25-.21A138.22,138.22,0,0,0,252,293.64a55.2,55.2,0,0,0,.89-12.82Z"/><path class="cls-3" d="M250.67,284.61h0c-.08,0-2.09-.15-5.41-2.65-3.64-2.75-4.26-5.36-4.29-5.47a.61.61,0,0,1,.46-.72.6.6,0,0,1,.73.45s.6,2.33,3.84,4.77c3,2.24,4.73,2.4,4.75,2.4a.62.62,0,0,1,.56.65A.6.6,0,0,1,250.67,284.61Z"/><path class="cls-3" d="M249.38,289.21h0c-.09,0-2.1-.15-5.41-2.64-3.64-2.75-4.27-5.36-4.29-5.47a.61.61,0,0,1,1.19-.27h0s.58,2.31,3.83,4.76c3,2.25,4.73,2.4,4.75,2.4a.61.61,0,0,1,0,1.22Z"/><path class="cls-3" d="M248.15,293.82h0c-.09,0-2.1-.14-5.41-2.64-3.64-2.75-4.27-5.36-4.29-5.47a.61.61,0,0,1,.46-.73.61.61,0,0,1,.73.46c0,.05.6,2.33,3.83,4.77,3,2.24,4.74,2.4,4.75,2.4a.61.61,0,0,1,0,1.22Z"/><path class="cls-3" d="M247.13,298.42h0c-.08,0-2.1-.15-5.41-2.65-3.64-2.75-4.26-5.36-4.29-5.47a.61.61,0,0,1,1.19-.27h0s.58,2.32,3.83,4.77c3,2.24,4.74,2.4,4.75,2.4a.62.62,0,0,1,.57.65A.61.61,0,0,1,247.13,298.42Z"/><path class="cls-4" d="M228.72,268.83l6.76,43.77a2.94,2.94,0,0,0,2.55,2.47l8.09,1-1.07,3a2.32,2.32,0,0,1-2.26,1.52l-8-.31a2.3,2.3,0,0,1-2.18-1.88L224.22,273a2.3,2.3,0,0,1,1.21-2.46Z"/><path class="cls-7" d="M218.71,187.36s-11.35,20.16,4.09,35.51C236,236,267,238.79,267,238.79l-29.52,25.48,15.41,16.55,42.21-34.24a12.64,12.64,0,0,0,1.38-18.35c-6.89-7.55-16.75-17.55-25.58-23.58-15.6-10.63-25.17-16.3-25.17-16.3Z"/><path class="cls-3" d="M258.62,272.84a.61.61,0,0,1-.43-.18l-13.1-13.3a.61.61,0,1,1,.86-.86l13.11,13.31a.61.61,0,0,1,0,.86A.59.59,0,0,1,258.62,272.84Z"/><path class="cls-3" d="M269.74,238.3a.62.62,0,0,1-.56-.37.61.61,0,0,1,.32-.8l5.56-2.39a.61.61,0,0,1,.8.32.6.6,0,0,1-.32.8L270,238.25A.6.6,0,0,1,269.74,238.3Z"/><path class="cls-3" d="M273.92,240.88h-.06l-4.57-.39a.61.61,0,0,1-.55-.66.62.62,0,0,1,.66-.56l4.57.4a.61.61,0,0,1-.05,1.22Z"/><path class="cls-8" d="M296.45,105C293,87.45,281.89,73.85,281.89,73.85l-9,4.22s7.74,19.47,5,30-10,13.56-13.72,13.15-9.49-1.78-14-.76c-2.26.51-2.76.88-3.94,2.25a3.93,3.93,0,0,1-6.55-2.2c-.52-.88-.94-1.63-3.55-2.83-4.24-1.93-10.12-2.15-13.82-2.52s-10.15-4.86-10.71-15.69,11-28.29,11-28.29l-8-6s-13.65,11-20.66,27.46c-6.59,15.44.11,36.19,16.54,40.53l8.49,54.65s10.27,5.24,26.41.21,17.19-7.13,17.19-7.13L267.27,141l1.29.13C287.43,142.83,299.93,122.51,296.45,105Z"/><path class="cls-4" d="M222.5,71.13a6.66,6.66,0,0,1-4.9-1.74,9.36,9.36,0,0,1-3.07-4.25,32.44,32.44,0,0,1,6.12-6.29c3.83-3,7-3.55,7.71-3.48,2.14.2,1.77,1.33,1.77,1.33s1.46.47,1.62,1.58c.11.81-1,1.31-1,1.31a1.3,1.3,0,0,1,.62,1.38c-.26.83-3.49,1.27-4.72,2.26a15.13,15.13,0,0,0-2,1.88s2.39-.3,2.33.73-1.72,1.5-2.77,2.74A16.36,16.36,0,0,0,222.5,71.13Z"/><path class="cls-4" d="M272.85,78.07a6.68,6.68,0,0,0,5.16-.69,9.35,9.35,0,0,0,3.88-3.53,32.4,32.4,0,0,0-4.69-7.42c-3.13-3.72-6.1-4.9-6.83-5-2.14-.25-2,.94-2,.94s-1.54.16-1.92,1.21c-.27.77.73,1.49.73,1.49s-1,.35-.89,1.22,3.15,2,4.15,3.18A15.09,15.09,0,0,1,272,71.73s-2.29-.79-2.44.23,1.38,1.82,2.15,3.26A16.05,16.05,0,0,1,272.85,78.07Z"/><path d="M239.69,111.36a1.64,1.64,0,0,1-1.45-1.12.32.32,0,0,1,.15-.41.3.3,0,0,1,.4.15c.41.86.94.77,1,.76a.31.31,0,0,1,.36.24.3.3,0,0,1-.23.36A1,1,0,0,1,239.69,111.36Z"/><path d="M245.29,110.64a.42.42,0,0,1-.15,0,.31.31,0,0,1-.12-.41,7.51,7.51,0,0,0,.64-1.85c.26-1.38-.22-1.65-.23-1.66a.28.28,0,0,1-.16-.39.31.31,0,0,1,.4-.17c.1,0,.94.44.59,2.33a7.94,7.94,0,0,1-.7,2A.32.32,0,0,1,245.29,110.64Z"/><path d="M243.66,109.49a.28.28,0,0,1-.13,0,.3.3,0,0,1-.15-.4c0-.06.25-.62-.18-.83a.31.31,0,0,1-.15-.41.31.31,0,0,1,.41-.14,1.19,1.19,0,0,1,.47,1.62A.3.3,0,0,1,243.66,109.49Z"/><path class="cls-9" d="M242,106.25l.26-.21Z"/><path class="cls-9" d="M242,106.25l.26-.21Z"/><path class="cls-4" d="M154,111.45s5.12,1.67,7.63,4.64a12.44,12.44,0,0,1,2.61,6.65,2.06,2.06,0,0,1-.8,1.8l-.87.67a25.81,25.81,0,0,0,2.45,2.93,3.42,3.42,0,0,1-1.89,2.27c-1.06.56-3.36.13-3.36.13l-7.62-9.68a5.11,5.11,0,0,1-.33-5.68Z"/><polyline class="cls-10" points="158.48 116.29 160.72 117.87 159.81 118.81"/><path class="cls-10" d="M156.91,117.6a1.12,1.12,0,0,0-1.44,1.08"/><path class="cls-5" d="M161.08,115.5s-7.08-5-9-.28c-1.88,4.57,7.14,9.58,7.71,13.57,1.13,8-9.79,15.29-12.6,22.26-10.45,25.9-42.28,18.1-49.94-6.06-3.88-12.25.56-24.35,11.26-30.81,8.75-5.28,14.49-1.86,19.19.55,5.26,2.71,8,3.41,12.25-2.3,3.4-4.62,7.33-6.64,13.12-5.19A10.77,10.77,0,0,1,161.08,115.5Z"/><path class="cls-11" d="M189,169s-6.19,4.13-16.91,6.53a65.36,65.36,0,0,1-18,1.1s-9.55,5.5-18.88,21.44c-5.64,9.64-10.72,20.11-13.85,26.88a18,18,0,0,1-10.84,10l-41.7,12.95.91,16.65,55.23-5a33.15,33.15,0,0,0,22.32-11.59c3.24-3.81,7-8.32,10.73-12.87.47,5.44,1,10.4,1.5,14.23a18,18,0,0,1-3.93,14.21l-28.57,33,9.57,13.66,44.26-33.4c7-5.25,15.62-20.4,17.93-66.55C200.35,178.79,189,169,189,169Z"/><path class="cls-3" d="M136.45,311l-10.2-14.57,28.88-33.38a17.44,17.44,0,0,0,3.79-13.73c-.38-3-.9-7.55-1.37-12.77-3.24,3.94-6.68,8.06-9.79,11.73A33.59,33.59,0,0,1,125,260.11l-55.86,5.05-1-17.76,42.15-13.08a17.48,17.48,0,0,0,10.47-9.67c3.24-7,8.27-17.36,13.88-26.93,9.3-15.9,18.7-21.43,19.09-21.66l.17-.1.19,0A65.09,65.09,0,0,0,172,174.89c10.47-2.34,16.64-6.39,16.7-6.43l.39-.26.35.3c.47.41,11.54,10.39,10,41.75-1.83,36.75-7.94,59.29-18.16,67Zm-8.66-14.49,8.93,12.75,43.76-33c9.92-7.49,15.87-29.72,17.69-66.09,1.39-27.8-7.44-38.56-9.25-40.45a56.64,56.64,0,0,1-16.69,6.34,66,66,0,0,1-18,1.13c-1.27.8-10,6.64-18.49,21.12-5.58,9.53-10.6,19.85-13.82,26.83a18.61,18.61,0,0,1-11.18,10.31L69.46,248.29l.86,15.54,54.6-4.93a32.35,32.35,0,0,0,21.91-11.37c3.41-4,7.22-8.59,10.72-12.86l.95-1.16.13,1.49c.5,5.81,1.09,10.94,1.5,14.21a18.62,18.62,0,0,1-4,14.65Z"/><path class="cls-3" d="M196.22,107.46l-4.77,8.48s5.45,8.33-5.52,11.64c-5.94,1.79-12.7-4.77-22.46,1.53a21.29,21.29,0,0,1-3.79,1.4c-1-.27-11.55-3-15.29,4.72-2,4.19-2.38,10.08-2.83,13.77s-5.09,10-15.92,10.35-27-10.71-27-10.71l-7.16,6.9s10.72,13.89,27,21.27c12,5.43,27.38,2.78,35.76-6.47l-.08,6.25a53.81,53.81,0,0,0,18-1.1,75.07,75.07,0,0,0,17.14-6.66l-2.37-15.16c5.56-2.18,10-6.79,13.66-13.19C210.78,122.28,196.22,107.46,196.22,107.46Z"/><ellipse class="cls-10" cx="161.5" cy="121.19" rx="0.54" ry="0.64" transform="translate(-14.05 21.43) rotate(-7.27)"/><polygon class="cls-12" points="164.79 115.5 171.32 120.32 171.92 114.74 190.4 95.17 174.61 83.76 168.92 112.12 164.79 115.5"/><polyline class="cls-13" points="173.68 113.08 177.21 116.14 189.62 101.75 187.35 98.44"/><line class="cls-14" x1="181.03" y1="75.28" x2="181.43" y2="68.73"/><line class="cls-14" x1="186.84" y1="79.27" x2="192.78" y2="67.97"/><line class="cls-14" x1="192.51" y1="83.49" x2="197.5" y2="78.82"/><ellipse class="cls-15" cx="182.92" cy="89.09" rx="2.57" ry="9.73" transform="translate(8.13 193.24) rotate(-56.76)"/><path class="cls-4" d="M191.46,116.19a6.66,6.66,0,0,0,3.75-3.6,9.43,9.43,0,0,0,1-5.14,30.65,30.65,0,0,0-8.17-3.21,6.77,6.77,0,0,0-5.86.89,9.1,9.1,0,0,0-2.81,3.37,1.75,1.75,0,0,0,.09,2.27c.64.6,3.4-.48,4.93-.08a15.69,15.69,0,0,1,2.57.9s-2.3.71-1.82,1.63,2.18.66,3.65,1.36A16.18,16.18,0,0,1,191.46,116.19Z"/><path class="cls-1" d="M235.32,138.49h-.11l-3.63-.64a.6.6,0,0,1-.49-.7.61.61,0,0,1,.7-.5l3.63.64a.61.61,0,0,1-.1,1.21Z"/><path class="cls-1" d="M222.07,152.19H222l-3.63-.63a.62.62,0,0,1-.5-.71.61.61,0,0,1,.71-.49l3.63.63a.61.61,0,0,1-.11,1.21Z"/><path class="cls-1" d="M225.08,124.71a.6.6,0,0,1-.57-.4.61.61,0,0,1,.36-.78l3.46-1.26a.6.6,0,0,1,.78.36.6.6,0,0,1-.36.78l-3.46,1.26A.52.52,0,0,1,225.08,124.71Z"/><path class="cls-1" d="M227.5,146.38a.63.63,0,0,1-.58-.4.61.61,0,0,1,.37-.78l3.47-1.25a.63.63,0,0,1,.78.37.62.62,0,0,1-.37.78l-3.47,1.24A.51.51,0,0,1,227.5,146.38Z"/><path class="cls-1" d="M234.23,129.83a.61.61,0,0,1-.21-1.18l3.47-1.24a.61.61,0,0,1,.78.37.62.62,0,0,1-.37.78l-3.47,1.24A.64.64,0,0,1,234.23,129.83Z"/><path class="cls-1" d="M258.47,162.43h-.11l-3.63-.64a.6.6,0,0,1-.49-.7.61.61,0,0,1,.7-.5l3.63.64a.61.61,0,0,1-.1,1.21Z"/><path class="cls-1" d="M255.37,174a.62.62,0,0,1-.21-1.19l3.47-1.24a.61.61,0,0,1,.78.37.62.62,0,0,1-.37.78l-3.47,1.24A.65.65,0,0,1,255.37,174Z"/><path class="cls-1" d="M224.1,133.44h0a.61.61,0,0,1-.59-.63l.07-2.67a.61.61,0,0,1,1.22,0l-.07,2.68A.61.61,0,0,1,224.1,133.44Z"/><path class="cls-1" d="M243.13,136.61h0a.6.6,0,0,1-.59-.62l.07-2.68a.62.62,0,0,1,.62-.59.61.61,0,0,1,.59.63l-.07,2.67A.61.61,0,0,1,243.13,136.61Z"/><path class="cls-1" d="M216.38,139.38a.58.58,0,0,1-.33-.1.61.61,0,0,1-.18-.84l1.58-2.42a.61.61,0,0,1,.85-.17.6.6,0,0,1,.17.84l-1.58,2.42A.59.59,0,0,1,216.38,139.38Z"/><path class="cls-1" d="M207.51,126.28a.63.63,0,0,1-.33-.09.62.62,0,0,1-.18-.85l1.58-2.41a.6.6,0,0,1,.84-.18.61.61,0,0,1,.18.84L208,126A.6.6,0,0,1,207.51,126.28Z"/><path class="cls-1" d="M215.45,124a.7.7,0,0,1-.34-.1.61.61,0,0,1-.17-.85l1.58-2.41a.61.61,0,1,1,1,.66L216,123.68A.62.62,0,0,1,215.45,124Z"/><path class="cls-1" d="M240.52,155h-.11a.6.6,0,0,1-.48-.71l.62-3.35a.62.62,0,0,1,.71-.49.61.61,0,0,1,.49.71l-.63,3.35A.6.6,0,0,1,240.52,155Z"/><path class="cls-1" d="M233,158.65h0l-3.63-.05a.61.61,0,0,1-.59-.62.6.6,0,0,1,.6-.6h0l3.63.05a.61.61,0,0,1,0,1.22Z"/><path class="cls-1" d="M222.72,184.05h-.11a.61.61,0,0,1-.49-.71l.63-3.35a.61.61,0,0,1,.71-.49.6.6,0,0,1,.48.71l-.62,3.35A.61.61,0,0,1,222.72,184.05Z"/><path class="cls-1" d="M257.89,180.24h0l-3.63-.06a.61.61,0,0,1,0-1.22h0l3.62.06a.61.61,0,0,1,0,1.22Z"/><path class="cls-1" d="M245.61,176.05h-.12a.6.6,0,0,1-.48-.71l.62-3.35a.61.61,0,1,1,1.2.22l-.63,3.35A.61.61,0,0,1,245.61,176.05Z"/><path class="cls-1" d="M233.89,179.9h0l-3.62-.05a.61.61,0,0,1,0-1.22h0l3.62.05a.61.61,0,0,1,.6.62A.6.6,0,0,1,233.89,179.9Z"/><path class="cls-1" d="M246.89,163.62h-.11l-3.16-.6a.61.61,0,0,1-.48-.71.6.6,0,0,1,.71-.48l3.15.6a.6.6,0,0,1-.11,1.2Z"/><path class="cls-1" d="M245.22,185.37l-.12,0-3.15-.6a.6.6,0,0,1-.48-.71.61.61,0,0,1,.71-.48l3.15.6a.6.6,0,0,1,.48.71A.61.61,0,0,1,245.22,185.37Z"/><path class="cls-1" d="M238.56,172.05a.6.6,0,0,1-.56-.38l-1.24-3a.6.6,0,0,1,.33-.79.61.61,0,0,1,.8.33l1.23,3a.6.6,0,0,1-.32.79A.52.52,0,0,1,238.56,172.05Z"/><path class="cls-1" d="M261.21,153.15h-.11l-3.15-.6a.61.61,0,0,1,.22-1.2l3.16.6a.63.63,0,0,1,.48.72A.61.61,0,0,1,261.21,153.15Z"/><path class="cls-1" d="M251.34,149.41a.61.61,0,0,1-.56-.37l-1.24-3a.62.62,0,0,1,.33-.8.61.61,0,0,1,.8.33l1.24,3a.62.62,0,0,1-.33.8A.67.67,0,0,1,251.34,149.41Z"/><path class="cls-1" d="M289.16,121.65a.58.58,0,0,1-.42-.17.59.59,0,0,1,0-.86l2.54-2.67a.61.61,0,1,1,.88.84l-2.54,2.67A.59.59,0,0,1,289.16,121.65Z"/><path class="cls-1" d="M279.49,129.58a.63.63,0,0,1-.43-.17L276.62,127a.61.61,0,0,1,.85-.87l2.44,2.37a.6.6,0,0,1,0,.86A.59.59,0,0,1,279.49,129.58Z"/><path class="cls-1" d="M285.41,130.78a.63.63,0,0,1-.42-.17.6.6,0,0,1,0-.86l2.25-2.29a.59.59,0,0,1,.86,0,.61.61,0,0,1,0,.86l-2.25,2.29A.62.62,0,0,1,285.41,130.78Z"/><path class="cls-1" d="M287.2,113.65a.63.63,0,0,1-.42-.17.62.62,0,0,1,0-.87l2.25-2.29a.61.61,0,0,1,.87.85l-2.25,2.3A.62.62,0,0,1,287.2,113.65Z"/><path class="cls-1" d="M280.87,117.5h-.12l-3.16-.62a.61.61,0,0,1-.48-.72.6.6,0,0,1,.71-.48l3.17.63a.61.61,0,0,1-.12,1.2Z"/><path class="cls-1" d="M267.45,138.22a.62.62,0,0,1-.61-.55.61.61,0,0,1,.55-.66l3.67-.34a.61.61,0,0,1,.11,1.21l-3.66.34Z"/><path class="cls-1" d="M251.84,135.38a.62.62,0,0,1-.61-.56l-.27-3.4a.61.61,0,0,1,.56-.66.62.62,0,0,1,.65.56l.28,3.4a.61.61,0,0,1-.56.65Z"/><path class="cls-1" d="M257.06,142.32a.61.61,0,0,1-.05-1.22l3.2-.24a.61.61,0,1,1,.1,1.21l-3.2.25Z"/><path class="cls-1" d="M268.13,128.46a.61.61,0,0,1,0-1.22l3.19-.25a.6.6,0,0,1,.66.56.62.62,0,0,1-.56.66l-3.2.25Z"/><path class="cls-1" d="M260.83,127.19a.62.62,0,0,1-.48-.23l-2-2.56a.61.61,0,0,1,.11-.85.6.6,0,0,1,.85.11l2,2.55a.6.6,0,0,1-.11.85A.58.58,0,0,1,260.83,127.19Z"/><path class="cls-1" d="M287.68,91.81h-.07L285,91.52a.61.61,0,0,1,.13-1.21l2.66.29a.61.61,0,0,1-.06,1.21Z"/><path class="cls-1" d="M284.77,97.2h-3.4a.61.61,0,0,1-.61-.61.61.61,0,0,1,.61-.61h3.41a.61.61,0,0,1,0,1.22Z"/><path class="cls-1" d="M293,106h0a.61.61,0,0,1-.6-.61v-3.21a.61.61,0,0,1,.61-.61h0a.61.61,0,0,1,.61.61l0,3.21A.6.6,0,0,1,293,106Z"/><path class="cls-1" d="M280.62,84.74h0a.61.61,0,0,1-.61-.61l0-3.21a.57.57,0,0,1,.61-.6.61.61,0,0,1,.61.61l0,3.21A.6.6,0,0,1,280.62,84.74Z"/><path class="cls-1" d="M280.82,109.67a.6.6,0,0,1-.33-1.11l2.71-1.76a.6.6,0,0,1,.84.17.62.62,0,0,1-.18.85l-2.7,1.76A.69.69,0,0,1,280.82,109.67Z"/><path class="cls-1" d="M195.88,105.17a.61.61,0,0,1,0-1.22l3.68-.21a.57.57,0,0,1,.64.57.6.6,0,0,1-.57.64l-3.68.22Z"/><path class="cls-1" d="M205.37,116.21a.61.61,0,0,1-.61-.58l-.15-3.4a.61.61,0,0,1,.57-.64.59.59,0,0,1,.64.58l.16,3.4a.61.61,0,0,1-.58.64Z"/><path class="cls-1" d="M197.2,97.59a.59.59,0,0,1-.4-.15.61.61,0,0,1-.06-.86l2.12-2.41a.61.61,0,1,1,.91.8l-2.12,2.41A.58.58,0,0,1,197.2,97.59Z"/><path class="cls-1" d="M208.26,106.4a.58.58,0,0,1-.49-.26l-1.89-2.62a.59.59,0,0,1,.14-.84.61.61,0,0,1,.85.13l1.88,2.62a.6.6,0,0,1-.14.85A.57.57,0,0,1,208.26,106.4Z"/><path class="cls-1" d="M212.9,82.2a.61.61,0,0,1-.47-.21l-1.74-2a.61.61,0,0,1,.92-.8l1.75,2a.61.61,0,0,1-.07.86A.58.58,0,0,1,212.9,82.2Z"/><path class="cls-1" d="M207.09,84.15a.63.63,0,0,1-.42-.17l-2.48-2.33a.6.6,0,0,1,0-.86.61.61,0,0,1,.86,0l2.49,2.34a.61.61,0,0,1,0,.86A.63.63,0,0,1,207.09,84.15Z"/><path class="cls-1" d="M207,96.2a.63.63,0,0,1-.42-.17.61.61,0,0,1,0-.86l2.2-2.33a.61.61,0,0,1,.89.84L207.47,96A.63.63,0,0,1,207,96.2Z"/><path class="cls-1" d="M212.57,72.22a.63.63,0,0,1-.42-.17.61.61,0,0,1,0-.86l2.21-2.33a.6.6,0,0,1,.86,0,.61.61,0,0,1,0,.86L213,72A.65.65,0,0,1,212.57,72.22Z"/><path class="cls-1" d="M203.29,89.88h-.11L200,89.3a.6.6,0,0,1-.49-.7.62.62,0,0,1,.71-.5l3.17.57a.6.6,0,0,1,.5.7A.62.62,0,0,1,203.29,89.88Z"/><path class="cls-1" d="M225.63,168.35a.62.62,0,0,1-.57-.37l-1.23-3a.61.61,0,0,1,.33-.8.61.61,0,0,1,.79.33l1.24,3a.61.61,0,0,1-.33.8A.66.66,0,0,1,225.63,168.35Z"/><path class="cls-3" d="M140.48,198.94a.61.61,0,1,1,0-1.21c.06,0,6.36,0,10.33-3.13s6.06-8.52,6.08-8.58a.61.61,0,0,1,1.14.43c-.09.24-2.2,5.78-6.48,9.11S140.75,198.94,140.48,198.94Z"/><path class="cls-4" d="M98.63,148.65a6.69,6.69,0,0,1-2.46,4.59,9.45,9.45,0,0,1-4.66,2.4,32.56,32.56,0,0,1-5.3-7c-2.4-4.24-2.46-7.43-2.29-8.15.52-2.09,1.58-1.55,1.58-1.55s.69-1.38,1.81-1.36c.81,0,1.14,1.2,1.14,1.2a1.3,1.3,0,0,1,1.45-.41c.79.39.73,3.64,1.53,5A16.2,16.2,0,0,0,93,145.62s.07-2.42,1.08-2.2,1.22,1.92,2.3,3.15A15.39,15.39,0,0,0,98.63,148.65Z"/></g><g id="other_details" data-name="other details"><path class="cls-4" d="M216.83,300.35c-13.66-3.88-15.63,9.17-36,9.7.53-3.09,1.07-6.36,1.48-9.21,1.12-7.79,1.61-13,1.61-13s.49-7.72-3.16-8.39c-3.15-.58-6.23,2.57-2.53,9.16,1,1.8-3.76,15.8-5.61,21.06-3.17-.44-2.73-3.56-5.4-7s-6.59-4.76-7.12-4.34,0,4.38,0,4.38a10.81,10.81,0,0,0-1.92,1.06c-.62.5-1.51,1.26-1.51,1.26s-3.31-1.9-3.89-1.44c-.39.31-.13,1.13.11,2.63a22.21,22.21,0,0,0,1.75,5.31c8.19,14.66,25.47,16.76,25.47,16.76s17.3-1.1,28.84-2.32a15.51,15.51,0,0,0,11.52-6.62,15.49,15.49,0,0,1-.61,6.53c-1.86,6.45-7.05,8.32-11.47,9.73-4.6,1.47-12.76,2.38-12.05,5.2.54,2.17,19.9,3,27.68-10.45C230.77,318.64,229.57,304,216.83,300.35Z"/><path class="cls-4" d="M162,321s-7.37,2.77-5.49,5.73c1.24,1.94,3.87,2.58,12.71,2.58s9.7-.13,9.7-.13,1,2.75,2.95,2.95c2.92.3,6.05-1.76,5-4.76-1.2-3.44-5.14-4.33-9.92-4.45S162,321,162,321Z"/><path class="cls-3" d="M182.38,332.78c-.21,0-.42,0-.62,0-1.82-.19-2.89-2.06-3.28-2.92-.86,0-3.17.09-9.31.09-9,0-11.8-.61-13.22-2.86a2.38,2.38,0,0,1-.27-2.1c.83-2.49,5.52-4.32,6-4.51l.16-.06.16,0c.1,0,10.18,1.78,14.87,1.9,4.13.11,9.06.76,10.48,4.86a3.71,3.71,0,0,1-.57,3.64A5.77,5.77,0,0,1,182.38,332.78Zm-3.11-4.24.17.45c.24.66,1.15,2.41,2.44,2.55a4.65,4.65,0,0,0,4-1.48,2.5,2.5,0,0,0,.37-2.48c-.92-2.65-3.81-3.9-9.36-4a142.51,142.51,0,0,1-14.88-1.9c-1.4.55-4.65,2.12-5.18,3.71a1.19,1.19,0,0,0,.14,1.06c1,1.56,3.07,2.3,12.2,2.3,8.48,0,9.58-.12,9.63-.12Z"/><path d="M160.25,307.52a.3.3,0,0,0-.35.26,1.38,1.38,0,0,1-.56,1,1.7,1.7,0,0,1-1.22.09.31.31,0,0,0-.19.58,2.53,2.53,0,0,0,.73.1,1.85,1.85,0,0,0,1-.25,2,2,0,0,0,.85-1.44A.31.31,0,0,0,160.25,307.52Z"/><path d="M164.73,306a2,2,0,0,0,.81-1.47.31.31,0,0,0-.61-.07,1.36,1.36,0,0,1-.53,1,1.67,1.67,0,0,1-1.21.13.29.29,0,0,0-.37.2.3.3,0,0,0,.2.38,2.28,2.28,0,0,0,.66.09A1.86,1.86,0,0,0,164.73,306Z"/><path d="M167.11,309a.31.31,0,0,0-.43.05,1.32,1.32,0,0,1-.93.54.89.89,0,0,1-.68-.42s-.06,0-.09-.06l0-1.27a.32.32,0,0,0-.17-.29.31.31,0,0,0-.33.05l-1.22,1a.27.27,0,0,0-.1.29.29.29,0,0,0,.21.23l1.07.33s0,0,0,0a1.87,1.87,0,0,1-.09,1.26.61.61,0,0,1-.49.21.32.32,0,0,0-.3.31.31.31,0,0,0,.31.3h0a1.2,1.2,0,0,0,1-.46,1.73,1.73,0,0,0,.28-1.07,1.28,1.28,0,0,0,.6.16h0a2.08,2.08,0,0,0,1.4-.77A.31.31,0,0,0,167.11,309Z"/><path class="cls-4" d="M209.16,304.54a9.12,9.12,0,0,0-6.11,10.69,20.34,20.34,0,0,0,4.43,9.48s-11.16.46-13,2.29a3.28,3.28,0,0,0-.76,3.82h22s8.86-10.7,6.57-18.49A10.74,10.74,0,0,0,209.16,304.54Z"/><path class="cls-3" d="M216,331.43H193.36l-.17-.32a3.91,3.91,0,0,1,.87-4.54c1.63-1.63,9.12-2.23,12.19-2.41a22.09,22.09,0,0,1-3.8-8.81A9.78,9.78,0,0,1,209,304h0a11.36,11.36,0,0,1,13.89,8.21c2.36,8-6.31,18.6-6.68,19Zm-21.88-1.22h21.3c1.22-1.55,8.27-10.91,6.28-17.71a10.19,10.19,0,0,0-12.39-7.38h0a8.59,8.59,0,0,0-5.69,10,20,20,0,0,0,4.28,9.17l.92,1-1.34.06c-4.22.17-11.37.9-12.58,2.11A2.7,2.7,0,0,0,194.14,330.21Z"/><path class="cls-4" d="M301.94,274.26l-.15,0a.6.6,0,0,1-.44-.74c0-.18,4.71-19,2.44-29.44l-.31-1.31c-1.89-7.81-1.26-10.57.89-15.92l.48-1.38c1.32-3.79,2.09-9.93,1-14.33-.49-2.05-2.45-8.13-2.47-8.19a.62.62,0,0,1,.4-.77.59.59,0,0,1,.76.39c.08.25,2,6.2,2.49,8.28,1.17,4.85.27,11.18-1.06,15l-.49,1.41c-2.1,5.22-2.66,7.71-.84,15.21l.31,1.32c2.33,10.73-2.25,29.23-2.45,30A.61.61,0,0,1,301.94,274.26Z"/><path class="cls-2" d="M329.7,165.1A29.75,29.75,0,1,0,301.39,200l-.92,6.5,8.92-1.56-3.62-5.41A29.75,29.75,0,0,0,329.7,165.1Z"/><path class="cls-3" d="M299.75,207.21l.94-6.61h-.32a30.36,30.36,0,0,1-5.21-60.27A30.36,30.36,0,0,1,330.3,165h0a30.43,30.43,0,0,1-23.52,34.91l3.64,5.43Zm2.35-7.87-.91,6.39,7.18-1.26-3.62-5.41.91-.16a29.21,29.21,0,0,0,23.44-33.69h0a29.14,29.14,0,1,0-57.41,10.06,29.24,29.24,0,0,0,29.68,24.09Z"/><path class="cls-4" d="M328.78,235.92l-.15,0a.61.61,0,0,1-.44-.74c.05-.19,4.71-19,2.44-29.45l-.3-1.3c-1.9-7.81-1.27-10.57.88-15.92l.48-1.38c1.32-3.79,2.09-9.93,1-14.33-.49-2.05-2.44-8.14-2.46-8.2a.6.6,0,1,1,1.15-.37c.09.25,2,6.19,2.5,8.28,1.16,4.84.26,11.18-1.07,15l-.48,1.4c-2.1,5.23-2.67,7.71-.85,15.22l.31,1.31c2.33,10.74-2.25,29.23-2.45,30A.62.62,0,0,1,328.78,235.92Z"/><path class="cls-2" d="M356.55,126.76a29.75,29.75,0,1,0-28.32,34.87l-.92,6.49,8.92-1.56-3.62-5.41A29.75,29.75,0,0,0,356.55,126.76Z"/><path class="cls-3" d="M326.59,168.87l.94-6.62h-.32a30.36,30.36,0,1,1,29.93-35.6h0a30.44,30.44,0,0,1-23.51,34.92l3.63,5.43Zm2.35-7.88-.91,6.39,7.18-1.26-3.62-5.4.91-.17A29.23,29.23,0,0,0,356,126.86h0A29.15,29.15,0,1,0,328.21,161Z"/></g></svg>