<svg xmlns="http://www.w3.org/2000/svg" xmlns:xlink="http://www.w3.org/1999/xlink" viewBox="0 0 396.52 115.44"><defs><style>.cls-1{fill:#39b54a;}.cls-2{fill:#58595b;}.cls-3{stroke:#d1d3d4;stroke-width:0.56px;fill:url(#Degradado_sin_nombre_12);}.cls-14,.cls-3,.cls-4{stroke-miterlimit:10;}.cls-14,.cls-4{fill:none;}.cls-4{stroke:#bcbec0;stroke-width:0.38px;}.cls-5{fill:url(#Degradado_sin_nombre_5);}.cls-6{opacity:0.2;}.cls-13,.cls-7{fill:#fff;}.cls-8{fill:url(#Degradado_sin_nombre_42);}.cls-9{fill:url(#Degradado_sin_nombre_17);}.cls-10{fill:url(#Degradado_sin_nombre_40);}.cls-11{fill:url(#Degradado_sin_nombre_19);}.cls-12{fill:#bcbec0;}.cls-13{opacity:0.5;}.cls-14{stroke:#a7a9ac;stroke-width:0.21px;}</style><linearGradient id="Degradado_sin_nombre_12" x1="100.94" y1="86.85" x2="2.28" y2="28.79" gradientUnits="userSpaceOnUse"><stop offset="0" stop-color="#f1f2f2"/><stop offset="0.58" stop-color="#e6e7e8"/><stop offset="1" stop-color="#f1f2f2"/></linearGradient><radialGradient id="Degradado_sin_nombre_5" cx="51.71" cy="37.46" r="55.7" gradientUnits="userSpaceOnUse"><stop offset="0" stop-color="#8dc63f"/><stop offset="0.62" stop-color="#39b54a"/><stop offset="1" stop-color="#006838"/></radialGradient><radialGradient id="Degradado_sin_nombre_42" cx="51.43" cy="78.1" r="11.39" gradientUnits="userSpaceOnUse"><stop offset="0" stop-color="#fff"/><stop offset="0.94" stop-color="#d1d3d4"/></radialGradient><radialGradient id="Degradado_sin_nombre_17" cx="35.63" cy="51.58" r="13.96" gradientUnits="userSpaceOnUse"><stop offset="0" stop-color="#d7df23"/><stop offset="0.6" stop-color="#39b54a"/><stop offset="1" stop-color="#006838"/></radialGradient><radialGradient id="Degradado_sin_nombre_40" cx="51.15" cy="51.87" r="32.36" gradientTransform="translate(0 7.69) scale(1 0.85)" gradientUnits="userSpaceOnUse"><stop offset="0" stop-color="#fff"/><stop offset="0.89" stop-color="#d1d3d4"/></radialGradient><radialGradient id="Degradado_sin_nombre_19" cx="67.14" cy="51.58" r="14.11" gradientUnits="userSpaceOnUse"><stop offset="0" stop-color="#d7df23"/><stop offset="0.6" stop-color="#009444"/><stop offset="1" stop-color="#006838"/></radialGradient></defs><g id="Capa_2" data-name="Capa 2"><g id="Capa_1-2" data-name="Capa 1"><path class="cls-1" d="M167.39,36.81a31.07,31.07,0,0,1-.47,4.83c-1.3,7.25-4.74,12-10.31,14.13,5.29,1.2,8,5,8,11.43a34.63,34.63,0,0,1-.56,5.85c-1.11,6.13-3.25,10.5-6.41,13s-7.9,3.72-14.31,3.72H112.84l11.43-65h30.2C163.11,24.73,167.39,28.72,167.39,36.81ZM128.08,79.28h12.64c6.41,0,9.29-2.51,10.5-8.92a21.71,21.71,0,0,0,.28-3.07c0-4.28-2.33-5.76-7.62-5.76H131.24Zm5-28.25h12.08c4.74,0,7.62-2.7,8.55-8a11.79,11.79,0,0,0,.27-2.42c0-3.63-2-5.39-6-5.39H135.88Z"/><path class="cls-1" d="M186.53,90.71c-12.17.09-18.68-4.65-18.68-16.92a52.64,52.64,0,0,1,.75-8.17c.65-3.63,1-5.3,1.76-8.27a24.94,24.94,0,0,1,1.3-3.72,16.44,16.44,0,0,1,4.09-6c3.81-3.25,9.11-5.3,18.59-5.3,14.59,0,18.21,5.39,18.21,13.57a87.79,87.79,0,0,1-1.67,13.1l-.1.84-30.38.47a30.26,30.26,0,0,0-.37,4.55c0,5.2,2.13,6.5,9.2,6.5H191a74.33,74.33,0,0,0,9.2-.65l3.07-.46,2.32,7.9A91.9,91.9,0,0,1,186.53,90.71Zm14.22-33.92c0-4.09-1.67-5.48-7.16-5.48-4.46,0-6.87.55-8.64,2.5-1.58,1.86-2.32,3.91-3.16,8.46h18.49C200.56,59.85,200.75,58,200.75,56.79Z"/><path class="cls-1" d="M233,90.71c-12.18.09-18.68-4.65-18.68-16.92a53.81,53.81,0,0,1,.74-8.17c.65-3.63,1-5.3,1.77-8.27a22.85,22.85,0,0,1,1.3-3.72,16.2,16.2,0,0,1,4.09-6c3.81-3.25,9.1-5.3,18.58-5.3C255.39,42.38,259,47.77,259,56a86.44,86.44,0,0,1-1.67,13.1l-.09.84-30.39.47a30.26,30.26,0,0,0-.37,4.55c0,5.2,2.14,6.5,9.2,6.5h1.77a74,74,0,0,0,9.19-.65l3.07-.46,2.33,7.9A91.9,91.9,0,0,1,233,90.71Zm14.21-33.92c0-4.09-1.67-5.48-7.15-5.48-4.46,0-6.88.55-8.64,2.5-1.58,1.86-2.33,3.91-3.16,8.46h18.49C247,59.85,247.21,58,247.21,56.79Z"/><path class="cls-2" d="M301.11,24.73c11.15,0,15.52,6.78,13.2,20.26C312,58,305.38,64.5,294.42,64.5H272.49L268,89.78H261.9l11.43-65ZM273.33,59.67h20.25c8.09,0,13.11-5,14.87-15.15s-1.39-14.87-9.57-14.87H278.62Z"/><path class="cls-2" d="M348.5,43.5a18.22,18.22,0,0,1,4.37,2.23l-2.79,3.44c-.46,0-4-2.42-8.08-2.42-3.25,0-7.71,1.12-13.38,3.44l-7.16,39.59h-5.67L323,47.4c7.25-3.44,13.57-5.2,18.87-5.2A17.29,17.29,0,0,1,348.5,43.5Z"/><path class="cls-2" d="M395.8,65.62c-1.58,9.1-4.46,15.61-8.45,19.42s-9.67,5.67-17,5.67c-15.89,0-21-6.14-17.65-25.93,2.88-16.08,11-22.4,25.46-22.4C392.92,42.38,398.69,49.26,395.8,65.62Zm-37.44-.38c-3.07,17.2.46,21.19,12.26,21.19,5.67,0,9.95-1.58,12.92-4.64s5.2-8.65,6.6-16.64q1.8-10.46-1.12-14.5c-1.95-2.69-5.76-4.08-11.24-4.08C366.53,46.57,360.86,51.4,358.36,65.24Z"/><path class="cls-3" d="M97.32,90.3l-40.6,23.44a10.54,10.54,0,0,1-10.56,0L5.56,90.3A10.54,10.54,0,0,1,.28,81.16V34.28a10.57,10.57,0,0,1,5.28-9.15L46.16,1.69a10.59,10.59,0,0,1,10.56,0l40.6,23.44a10.59,10.59,0,0,1,5.28,9.15V81.16A10.56,10.56,0,0,1,97.32,90.3Z"/><path class="cls-4" d="M88.51,84.05,55.7,103a8.5,8.5,0,0,1-8.53,0L14.37,84.05a8.55,8.55,0,0,1-4.27-7.39V38.78a8.53,8.53,0,0,1,4.27-7.39l32.8-18.94a8.55,8.55,0,0,1,8.53,0L88.51,31.39a8.52,8.52,0,0,1,4.26,7.39V76.66A8.54,8.54,0,0,1,88.51,84.05Z"/><path class="cls-5" d="M86.61,82.7l-31.12,18a8.13,8.13,0,0,1-8.1,0l-31.12-18a8.09,8.09,0,0,1-4-7V39.75a8.08,8.08,0,0,1,4-7l31.12-18a8.09,8.09,0,0,1,8.1,0l31.12,18a8.1,8.1,0,0,1,4,7V75.69A8.11,8.11,0,0,1,86.61,82.7Z"/><g class="cls-6"><path class="cls-7" d="M88.64,38.33a7.73,7.73,0,0,0-3.54-4.52L55.31,16.61a7.77,7.77,0,0,0-7.75,0L17.78,33.81a7.75,7.75,0,0,0-3.88,6.71V74.91a7.14,7.14,0,0,0,.07.93C25.38,63.45,48.64,44.72,88.64,38.33Z"/></g><path class="cls-8" d="M55.06,91.22l10-6.45A4.75,4.75,0,0,0,62.72,81l-9.15-5.29a4.31,4.31,0,0,0-4.26,0L40.16,81a4.74,4.74,0,0,0-2.36,3.88l9.83,6.33A6.85,6.85,0,0,0,55.06,91.22Z"/><path class="cls-9" d="M43.71,69.29l-15.53-38L21.07,42.85a9.81,9.81,0,0,0-.9,8.42L27.3,71.46l10.9-3.93Z"/><path class="cls-10" d="M55.33,72.64,72.82,29.86l-17.4-5.62a22,22,0,0,0-8.16,0L29.85,29.87,47.33,72.64l-9.09-2.9L28,73.42l1.06,3a11.39,11.39,0,0,0,4.56,5.78l2.25,1.45a6.85,6.85,0,0,1,3.26-4.44l9.15-5.28a6.35,6.35,0,0,1,6.34,0h0l9.15,5.28A6.89,6.89,0,0,1,67,83.53l2.12-1.36a11.38,11.38,0,0,0,4.54-5.71l1.08-3-10.3-3.7Z"/><path class="cls-11" d="M81.75,42.8,74.5,31.26,59,69.29l5.51-1.76,11,4,7.24-20.12A9.8,9.8,0,0,0,81.75,42.8Z"/><path class="cls-12" d="M54.86,43.94,69.3,17.84a2.62,2.62,0,0,1,1.43-1.21l15-5.37a.47.47,0,0,1,.59.64l-2.76,6.36a3.89,3.89,0,0,1-3,2.3l-8.31,1.1a2.67,2.67,0,0,0-1.89,1.2L57,43.65a1.81,1.81,0,0,1-1,.77l-.61.17A.45.45,0,0,1,54.86,43.94Z"/><path class="cls-12" d="M48,43.94,33.58,17.84a2.68,2.68,0,0,0-1.44-1.21l-15-5.37a.48.48,0,0,0-.6.64l2.77,6.36a3.88,3.88,0,0,0,3.05,2.3l8.3,1.1a2.63,2.63,0,0,1,1.89,1.2L45.85,43.65a1.85,1.85,0,0,0,1,.77l.61.17A.45.45,0,0,0,48,43.94Z"/><path class="cls-13" d="M62.56,65,74.73,35s6,7.93,6,12.53S75.09,42.93,62.56,65Z"/><path class="cls-13" d="M40.32,65.43,28.15,35.35s-6,7.94-6,12.53S27.8,43.33,40.32,65.43Z"/><path class="cls-14" d="M67.17,28l-5,13.84a4.5,4.5,0,0,1-1.78,2.25l-7.77,5a2.44,2.44,0,0,1-2.67,0l-7.75-5a4.41,4.41,0,0,1-1.8-2.26L35.54,28"/></g></g></svg>