<svg xmlns="http://www.w3.org/2000/svg" xmlns:xlink="http://www.w3.org/1999/xlink" viewBox="0 0 423.21 403.97"><defs><style>.cls-1{fill:url(#linear-gradient);}.cls-2{fill:#ef6744;}.cls-3{fill:#fff;}.cls-4{fill:#2755a3;}.cls-5{fill:url(#linear-gradient-2);}.cls-6{fill:#f1c4d9;}.cls-7{fill:#151e27;}.cls-8{fill:url(#linear-gradient-3);}.cls-9{fill:none;stroke:#000;stroke-linecap:round;stroke-linejoin:round;stroke-width:0.5px;}</style><linearGradient id="linear-gradient" x1="-1011.26" y1="-978.77" x2="-823.77" y2="-1087.02" gradientTransform="translate(1495.02 622.22) rotate(-30.44)" gradientUnits="userSpaceOnUse"><stop offset="0" stop-color="#ef6744"/><stop offset="0.07" stop-color="#ef755b"/><stop offset="0.21" stop-color="#f08d81"/><stop offset="0.35" stop-color="#f0a1a1"/><stop offset="0.49" stop-color="#f1b0ba"/><stop offset="0.64" stop-color="#f1bbcb"/><stop offset="0.81" stop-color="#f1c2d6"/><stop offset="1" stop-color="#f1c4d9"/></linearGradient><linearGradient id="linear-gradient-2" x1="3760.05" y1="-101.36" x2="3844.88" y2="-101.36" gradientTransform="matrix(-0.99, 0.16, 0.16, 0.99, 4089.79, -331.66)" gradientUnits="userSpaceOnUse"><stop offset="0.28" stop-color="#151e27"/><stop offset="0.39" stop-color="#192a41"/><stop offset="0.58" stop-color="#1f3c6b"/><stop offset="0.75" stop-color="#234a8a"/><stop offset="0.9" stop-color="#26529c"/><stop offset="1" stop-color="#2755a3"/></linearGradient><linearGradient id="linear-gradient-3" x1="-769" y1="-1061.61" x2="-683.34" y2="-1061.61" gradientTransform="matrix(0.82, -0.58, 0.58, 0.82, 1398.1, 650.41)" xlink:href="#linear-gradient-2"/></defs><title>Craftwork_illustrations</title><g id="background"><path class="cls-1" d="M226.81,250.49c.05-7.06-4.75-19.26,6.18-34,9.22-12.4,49.87-37.82,29.42-83.44s-68.35-43.66-109.35-13.11C116,147.58,94.41,187.55,101.47,231.17c6.18,38.19,24.39,66.8,57.65,74.12C188.28,311.7,226.52,292.46,226.81,250.49Z"/></g><g id="character"><path d="M375.58,244.22l20.94-12.09,7.64,7.57-21,42.65a3.17,3.17,0,0,1-3.4,1.71l-8.59-1.58a147.7,147.7,0,0,1,1.16-24.84A58.81,58.81,0,0,1,375.58,244.22Z"/><path class="cls-2" d="M371.22,282.48l8.59,1.58a3.17,3.17,0,0,0,3.4-1.71l21-42.65v0l2.82,2.8a2.47,2.47,0,0,1,.44,2.91l-23.16,43.77a2.48,2.48,0,0,1-2.83,1.23l-8.27-2.24a2.47,2.47,0,0,1-1.82-2.28l-.15-3.39Z"/><path class="cls-3" d="M376.66,248.73h0c.09,0,2.16.51,6.33-1,4.58-1.63,6-4.08,6.1-4.18a.56.56,0,0,0-.2-.77.55.55,0,0,0-.77.2h0s-1.36,2.21-5.51,3.69c-3.79,1.35-5.66.94-5.68.94a.56.56,0,0,0-.68.41A.57.57,0,0,0,376.66,248.73Z"/><path class="cls-3" d="M376.5,253.85h0c.08,0,2.16.52,6.33-1,4.58-1.64,6-4.08,6.1-4.19a.56.56,0,0,0-.2-.77.56.56,0,0,0-.77.2c0,.05-1.38,2.22-5.51,3.69-3.79,1.36-5.66,1-5.68.94a.57.57,0,0,0-.68.42A.56.56,0,0,0,376.5,253.85Z"/><path class="cls-3" d="M376.28,259h0c.09,0,2.17.52,6.34-1,4.58-1.64,6-4.09,6.1-4.19a.57.57,0,0,0-.21-.77.56.56,0,0,0-.77.2s-1.37,2.22-5.5,3.69c-3.8,1.36-5.67.95-5.68.94a.57.57,0,0,0-.68.42A.55.55,0,0,0,376.28,259Z"/><path class="cls-3" d="M375.85,264h0c.09,0,2.17.52,6.33-1,4.58-1.64,6-4.09,6.1-4.19a.56.56,0,1,0-1-.57h0s-1.35,2.21-5.51,3.69c-3.79,1.36-5.66.95-5.68.94a.57.57,0,0,0-.3,1.09Z"/><path class="cls-4" d="M353.73,137.66s3.3,8.17,6.27,27.78a147.39,147.39,0,0,1,1.45,24.24l35.66,43-21.48,11.5-37.46-43.12a31.47,31.47,0,0,1-8.35-16.46l-9.42-42.09,3.28-19.62Z"/><path class="cls-3" d="M373.2,235.71a.64.64,0,0,1-.54-.31.62.62,0,0,1,.24-.83l15.18-8.44a.63.63,0,0,1,.83.24.61.61,0,0,1-.24.83l-15.18,8.43A.6.6,0,0,1,373.2,235.71Z"/><path d="M329.81,209l12.8-20.52,10.3,3.09,1.55,47.49a3.16,3.16,0,0,1-2.2,3.11l-8.32,2.65a148.33,148.33,0,0,1-10.66-22.48A59.42,59.42,0,0,1,329.81,209Z"/><path class="cls-2" d="M343.94,244.86l8.32-2.65a3.16,3.16,0,0,0,2.2-3.11l-1.55-47.49h0l3.8,1.14a2.45,2.45,0,0,1,1.76,2.36l.12,49.52a2.44,2.44,0,0,1-1.92,2.41l-8.35,1.91a2.46,2.46,0,0,1-2.67-1.15l-1.73-2.93Z"/><path class="cls-3" d="M332.87,212.5h0c.08,0,2.15-.56,5.13-3.84,3.27-3.59,3.41-6.44,3.42-6.56a.56.56,0,0,0-.55-.58.55.55,0,0,0-.58.54h0s-.16,2.58-3.12,5.84c-2.72,3-4.56,3.5-4.58,3.5a.57.57,0,0,0-.4.69A.54.54,0,0,0,332.87,212.5Z"/><path class="cls-3" d="M335.14,217.11h0c.09,0,2.16-.56,5.14-3.84,3.27-3.59,3.41-6.44,3.41-6.56a.56.56,0,1,0-1.12,0c0,.05-.18,2.6-3.13,5.84-2.71,3-4.55,3.5-4.57,3.5a.57.57,0,0,0,.24,1.11Z"/><path class="cls-3" d="M337.35,221.71h0c.09,0,2.16-.56,5.14-3.84,3.27-3.59,3.41-6.44,3.42-6.56a.57.57,0,0,0-.55-.58.55.55,0,0,0-.58.54s-.17,2.6-3.13,5.84c-2.71,3-4.55,3.5-4.57,3.5a.58.58,0,0,0-.41.69A.56.56,0,0,0,337.35,221.71Z"/><path class="cls-3" d="M339.34,226.37h0c.09,0,2.16-.56,5.13-3.83,3.28-3.6,3.42-6.45,3.42-6.56a.57.57,0,1,0-1.13-.05h0s-.15,2.59-3.12,5.84c-2.71,3-4.56,3.5-4.58,3.51a.55.55,0,0,0-.4.68A.57.57,0,0,0,339.34,226.37Z"/><path class="cls-2" d="M270.61,153a6.63,6.63,0,0,1,4.28,3,9.42,9.42,0,0,1,1.84,4.9,32.37,32.37,0,0,1-7.56,4.46c-4.49,1.88-7.67,1.58-8.35,1.32-2-.75-1.36-1.75-1.36-1.75s-1.29-.84-1.15-1.95c.11-.81,1.33-1,1.33-1a1.3,1.3,0,0,1-.24-1.49c.48-.74,3.7-.31,5.15-.94a15.31,15.31,0,0,0,2.4-1.29s-2.39-.34-2.06-1.32,2.05-1,3.39-1.92A15.9,15.9,0,0,0,270.61,153Z"/><path class="cls-2" d="M238.61,123a6.93,6.93,0,0,0-5-2.09,9.73,9.73,0,0,0-5.31,1.12,33.56,33.56,0,0,0,.3,9.09c.85,5,2.88,7.59,3.48,8,1.79,1.35,2.29.22,2.29.22s1.45.66,2.35-.08c.65-.54.13-1.71.13-1.71a1.34,1.34,0,0,0,1.43-.63c.38-.82-1.79-3.4-2-5a16.09,16.09,0,0,1-.2-2.82s1.63,1.9,2.3,1.07-.27-2.35-.21-4A16.32,16.32,0,0,1,238.61,123Z"/><path class="cls-4" d="M205.05,166.07s-9.76,2.94-13.94,9.14-2.4,14-2.4,14l-15.14-.49s-2.67-25.24,10.27-29.45a65.77,65.77,0,0,1,21.26-3,11,11,0,0,0-1,5.21A19.17,19.17,0,0,0,205.05,166.07Z"/><path class="cls-5" d="M348.3,110.17s15.07,17.83,2.21,35.41c-11,15-41.15,22.63-41.15,22.63l33.3,20.38-12.78,20.47L282.83,180.3a12.64,12.64,0,0,1-4.24-17.91c5.62-8.53,13.8-19.95,21.58-27.29,13.74-12.94,22.31-20,22.31-20Z"/><path class="cls-3" d="M322.36,202.69a.56.56,0,0,1-.33-.1.6.6,0,0,1-.19-.83l9.56-15.42a.61.61,0,1,1,1,.64l-9.56,15.42A.61.61,0,0,1,322.36,202.69Z"/><path class="cls-3" d="M306.47,168.16l-.15,0-5.86-1.48a.61.61,0,0,1,.3-1.18l5.86,1.48a.61.61,0,0,1-.15,1.2Z"/><path class="cls-3" d="M302.75,171.36a.61.61,0,0,1-.14-1.2l4.44-1.1a.61.61,0,0,1,.3,1.18l-4.45,1.11Z"/><path class="cls-2" d="M204.58,166.23a6.66,6.66,0,0,1-1.79-4.89,9.4,9.4,0,0,1,1.32-5.07,32.61,32.61,0,0,1,8.75.7c4.75,1.05,7.18,3.12,7.59,3.73,1.21,1.78.1,2.21.1,2.21s.57,1.43-.18,2.26c-.56.6-1.66.05-1.66.05s.15,1-.66,1.35-3.08-1.7-4.75-2.2a7.61,7.61,0,0,0-2.71-.32s1.76,1.66.92,2.27-2.25-.38-3.88-.39A15.73,15.73,0,0,0,204.58,166.23Z"/><path class="cls-6" d="M270.61,153A29.08,29.08,0,0,0,279,132.52c-.27-13.16-7-17.69-9-19.13s-17.17-6.35-22.94-3-8.78,12.75-8.78,12.75l-9.93-.93s3.54-16.1,21-29.14c17.91-13.39,37.06-19,62.61-11.87,25.17,7,37.4,30.92,37.4,30.92l-33.85,8.84s-3.05-1-9.36-3.06a73.53,73.53,0,0,1-9.89-4.45,30.93,30.93,0,0,1,.06,28.64c-4.67,9.29-19.56,18.82-19.56,18.82Z"/><path class="cls-3" d="M276.59,161.7l-6.8-8.76.41-.38c.08-.08,8.4-7.91,8.16-20-.26-12.64-6.54-17.11-8.61-18.58l-.11-.08c-1.84-1.32-16.79-6.15-22.27-3s-8.48,12.33-8.51,12.42l-.15.46-11.1-1,.15-.67c0-.17,3.79-16.47,21.2-29.49,19.93-14.91,39.4-18.61,63.14-12,25.13,7,37.65,31,37.77,31.23l.35.67-34.76,9.09-.17-.06s-3.13-1.06-9.36-3.06a63.36,63.36,0,0,1-8.31-3.61,32,32,0,0,1-.78,27.49c-4.7,9.34-19.17,18.67-19.78,19.07Zm-5.16-8.64,5.43,7c2.55-1.7,14.81-10.16,18.89-18.28a30.51,30.51,0,0,0,0-28l-1.17-1.93,2,1.08a73,73,0,0,0,9.79,4.4c5.41,1.74,8.46,2.76,9.2,3l32.91-8.6C346.21,107.79,334,88,311.77,81.75c-23.33-6.51-42.48-2.88-62.08,11.78-15.06,11.26-19.67,25-20.57,28.11l8.74.82c.7-2,3.67-9.63,8.9-12.63,6.13-3.53,21.52,1.58,23.59,3.06l.11.07c2.19,1.56,8.84,6.31,9.11,19.55A29.42,29.42,0,0,1,271.43,153.06Z"/><path class="cls-2" d="M270.44,114.38a6.14,6.14,0,0,0-3.4-1.59L265,113.87a4.12,4.12,0,0,1-1.66,2.31c-1.46.69-2.24.12-4,.29a10.58,10.58,0,0,0-5.89,3.11c-2.92,2.75,1.5,4.49,2.76,4.91l.33.1c1.16.45,1.34,2.34,1.34,2.34l2.61-.46s3.65,1.34,4.78.07c1-1.11,1.69-4.64,1.75-6.68l6.08-3A16,16,0,0,0,270.44,114.38Z"/><path d="M258.64,104.59c-3.65,0-4,2.85-4,2.85s-5.62-.92-7.58,2.2a6.25,6.25,0,0,0,.09,6.33s-2.94,2.07-2.16,4.45,4.77,2.45,4.77,2.45-1.34,1.68,1,3,5.7-1.32,5.7-1.32l-.33-.1c-1.26-.42-5.68-2.16-2.76-4.91a10.58,10.58,0,0,1,5.89-3.11c1.72-.17,2.5.4,4-.29a4.12,4.12,0,0,0,1.66-2.31c.05-.15.1-.28.14-.37C266,111.45,264.11,104.53,258.64,104.59Z"/><path d="M261.67,125.63a.3.3,0,0,1-.16,0,.3.3,0,0,1-.11-.41c.5-.82.12-1.21.1-1.23a.31.31,0,0,1,.42-.45,1.54,1.54,0,0,1,0,2A.32.32,0,0,1,261.67,125.63Z"/><path d="M254.67,121.85a.32.32,0,0,1-.3-.24c0-.1-.16-1,1.61-1.79a7.89,7.89,0,0,1,2.07-.55.31.31,0,0,1,.06.61,7,7,0,0,0-1.89.5c-1.3.55-1.25,1.11-1.25,1.11a.3.3,0,0,1-.23.36Z"/><path d="M257.2,122.84a.3.3,0,0,1-.3-.26,1.2,1.2,0,0,1,1.08-1.31.31.31,0,0,1,.11.6h0c-.07,0-.66.14-.59.62a.3.3,0,0,1-.26.34Z"/><path class="cls-4" d="M274.49,107.65a.61.61,0,0,1-.49-.25l-2.13-3a.61.61,0,1,1,1-.7l2.13,3a.61.61,0,0,1-.14.85A.59.59,0,0,1,274.49,107.65Z"/><path class="cls-4" d="M281.19,89.81a.61.61,0,0,1-.5-.26l-2.13-3a.61.61,0,0,1,.14-.85.62.62,0,0,1,.85.14l2.13,3a.61.61,0,0,1-.49,1Z"/><path class="cls-4" d="M284.19,132.11a.61.61,0,0,1-.16-1.19l3.54-1a.61.61,0,0,1,.75.42.6.6,0,0,1-.42.75l-3.54,1Z"/><path class="cls-4" d="M278.63,100.87a.61.61,0,0,1-.6-.55l-.37-3.67a.61.61,0,0,1,1.21-.12l.37,3.67a.61.61,0,0,1-.55.66Z"/><path class="cls-4" d="M278.25,114.78a.61.61,0,0,1-.17-1.2l3.54-1a.61.61,0,0,1,.34,1.17l-3.54,1A.51.51,0,0,1,278.25,114.78Z"/><path class="cls-4" d="M331.11,101.35a.55.55,0,0,1-.28-.07.6.6,0,0,1-.26-.82l1.69-3.27a.62.62,0,0,1,.82-.26.61.61,0,0,1,.26.82L331.65,101A.61.61,0,0,1,331.11,101.35Z"/><path class="cls-4" d="M314,113.34a.61.61,0,0,1-.61-.55l-.36-3.66a.61.61,0,0,1,.54-.67.62.62,0,0,1,.67.55l.36,3.66a.6.6,0,0,1-.54.67Z"/><path class="cls-4" d="M262.74,100.9a.61.61,0,0,1-.28-1.15l2.38-1.21a.61.61,0,0,1,.82.27.59.59,0,0,1-.26.81L263,100.83A.54.54,0,0,1,262.74,100.9Z"/><path class="cls-4" d="M284.1,124.75a.63.63,0,0,1-.48-.24L282,122.38a.61.61,0,0,1,1-.74l1.62,2.13a.61.61,0,0,1-.12.85A.58.58,0,0,1,284.1,124.75Z"/><path class="cls-4" d="M265.67,92.63a.61.61,0,0,1-.32-.08.62.62,0,0,1-.2-.84l1.51-2.47a.61.61,0,0,1,.83-.2.62.62,0,0,1,.21.84l-1.51,2.46A.59.59,0,0,1,265.67,92.63Z"/><path class="cls-4" d="M256.5,97.69a.62.62,0,0,1-.32-.09l-2.47-1.48a.61.61,0,0,1-.21-.84.61.61,0,0,1,.83-.21l2.48,1.49a.6.6,0,0,1,.21.83A.63.63,0,0,1,256.5,97.69Z"/><path class="cls-4" d="M240.7,110.35h-.08L238,110a.61.61,0,1,1,.16-1.21l2.65.37a.61.61,0,0,1-.08,1.21Z"/><path class="cls-4" d="M244.59,104.57h-.15a.6.6,0,0,1-.44-.74l.69-2.8a.61.61,0,1,1,1.18.29l-.69,2.8A.61.61,0,0,1,244.59,104.57Z"/><path class="cls-4" d="M235.66,119.58a.62.62,0,0,1-.55-.35l-1.22-2.62a.61.61,0,1,1,1.11-.51l1.22,2.61a.61.61,0,0,1-.3.81A.58.58,0,0,1,235.66,119.58Z"/><path class="cls-4" d="M286.35,141.28h-.08l-2.65-.36a.61.61,0,0,1,.16-1.21l2.65.37a.59.59,0,0,1,.52.68A.6.6,0,0,1,286.35,141.28Z"/><path class="cls-4" d="M292.67,137.39h-.15a.62.62,0,0,1-.44-.74l.69-2.8a.62.62,0,0,1,.74-.45.6.6,0,0,1,.44.74l-.69,2.8A.61.61,0,0,1,292.67,137.39Z"/><path class="cls-4" d="M280.24,152.53a.59.59,0,0,1-.55-.35l-1.22-2.61a.6.6,0,0,1,.29-.81.61.61,0,0,1,.81.29l1.22,2.62a.61.61,0,0,1-.3.81A.56.56,0,0,1,280.24,152.53Z"/><path class="cls-4" d="M288.84,107.29a.63.63,0,0,1-.49-.25.6.6,0,0,1,.14-.85l2.75-2a.62.62,0,0,1,.85.14.61.61,0,0,1-.13.85l-2.76,2A.6.6,0,0,1,288.84,107.29Z"/><path class="cls-4" d="M286.14,147.94a.61.61,0,0,1-.35-1.1l2.75-2a.61.61,0,1,1,.72,1l-2.76,2A.59.59,0,0,1,286.14,147.94Z"/><path class="cls-4" d="M291.7,96.88a.62.62,0,0,1-.55-.34l-1.6-3.25a.61.61,0,0,1,.27-.82.62.62,0,0,1,.82.28l1.6,3.25a.6.6,0,0,1-.27.81A.54.54,0,0,1,291.7,96.88Z"/><path class="cls-4" d="M323.63,114.87a.68.68,0,0,1-.28-.07l-3-1.53a.61.61,0,1,1,.55-1.09l3,1.53a.61.61,0,0,1-.27,1.16Z"/><path class="cls-4" d="M331.15,111.1a.6.6,0,0,1-.36-.12.61.61,0,0,1-.13-.85l2.15-2.92a.61.61,0,1,1,1,.73l-2.15,2.91A.63.63,0,0,1,331.15,111.1Z"/><path class="cls-4" d="M310.08,102.82a.61.61,0,0,1-.36-1.1l2.76-2a.62.62,0,0,1,.85.14.61.61,0,0,1-.13.85l-2.76,2A.62.62,0,0,1,310.08,102.82Z"/><path class="cls-4" d="M312.66,92a.61.61,0,0,1-.54-.34l-1.61-3.25a.61.61,0,1,1,1.09-.54l1.61,3.25a.61.61,0,0,1-.28.81A.5.5,0,0,1,312.66,92Z"/><path class="cls-4" d="M302.17,107.31a.57.57,0,0,1-.49-.25l-1.9-2.58a.62.62,0,0,1,.13-.86.61.61,0,0,1,.85.14l1.9,2.58a.6.6,0,0,1-.13.85A.62.62,0,0,1,302.17,107.31Z"/><path class="cls-4" d="M323.15,103.18a.61.61,0,0,1-.49-.25l-1.9-2.59a.61.61,0,0,1,.13-.85.62.62,0,0,1,.86.13l1.89,2.59a.61.61,0,0,1-.13.85A.62.62,0,0,1,323.15,103.18Z"/><path class="cls-4" d="M303,96.34a.62.62,0,0,1-.61-.58.61.61,0,0,1,.58-.64l3.22-.16a.58.58,0,0,1,.64.57.6.6,0,0,1-.58.64l-3.22.17Z"/><path class="cls-4" d="M321.4,93.58a.61.61,0,0,1,0-1.21l3.22-.17a.58.58,0,0,1,.64.58.61.61,0,0,1-.58.64l-3.22.16Z"/><path class="cls-4" d="M296.28,126.64a.6.6,0,0,1-.49-.25l-1.9-2.59a.61.61,0,0,1,1-.72l1.9,2.59a.61.61,0,0,1-.13.85A.62.62,0,0,1,296.28,126.64Z"/><path class="cls-4" d="M288,117.6a.6.6,0,0,1-.6-.58.61.61,0,0,1,.57-.64l3.22-.16a.58.58,0,0,1,.64.58.61.61,0,0,1-.57.64l-3.23.16Z"/><path class="cls-4" d="M294.09,86.24a.6.6,0,0,1-.61-.58.61.61,0,0,1,.58-.64l3.22-.16h0a.61.61,0,0,1,.61.58.62.62,0,0,1-.58.64l-3.22.16Z"/><path class="cls-2" d="M66.52,268.5s-9.76-1.85-16.15-7.09-16-15.84-16-15.84l9.62-.43,13,12.15s3.77,1.23,11,1c5.08-.13,3.12,4,3.12,4Z"/><path class="cls-7" d="M57,257.3s-4.62.37-7.4-3-6.47-7.09-8.5-7.49a13.35,13.35,0,0,0-5.18.15,56.21,56.21,0,0,0-6.58-5.37,49.43,49.43,0,0,1-4.14-3,1,1,0,0,1,.49-1.72,17.65,17.65,0,0,1,10.45,1.23l9.63,4.71s1.39,2.72,2.47,2.88a1,1,0,0,0,.75-.2,1.58,1.58,0,0,1,1.76-.26l6.21,3A2.74,2.74,0,0,1,58,250.1a9.4,9.4,0,0,1,.15,3.52A10.82,10.82,0,0,1,57,257.3Z"/><path class="cls-6" d="M154.84,223.76c-27.6,4.4-43.07,34.87-48.13,34.58l-43.43-2.49-3.81,20.79L114,287a33.16,33.16,0,0,0,24.64-5Z"/><path class="cls-3" d="M120.19,288.17a34.13,34.13,0,0,1-6.35-.6L58.76,277.13l4-21.92,44,2.52c1.33.07,4.26-3.27,7.65-7.14,8-9.13,21.39-24.41,40.35-27.43l.93-.15-16.56,59.32-.19.12A33.54,33.54,0,0,1,120.19,288.17Zm-60-12,53.89,10.22a32.4,32.4,0,0,0,24-4.81l15.93-57c-18,3.31-30.93,18-38.68,26.87-4.19,4.78-6.74,7.71-8.64,7.56l-42.9-2.46Z"/><path class="cls-2" d="M71.67,300.24s-9.92.6-17.4-2.91-19.41-11.42-19.41-11.42l9.22-2.78,15.55,8.59s3.95.28,10.88-1.67c4.89-1.38,4,3.09,4,3.09Z"/><path class="cls-7" d="M59.64,291.73s-4.38,1.49-7.91-1.1-8-5.28-10.08-5.17a13.16,13.16,0,0,0-5,1.42,55.62,55.62,0,0,0-7.7-3.59c-1.75-.6-3.5-1.35-4.75-1.93a1,1,0,0,1,.05-1.79,17.65,17.65,0,0,1,10.43-1.37l10.5,2.19s2,2.3,3.09,2.19a1,1,0,0,0,.68-.38,1.59,1.59,0,0,1,1.65-.68l6.76,1.42c.69.16,1.19.93,1.51,1.56a9.34,9.34,0,0,1,1,3.37A10.9,10.9,0,0,1,59.64,291.73Z"/><path class="cls-6" d="M154.77,223.76s-9.87,4.88-20.21,20.18c-6.26,9.26-12,19.38-15.55,25.94a16.26,16.26,0,0,1-11.76,8.3l-43,6.75.67,21.13,55.43-1.42a33.17,33.17,0,0,0,23-10.13c10.45-10.82,26.13-27.63,30.27-33.57,18-25.81,17.93-40.34,17.93-40.34s-15.71,12.45-23.33,7.51S154.77,223.76,154.77,223.76Z"/><path class="cls-3" d="M64.35,306.68l-.71-22.27,43.51-6.84a15.73,15.73,0,0,0,11.32-8c3.69-6.79,9.38-16.8,15.58-26,10.31-15.26,20-20.18,20.45-20.38l.21-.06c.26,0,6.18-.55,13.89,4.44,7.16,4.64,22.46-7.36,22.61-7.48l1-.78v1.26c0,.6-.14,15-18,40.68-4.42,6.34-21.14,24.14-30.33,33.66a33.62,33.62,0,0,1-23.44,10.31Zm.54-21.24.64,20,54.83-1.4a32.39,32.39,0,0,0,22.6-9.94c11.87-12.3,26.39-28,30.2-33.5,14.65-21,17.26-34.6,17.72-38.69-3.75,2.76-16.16,11.12-22.95,6.72s-12.17-4.31-13-4.26c-1.06.57-10.32,5.77-19.88,19.92-6.17,9.15-11.85,19.13-15.52,25.89a17,17,0,0,1-12.2,8.61Z"/><path class="cls-8" d="M231.56,191.15s-19.32,14.1-32.22,4.52c-11.72-8.71-16.56-23-26.49-19.07s-11.25,17.32-11.91,23.91c-1.06,10.58-6.17,23.25-6.17,23.25s11.53,5.79,17.2,12.93a105.92,105.92,0,0,1,9.39,14.11s6.29-11.35,9.12-19.86c2.14-6.4,2-9.35,2-9.35s5.92,4.15,20.75-1.23c18-6.53,26.91-24.21,26.91-24.21Z"/><path class="cls-2" d="M187.75,163.55s2.7,4.65,2.6,8.53a12.37,12.37,0,0,1-2.49,6.71,2,2,0,0,1-1.79.81l-1.1-.09s0,1.27-.05,2.16c0,.52-.67,1.38-2.7,1.42a3.72,3.72,0,0,1-2.87-1.27l.75-12.49a5.13,5.13,0,0,1,3.54-4.46Z"/><polyline class="cls-9" points="187.85 170.13 188.47 172.79 187.16 172.89"/><path class="cls-9" d="M186.19,175.21s.3.56,1.42.22"/><path class="cls-9" d="M185.83,169.94a1.33,1.33,0,0,1-2-.09"/><path class="cls-7" d="M190.32,171.27s-1.94-8.47-6.55-6.23c-4.45,2.16-1.4,9-3.91,12.17-5.46,6.89-10.41,3-17.46,1.64-3.25-.64-6.05,2.6-11.63.6C141,176,138,162.67,129.08,167.76c-11.83,6.73-36.18-8.52-19-32.51,12.84-17.91,35.79-15.24,45.4-9.14,8.63,5.48,7.3,14.33,10.09,18.37s4.81,6.64,11.72,5,12.11.28,15.14,6.54C196.6,164.64,190.32,171.27,190.32,171.27Z"/><path class="cls-2" d="M231.53,191.19a6.65,6.65,0,0,0,3.44,3.9,9.41,9.41,0,0,0,5.09,1.26,32.42,32.42,0,0,0,3.55-8c1.36-4.68.69-7.8.35-8.45-1-1.92-1.89-1.15-1.89-1.15s-1-1.18-2.08-.91c-.79.19-.83,1.43-.83,1.43a1.28,1.28,0,0,0-1.5-.06c-.68.55.12,3.71-.34,5.22a15.19,15.19,0,0,1-1,2.53s-.61-2.33-1.55-1.89-.75,2.15-1.51,3.59A16,16,0,0,1,231.53,191.19Z"/><path class="cls-3" d="M192.52,222.19a.58.58,0,0,1-.28-.07,30.65,30.65,0,0,1-12.9-14.39.6.6,0,0,1,.33-.79.61.61,0,0,1,.8.33A29.89,29.89,0,0,0,192.81,221a.61.61,0,0,1-.29,1.15Z"/></g><g id="other_details" data-name="other details"><path class="cls-4" d="M214.79,230.91l-3.64,2.31a1.6,1.6,0,0,0-.48,2.24l12.89,19.45a1.57,1.57,0,0,0,2.16.47A92.19,92.19,0,0,1,236,249.74a74.26,74.26,0,0,1,10.67-3.32.3.3,0,0,1,.3.09c.27.32,1.22.84,2.9.4a2.85,2.85,0,0,0,2-1.45c.13,0,6.94-2,10.74-2.21,2-.11,4.14-.32,5.66-.5a1.52,1.52,0,0,0,1.16-2.23l-5.92-10.89Z"/><path class="cls-3" d="M261.49,221.69,271,239.55s-7.3-1.17-11.14-.31c-7.3,1.64-10.91,4.48-10.91,4.48s1.59-9,3.8-13.41S261.49,221.69,261.49,221.69Z"/><path class="cls-6" d="M248.91,244.33a.65.65,0,0,1-.31-.08.61.61,0,0,1-.29-.63c.07-.37,1.63-9.12,3.86-13.58s8.72-8.69,9-8.87a.63.63,0,0,1,.48-.07.59.59,0,0,1,.39.3l9.47,17.86a.62.62,0,0,1-.64.89c-.07,0-7.22-1.14-10.91-.31-7,1.58-10.63,4.34-10.66,4.36A.6.6,0,0,1,248.91,244.33Zm12.36-21.76c-1.6,1.1-6.27,4.52-8,8-1.63,3.26-2.93,9.14-3.48,11.83a33.53,33.53,0,0,1,9.9-3.76c3-.67,7.92-.17,10.18.13Z"/><path class="cls-3" d="M225.42,252.36a58.21,58.21,0,0,1,10.2-5.89,50.27,50.27,0,0,1,13.25-2.72l-10.5-16.94a26.13,26.13,0,0,0-13.72-.81,41.25,41.25,0,0,0-13.76,5.45Z"/><path class="cls-6" d="M225.42,253h-.11a.61.61,0,0,1-.39-.25L210.39,231.8a.63.63,0,0,1-.1-.46.61.61,0,0,1,.25-.39,41.72,41.72,0,0,1,14-5.55,26.54,26.54,0,0,1,14.08.84.59.59,0,0,1,.29.25l10.49,16.94a.59.59,0,0,1,0,.6.61.61,0,0,1-.51.33A49.71,49.71,0,0,0,235.84,247a58.15,58.15,0,0,0-10.07,5.81A.57.57,0,0,1,225.42,253Zm-13.67-21.35,13.82,19.89a54.73,54.73,0,0,1,9.83-5.6,48.38,48.38,0,0,1,12.42-2.69L238,227.31a26.1,26.1,0,0,0-13.2-.72A42.52,42.52,0,0,0,211.75,231.62Z"/><path class="cls-3" d="M267,226.58a57.78,57.78,0,0,0-9.82,6.51,49.55,49.55,0,0,0-8.34,10.64l-10.49-16.95a29.8,29.8,0,0,1,5.21-12.11,28.81,28.81,0,0,1,10.37-8.1Z"/><path class="cls-6" d="M248.81,244.34a.61.61,0,0,1-.52-.29l-10.49-17a.68.68,0,0,1-.08-.42,30.05,30.05,0,0,1,5.33-12.38A29.11,29.11,0,0,1,253.66,206a.62.62,0,0,1,.75.23l13.07,20a.61.61,0,0,1-.23.87,57.64,57.64,0,0,0-9.69,6.42A50,50,0,0,0,249.33,244a.6.6,0,0,1-.51.31ZM239,226.65l9.84,15.91a48.3,48.3,0,0,1,7.94-9.92,54.42,54.42,0,0,1,9.36-6.28l-12.42-19A28.35,28.35,0,0,0,244,215,29.54,29.54,0,0,0,239,226.65Z"/><polygon class="cls-4" points="193.7 289.09 174.45 279.38 191.97 252.62 211.46 262 193.7 289.09"/><path class="cls-3" d="M193.7,289.7a.54.54,0,0,1-.27-.07l-19.26-9.71a.59.59,0,0,1-.31-.38.57.57,0,0,1,.08-.49l17.52-26.76a.61.61,0,0,1,.78-.21l19.48,9.37a.59.59,0,0,1,.32.39.63.63,0,0,1-.07.5l-17.76,27.08A.6.6,0,0,1,193.7,289.7Zm-18.37-10.56,18.16,9.16,17.08-26.05-18.38-8.85Z"/><path class="cls-4" d="M195.14,257.16a56.58,56.58,0,0,1-3.36-4.6L174.32,279.2l3.07,5.05Z"/><path class="cls-3" d="M177.39,284.86h0a.58.58,0,0,1-.51-.29l-3.07-5.06a.61.61,0,0,1,0-.65l17.46-26.63a.63.63,0,0,1,.5-.28.62.62,0,0,1,.51.27c1.29,1.9,2.78,4,3.16,4.41l.05,0a.62.62,0,0,1,.16.84L177.9,284.58A.61.61,0,0,1,177.39,284.86ZM175,279.21l2.37,3.9,17-25.87c-.44-.52-1.18-1.55-2.57-3.58Z"/><polygon class="cls-4" points="196.66 292.99 177.39 284.25 195.14 257.16 214.41 265.9 196.66 292.99"/><path class="cls-3" d="M196.66,293.6a.54.54,0,0,1-.25-.06l-19.27-8.74a.58.58,0,0,1-.34-.38.59.59,0,0,1,.08-.5l17.75-27.09a.6.6,0,0,1,.76-.22l19.27,8.74a.59.59,0,0,1,.26.88l-17.75,27.09A.61.61,0,0,1,196.66,293.6ZM178.29,284l18.14,8.23,17.08-26.06-18.15-8.23Z"/><polygon class="cls-6" points="204.18 274.77 191.81 268.83 194.12 265.31 206.49 271.24 204.18 274.77"/><polygon class="cls-4" points="199.03 278.15 191.56 274.51 192.9 272.47 200.37 276.11 199.03 278.15"/><path class="cls-2" d="M215.54,123.94s-2.08-4.31-5-10.87c-5.28-11.87-10.62-14.52-13.44-15-4.7-8.89-11.85-16.22-22.9-17.16A8.41,8.41,0,0,0,170,82a1.57,1.57,0,0,1-.78,0c-2.23-.52-1.28-2-1.94-2.87-.35-.5-9.74-6.59-12.61-4.26-1,.82-.61,2.27,1.63,4.06s8.33,4.25,8.33,4.25a18.74,18.74,0,0,0,.93,2.35,8.8,8.8,0,0,0-2.22,6,3.36,3.36,0,0,1-1.72.32c-2.23-.51-1.28-1.94-1.94-2.86-.35-.5-9.74-6.59-12.61-4.26-1,.82-.6,2.27,1.63,4.06S157,93,157,93s3.43,7.58,8,9.87a4.63,4.63,0,0,0,5.77-.84,93.53,93.53,0,0,0,8.55,7.26c-.22,1.87-.1,6.75,4.28,16,3.07,6.49,5.69,11,5.69,11s3,5.85,6.09,4.55c2.7-1.11,3.86-4.35-2.23-7.57-1.63-.87-5-11.4-6.45-16.46a1.17,1.17,0,0,1,.15-1.22,28.13,28.13,0,0,1,3.95,7.28c1.42,3.8,4.49,5.9,5.07,5.68s1.16-3.83,1.16-3.83a9.89,9.89,0,0,0,1.95-.41c.68-.27,1.65-.7,1.65-.7s2.39,2.54,3,2.29c.43-.17.42-1,.61-2.33a20.27,20.27,0,0,0-.12-5.09c-.67-3.08-1.52-6.41-2.61-9.78.31-.07.67.06,1.05.62,3,4.38,8.16,13.64,7.79,15.45-1.38,6.74,2.16,8.63,4.74,7.25C218.11,130.51,215.54,123.94,215.54,123.94Z"/><path d="M199.08,120.57a2.28,2.28,0,0,1-1.18-.38.31.31,0,0,1-.07-.42.32.32,0,0,1,.43-.08,1.41,1.41,0,0,0,1.06.24,1.23,1.23,0,0,0,.74-.72.3.3,0,0,1,.4-.14.3.3,0,0,1,.15.41,1.8,1.8,0,0,1-1.14,1A1.39,1.39,0,0,1,199.08,120.57Z"/><path d="M194,122.41a2.15,2.15,0,0,1-1.13-.35.31.31,0,0,1-.09-.42.29.29,0,0,1,.42-.08,1.54,1.54,0,0,0,1.07.2A1.25,1.25,0,0,0,195,121a.3.3,0,1,1,.55.24,1.79,1.79,0,0,1-1.1,1.09A1.72,1.72,0,0,1,194,122.41Z"/><path d="M195,119.16a.32.32,0,0,1-.21-.08.3.3,0,0,1-.08-.32l.46-1.39a.34.34,0,0,1,.19-.2.32.32,0,0,1,.27,0l1.09.72a.31.31,0,0,1,.13.28.31.31,0,0,1-.18.26l-1.55.67Zm.62-1.22-.12.37.41-.18Z"/><path d="M194.93,117a1.1,1.1,0,0,1-1-.88,1.15,1.15,0,0,1,.14-.87,1,1,0,0,1,.61-.45,1.08,1.08,0,0,1,1.25.86,1.07,1.07,0,0,1-.75,1.32Zm-.08-1.61h-.07a.36.36,0,0,0-.24.18.6.6,0,0,0-.06.42.48.48,0,0,0,.53.4.53.53,0,0,0-.16-1Z"/><path class="cls-3" d="M173.67,93.07a9.14,9.14,0,0,1-3.27-.62c-4.81-1.82-7-9.09-7.06-9.4a.61.61,0,0,1,.41-.76.63.63,0,0,1,.76.42c0,.07,2.09,7,6.32,8.6,6,2.28,9.95-3.39,10-3.45a.6.6,0,0,1,.84-.16.61.61,0,0,1,.17.84C181.79,88.6,178.68,93.07,173.67,93.07Z"/><polygon class="cls-6" points="242.36 295.82 237.05 280.54 271.83 262.1 280.81 287.95 242.36 295.82"/><path class="cls-3" d="M241.82,296l-5.3-15.28a.56.56,0,0,1,.27-.68l34.78-18.44a.55.55,0,0,1,.47,0,.61.61,0,0,1,.33.34l9,25.86a.57.57,0,0,1,0,.46.54.54,0,0,1-.38.28l-38.45,7.86A.57.57,0,0,1,241.82,296Zm-4.07-15.19,5,14.35,37.33-7.63-8.55-24.62Z"/><path class="cls-2" d="M271.55,283.39a.57.57,0,0,1,.81-.68l2.78,1.54a.57.57,0,0,1-.56,1l-2.77-1.54A.53.53,0,0,1,271.55,283.39Z"/><path class="cls-2" d="M253,287.87a.58.58,0,0,1,0-.46.57.57,0,0,1,.77-.22l2.77,1.54a.57.57,0,0,1,.22.77.55.55,0,0,1-.77.22l-2.77-1.54A.53.53,0,0,1,253,287.87Z"/><path class="cls-2" d="M269.14,276.46a.54.54,0,0,1,0-.28l.55-3.36a.57.57,0,0,1,.65-.46.57.57,0,0,1,.47.65l-.55,3.35a.57.57,0,0,1-.65.47A.59.59,0,0,1,269.14,276.46Z"/><path class="cls-2" d="M258.8,283.87a.54.54,0,0,1,0-.28l.55-3.36a.57.57,0,0,1,.65-.46.56.56,0,0,1,.46.65l-.54,3.35a.57.57,0,0,1-.65.47A.59.59,0,0,1,258.8,283.87Z"/><path class="cls-2" d="M260.73,274.24a.56.56,0,0,1,0-.44.55.55,0,0,1,.75-.26l2.06,1a.57.57,0,0,1-.49,1l-2.06-1A.6.6,0,0,1,260.73,274.24Z"/><path class="cls-2" d="M251.47,279.43a.54.54,0,0,1,0-.43.57.57,0,0,1,.76-.27l2.06,1a.57.57,0,1,1-.5,1l-2.06-1A.52.52,0,0,1,251.47,279.43Z"/><path class="cls-2" d="M245.65,286.59s0,0,0,0l-.66-2.67a.57.57,0,0,1,.41-.69.6.6,0,0,1,.69.41l.66,2.67a.57.57,0,0,1-1.08.33Z"/><path class="cls-2" d="M243,291.74a.57.57,0,0,1,0-.49.56.56,0,0,1,.78-.18l2,1.27a.58.58,0,0,1,.17.79.56.56,0,0,1-.78.17l-2-1.27A.59.59,0,0,1,243,291.74Z"/><path class="cls-2" d="M263.62,285.7a.57.57,0,0,1,.27-.69l2.28-1.21a.57.57,0,0,1,.53,1L264.42,286a.57.57,0,0,1-.77-.23A.41.41,0,0,1,263.62,285.7Z"/><path class="cls-2" d="M266,269.09a.57.57,0,0,1,.27-.69l2.28-1.21a.58.58,0,0,1,.77.24.56.56,0,0,1-.24.76l-2.28,1.21a.57.57,0,0,1-.77-.23Z"/><path class="cls-4" d="M277,274.87l.37,1.07c5.86-2.39,14.37-5.66,22.41-8.7,2.07.06,13.18.22,20.07-3.55,5.77-3.15,12.87-8.8,16-11.37.51-.42.16-1-.53-.86-3.36.77-11.91,2.36-18.91,4.45a33.28,33.28,0,0,0-15.78,9.8C292.2,268.88,283.13,272.35,277,274.87Z"/><path class="cls-4" d="M285.4,267.41c-3.19,1.91-6.35,3.81-9.11,5.52l.38,1.1c3.13-1.94,6.79-4.15,10.44-6.32,4.05-.72,12.65-2.65,17.55-6.55s10.56-10.48,13-13.41c.4-.49-.13-1-.78-.71-3.21,1.31-9.77,4.09-16.22,7.41C293.08,258.34,287.12,265.28,285.4,267.41Z"/><path class="cls-4" d="M287.73,274.41c-3.52.67-7.05,1.36-10.23,2l.37,1.08c3-.61,6.25-1.25,9.53-1.88,3.87.51,13.36,1.42,20.69-.69a178,178,0,0,0,20.7-8c.69-.31.53-.89-.23-.84-3.76.23-11.53.8-19.57,1.86C300.58,269.05,291.67,272.67,287.73,274.41Z"/><path class="cls-4" d="M319.42,281.73c-3.24-.76-10-2.23-17.21-3.25-7.69-1.09-17.17.37-21.25,1.12l-2.42-.17.4,1.16,1.19.09c2.84,1.51,10.33,5.08,17.63,4.83,7-.24,17-2,21.41-2.85C319.9,282.52,320.08,281.88,319.42,281.73Z"/><path class="cls-4" d="M275.49,270.64l.17-.2c3.63-1.79,11.48-6.07,14.1-10.74s4.28-11.5,4.94-14.55c.11-.51-.75-.72-1.25-.31a162.14,162.14,0,0,0-12,10.89A29.46,29.46,0,0,0,274.56,268Z"/></g></svg>