<svg xmlns="http://www.w3.org/2000/svg" xmlns:xlink="http://www.w3.org/1999/xlink" viewBox="0 0 423.21 403.97"><defs><style>.cls-1{fill:url(#linear-gradient);}.cls-2{fill:#151e27;}.cls-3{fill:#ef6744;}.cls-4{fill:#f1c4d9;}.cls-5{fill:#fff;}.cls-6{fill:#2755a3;}.cls-7{fill:url(#linear-gradient-2);}.cls-8{fill:url(#linear-gradient-3);}.cls-9{fill:url(#linear-gradient-4);}</style><linearGradient id="linear-gradient" x1="258.02" y1="243.49" x2="258.02" y2="93.46" gradientUnits="userSpaceOnUse"><stop offset="0" stop-color="#ef6744"/><stop offset="0.07" stop-color="#ef755b"/><stop offset="0.21" stop-color="#f08d81"/><stop offset="0.35" stop-color="#f0a1a1"/><stop offset="0.49" stop-color="#f1b0ba"/><stop offset="0.64" stop-color="#f1bbcb"/><stop offset="0.81" stop-color="#f1c2d6"/><stop offset="1" stop-color="#f1c4d9"/></linearGradient><linearGradient id="linear-gradient-2" x1="81.57" y1="211.57" x2="197.7" y2="211.57" gradientUnits="userSpaceOnUse"><stop offset="0" stop-color="#ef6744"/><stop offset="0.02" stop-color="#ef6a49"/><stop offset="0.2" stop-color="#f08a7c"/><stop offset="0.37" stop-color="#f0a3a4"/><stop offset="0.53" stop-color="#f1b5c1"/><stop offset="0.67" stop-color="#f1c0d3"/><stop offset="0.77" stop-color="#f1c4d9"/></linearGradient><linearGradient id="linear-gradient-3" x1="197.74" y1="220.03" x2="288.09" y2="220.03" gradientUnits="userSpaceOnUse"><stop offset="0.28" stop-color="#151e27"/><stop offset="0.39" stop-color="#192a41"/><stop offset="0.58" stop-color="#1f3c6b"/><stop offset="0.75" stop-color="#234a8a"/><stop offset="0.9" stop-color="#26529c"/><stop offset="1" stop-color="#2755a3"/></linearGradient><linearGradient id="linear-gradient-4" x1="68.16" y1="242.35" x2="204.94" y2="242.35" xlink:href="#linear-gradient-2"/></defs><title>Craftwork_illustrations</title><g id="character"><path class="cls-1" d="M354,212.27,253.23,96.55S210.69,82.9,181.4,113c-26.68,27.41-18,63.35-18,63.35l130.18,67.13Z"/><path class="cls-2" d="M242.75,185.72c5.71,1.39,7.55,6.09,8.51,12.38.33,2.14.55,4.46.79,6.9a58.78,58.78,0,0,0,6.5-.7c.83-.13,1.51-.27,2-.37a1.57,1.57,0,0,0,1.2-1.12c.91-3.18,4-14.06,6.2-22.35,2.59-9.82,2.07-15-5.68-18.61s-20.42,8.53-30.24,8.79a45.83,45.83,0,0,1-9.65-.47,1.58,1.58,0,0,0-1.89,1.47c-.24,4.13-.27,13.72,3.66,21.11C229.11,188.22,235.46,183.94,242.75,185.72Z"/><path class="cls-2" d="M67.73,216.84l0-.14a13,13,0,0,0,.42-4.24,10.66,10.66,0,0,0-1-3.9,3.2,3.2,0,0,0-1.64-1.85l-7.64-1.93a1.8,1.8,0,0,0-1.91.69,1.11,1.11,0,0,1-.79.4c-1.24.07-3.42-2.64-3.42-2.64l-11.86-3c-5-1.27-9.47.16-11.95,1.06a1.11,1.11,0,0,0-.14,2,56.66,56.66,0,0,0,5.32,2.43,64.76,64.76,0,0,1,8.6,4.46l.05,0a14.93,14.93,0,0,1,5.7-1.35c2.36,0,7.34,3.26,11.23,6.38S67.73,216.84,67.73,216.84Z"/><path class="cls-3" d="M77.17,217.28a38.39,38.39,0,0,1-9.31-.53l-.08-.05,0,.14s-5.06,1.49-9-1.63-8.87-6.41-11.23-6.38a14.93,14.93,0,0,0-5.7,1.35c5.66,3.21,21.16,12,23,12.94,2.16,1.11,4.16,2.31,5.95,3.27C71.64,225.2,76.9,217.88,77.17,217.28Z"/><path class="cls-2" d="M84.84,188.61l.07-.13a13.08,13.08,0,0,0,1.25-4.07,10.68,10.68,0,0,0-.19-4,3.22,3.22,0,0,0-1.25-2.13l-7.11-3.41a1.79,1.79,0,0,0-2,.3,1.14,1.14,0,0,1-.86.24c-1.23-.18-2.83-3.26-2.83-3.26l-11-5.29c-4.67-2.24-9.32-1.71-11.93-1.32a1.11,1.11,0,0,0-.54,2c1.23,1,3,2.29,4.74,3.43A63.77,63.77,0,0,1,60.71,177l.06,0a15.15,15.15,0,0,1,5.85-.2c2.31.44,6.55,4.65,9.75,8.48S84.84,188.61,84.84,188.61Z"/><path class="cls-3" d="M94,190.91a38.91,38.91,0,0,1-9-2.36l-.07-.07-.07.13s-5.26.46-8.47-3.36-7.44-8-9.75-8.48a15.15,15.15,0,0,0-5.85.2c4.91,4.26,18.37,15.92,20,17.23,1.9,1.52,3.62,3.09,5.19,4.38C87,197.58,93.62,191.43,94,190.91Z"/><polygon class="cls-4" points="328.75 243.78 353.81 211.97 334.4 197.25 317.77 221.81 328.75 243.78"/><path class="cls-5" d="M328.75,244.39h-.06a.59.59,0,0,1-.48-.34l-11-22a.61.61,0,0,1,0-.61l16.63-24.56a.63.63,0,0,1,.41-.26.58.58,0,0,1,.47.12l19.41,14.72a.62.62,0,0,1,.24.4.63.63,0,0,1-.13.46l-25.06,31.81A.6.6,0,0,1,328.75,244.39Zm-10.28-22.53,10.4,20.79L353,212.08l-18.41-14Z"/><polygon class="cls-4" points="288.23 221.91 317.77 221.81 328.75 243.78 293.39 243.53 288.23 221.91"/><path class="cls-5" d="M328.75,244.39h0l-35.37-.25a.61.61,0,0,1-.59-.47l-5.15-21.62a.61.61,0,0,1,.59-.75l29.53-.1h0a.6.6,0,0,1,.54.34l11,22a.61.61,0,0,1-.55.88Zm-34.88-1.46,33.89.24-10.37-20.75-28.38.1Z"/><path class="cls-3" d="M298.76,221.69c-.49-.61-3.25-2.63-8.42-3.36a35,35,0,0,0-9.41,0,11.51,11.51,0,0,0-.74,5.3,11.81,11.81,0,0,0,2.06,5.31h0a16.85,16.85,0,0,1,3.25-.57c1.74-.12,3.33.81,4.18.09s-1.18-2.34-1.18-2.34a16.46,16.46,0,0,1,2.92.12c1.68.21,4.42,2.37,5.26,1.95a1.39,1.39,0,0,0,.6-1.5s1.22.5,1.76-.19c.75-.94,0-2.42,0-2.42S300.21,223.49,298.76,221.69Z"/><path class="cls-6" d="M282.25,228.91a11.81,11.81,0,0,1-2.06-5.31,11.51,11.51,0,0,1,.74-5.3s-11.42-1-17-6.72a39.16,39.16,0,0,1-5.38-7.28,58.78,58.78,0,0,1-6.5.7,94.84,94.84,0,0,0,2.08,13.8c1.43,5.7,6.25,9.27,11.73,11.5a70,70,0,0,0,16.39-1.39Z"/><path class="cls-3" d="M265.32,175.76s-.78,5.47-3.33,8.53a12.64,12.64,0,0,1-6.26,3.83,2.08,2.08,0,0,1-2-.49l-.83-.76s-1.43,3.21-2.12,5.14-6,1.35-7.81-.31a2.24,2.24,0,0,1-.51-3.19l13-12.94a5.27,5.27,0,0,1,5.68-1.35Z"/><path class="cls-2" d="M261.29,180.36l-1.17,2.41-.83-.56a.31.31,0,0,0-.42.09.3.3,0,0,0,.08.42l1.12.75a.34.34,0,0,0,.17.05h.08a.29.29,0,0,0,.2-.16l1.32-2.73a.3.3,0,0,0-.55-.26Z"/><path class="cls-2" d="M258,184.47c-.82-.33-.81-.72-.81-.75a.31.31,0,0,0-.25-.35.3.3,0,0,0-.35.25s-.15.89,1.19,1.42l.11,0a.32.32,0,0,0,.29-.2A.3.3,0,0,0,258,184.47Z"/><path class="cls-2" d="M264.33,178.85a1.8,1.8,0,0,0-1,.3,1.56,1.56,0,0,0-2.22-1.13,1.8,1.8,0,0,0-3.22-.53l-5.66-4.22a.31.31,0,0,0-.43.06.3.3,0,0,0,.06.42l5.77,4.3h0a2.12,2.12,0,0,0-.06.44,1.79,1.79,0,0,0,3.58.17,1.15,1.15,0,0,1,1.08-.09,1.09,1.09,0,0,1,.53.95.29.29,0,0,0,.05.14,1.82,1.82,0,0,0-.29,1,1.8,1.8,0,1,0,1.79-1.8Zm-4.94.84a1.19,1.19,0,0,1,0-2.38,1.19,1.19,0,0,1,0,2.38Zm4.94,2.15a1.19,1.19,0,1,1,1.2-1.19A1.19,1.19,0,0,1,264.33,181.84Z"/><path class="cls-7" d="M137.89,234.05c7.17-3.53,18.46-8.84,29.66-13.08,18.23-6.89,29.79-5.21,30.15-5.16-26.87-13.13-59.19,3.91-63.43.54L97.78,187.29,81.57,203.13l19.76,20.46L122.46,234A17.37,17.37,0,0,0,137.89,234.05Z"/><path class="cls-5" d="M130.18,236.45a18,18,0,0,1-8-1.86L100.9,224,80.72,203.12l17-16.64,36.91,29.39c1.13.9,5.77-.22,11.15-1.51,12.62-3,33.74-8.11,52.17.91l3.58,1.75-3.94-.61c-.47-.07-11.8-1.69-29.84,5.13-11.08,4.19-22.22,9.42-29.61,13.06h0A18.09,18.09,0,0,1,130.18,236.45ZM101.7,223.09l21,10.41a16.93,16.93,0,0,0,14.89,0h0c7.42-3.66,18.59-8.9,29.72-13.11,12.72-4.81,22.21-5.5,27-5.41-17.28-6.89-36.49-2.27-48.24.56-6.62,1.58-10.61,2.54-12.2,1.27L97.83,188.1l-15.4,15.05Z"/><path class="cls-6" d="M231.16,236.79l.23-.28a.78.78,0,0,1,0-.09S231.3,236.55,231.16,236.79Z"/><path class="cls-6" d="M209,252.46l-.21.11Z"/><path class="cls-6" d="M204.27,254.78s1.87-.88,4.54-2.21q-2.15,1.08-4.54,2.18Z"/><line class="cls-4" x1="314.67" y1="225.08" x2="321.48" y2="239.85"/><path class="cls-5" d="M321.48,240.46a.63.63,0,0,1-.56-.35l-6.8-14.78a.6.6,0,0,1,1.1-.5L322,239.6a.61.61,0,0,1-.3.81A.74.74,0,0,1,321.48,240.46Z"/><line class="cls-4" x1="310.25" y1="225.37" x2="316.34" y2="239.56"/><path class="cls-5" d="M316.34,240.17a.61.61,0,0,1-.56-.37l-6.09-14.19a.61.61,0,1,1,1.12-.48l6.09,14.19a.62.62,0,0,1-.32.8A.52.52,0,0,1,316.34,240.17Z"/><line class="cls-4" x1="305.69" y1="225.37" x2="311.34" y2="239.56"/><path class="cls-5" d="M311.34,240.17a.62.62,0,0,1-.57-.38l-5.65-14.2a.61.61,0,0,1,.35-.79.62.62,0,0,1,.79.34l5.64,14.2a.6.6,0,0,1-.34.79A.57.57,0,0,1,311.34,240.17Z"/><line class="cls-4" x1="301.06" y1="225.51" x2="306.41" y2="239.85"/><path class="cls-5" d="M306.41,240.46a.63.63,0,0,1-.57-.39l-5.36-14.34a.61.61,0,1,1,1.15-.43L307,239.64a.61.61,0,0,1-.36.78A.54.54,0,0,1,306.41,240.46Z"/><path class="cls-3" d="M303.22,233.33s.22-1.64-.79-2.3c-.73-.47-1.73.39-1.73.39s-.12-1.1-1.05-1.23-2.83,2.8-4.35,3.54a16.51,16.51,0,0,1-2.72,1.05s1.38-2.18.35-2.59-2.23,1-3.92,1.42a17.31,17.31,0,0,1-3.11.5l2.18,10.45a35.74,35.74,0,0,0,8.72-3c4.67-2.35,6.64-5.15,6.9-5.89C304.49,233.48,303.22,233.33,303.22,233.33Z"/><path class="cls-8" d="M288.08,244.56l-2.18-10.45v-.06s-10.92,0-20-3.75c-5.48-2.23-10.3-5.8-11.73-11.5a94.84,94.84,0,0,1-2.08-13.8c-.24-2.44-.46-4.76-.79-6.9-1-6.29-2.8-11-8.51-12.38-7.29-1.78-13.64,2.5-18.6,7-2.62,2.39-4.84,4.84-6.62,6.53-5.15,4.88-19.79,16.54-19.79,16.54h0s6.5,12.2,7,22a93.06,93.06,0,0,1-.52,17q2.4-1.09,4.54-2.18l.21-.11c4.86-2.44,12.2-6.32,15.88-9.29,4.21-3.4,5.77-5.57,6.26-6.38.14-.24.2-.37.2-.37a.78.78,0,0,0,0,.09c.36.92,4,9.19,19.63,12.51,16.54,3.53,37.07-4.42,37.07-4.42Z"/><path class="cls-5" d="M230.07,231.77a.6.6,0,0,1-.59-.46c-.28-1.11-.52-2.29-.7-3.48-2.35-15.62,2.64-32.44,2.69-32.61a.61.61,0,1,1,1.16.35c0,.17-5,16.74-2.64,32.08.17,1.15.4,2.29.67,3.36a.61.61,0,0,1-.44.74A.39.39,0,0,1,230.07,231.77Z"/><path class="cls-9" d="M204.79,237.78c-.55-9.76-7-22-7-22h0c-.36-.05-11.92-1.73-30.15,5.16-11.2,4.24-22.49,9.55-29.66,13.08a17.37,17.37,0,0,1-15.43,0l-21.13-10.45L80.65,213.35,68.16,232.27l49.41,33.06A35.55,35.55,0,0,0,144,270.71c15.84-3,40-8,47.28-10.66,4.85-1.75,9.17-3.53,13-5.3A93.06,93.06,0,0,0,204.79,237.78Z"/><path class="cls-5" d="M137.29,272a36,36,0,0,1-20.06-6.13L67.32,232.44l13.12-19.87,42.29,20.93a16.93,16.93,0,0,0,14.89,0c7.42-3.66,18.59-8.9,29.72-13.11,18.34-6.93,30-5.26,30.45-5.19l.31,0,.17.27c.27.51,6.58,12.47,7.12,22.22a96.56,96.56,0,0,1-.51,17.09l0,.33-.3.14c-4.07,1.87-8.46,3.66-13.05,5.32-7.79,2.81-33.45,8-47.38,10.68A36.52,36.52,0,0,1,137.29,272ZM69,232.1l48.91,32.72a34.77,34.77,0,0,0,26,5.3c18-3.43,40.47-8.22,47.18-10.64,4.45-1.61,8.7-3.34,12.65-5.14a95.23,95.23,0,0,0,.47-16.53c-.49-8.8-5.86-19.54-6.84-21.43-1.94-.23-12.88-1.15-29.57,5.16-11.08,4.19-22.22,9.42-29.61,13.06a18.14,18.14,0,0,1-16,0L80.87,214.14Z"/></g><g id="other_details" data-name="other details"><polygon class="cls-5" points="288.01 184.02 303.75 164.05 289.52 152.65 279.08 168.07 288.01 184.02"/><path class="cls-4" d="M288,184.63h0a.64.64,0,0,1-.49-.31l-8.93-15.95a.59.59,0,0,1,0-.64L289,152.31a.61.61,0,0,1,.42-.26.57.57,0,0,1,.47.13l14.23,11.39a.6.6,0,0,1,.09.85l-15.73,20A.62.62,0,0,1,288,184.63Zm-8.22-16.53,8.31,14.83,14.79-18.79-13.24-10.6Z"/><path class="cls-6" d="M163.24,149.39l-3.66,2.83a1.72,1.72,0,0,0-.28,2.44L175,174.12a1.7,1.7,0,0,0,2.35.28,100.17,100.17,0,0,1,10.34-7.06,78.19,78.19,0,0,1,11.06-4.62.33.33,0,0,1,.33.06c.32.31,1.39.77,3.14.13a3.06,3.06,0,0,0,2-1.74c.14-.06,7.21-2.83,11.24-3.45,2.16-.33,4.38-.77,6-1.11a1.62,1.62,0,0,0,1-2.5l-7.42-11Z"/><path class="cls-5" d="M212.14,134.81l11.92,18.1s-7.91-.5-11.92.81c-7.63,2.48-11.19,5.89-11.19,5.89s.78-9.75,2.7-14.71S212.14,134.81,212.14,134.81Z"/><path class="cls-4" d="M201,160.21a.75.75,0,0,1-.26-.05.62.62,0,0,1-.35-.6c0-.4.82-9.89,2.74-14.88s8.41-10.13,8.69-10.35a.6.6,0,0,1,.47-.12.62.62,0,0,1,.41.27l11.92,18.1a.64.64,0,0,1,0,.64.62.62,0,0,1-.57.3c-.08,0-7.84-.48-11.69.78-7.38,2.4-10.92,5.71-11,5.75A.6.6,0,0,1,201,160.21ZM212,135.71c-1.56,1.31-6.26,5.46-7.78,9.41-1.43,3.7-2.23,10.21-2.53,13.09A35.91,35.91,0,0,1,212,153.14c3.17-1,8.54-1,10.94-.89Z"/><path class="cls-5" d="M176.75,171.2s5.66-5,10.29-7.31a53.41,53.41,0,0,1,13.87-4.25l-12.92-17s-8.72-1.81-15.81.27a39.85,39.85,0,0,0-13,7.23Z"/><path class="cls-4" d="M176.75,171.81h-.05a.6.6,0,0,1-.42-.22l-17.57-21.08a.61.61,0,0,1,.07-.85A40.07,40.07,0,0,1,172,142.31c7.16-2.1,15.74-.36,16.1-.29a.56.56,0,0,1,.36.23l12.92,17a.62.62,0,0,1,.08.6.6.6,0,0,1-.47.37,53.31,53.31,0,0,0-13.68,4.19c-4.52,2.28-10.11,7.18-10.17,7.23A.59.59,0,0,1,176.75,171.81ZM160,150.2l16.78,20.14a59.67,59.67,0,0,1,10-7,52,52,0,0,1,13-4.13l-12.17-16c-1.39-.25-9.05-1.53-15.29.3A39,39,0,0,0,160,150.2Z"/><path class="cls-5" d="M218.49,139.48s-6.32,4.1-9.82,7.94a53.23,53.23,0,0,0-7.83,12.2l-12.91-17a32,32,0,0,1,4.33-13.45,30.81,30.81,0,0,1,10.25-9.69Z"/><path class="cls-4" d="M200.84,160.23a.63.63,0,0,1-.49-.24l-12.91-17a.65.65,0,0,1-.12-.4,32.3,32.3,0,0,1,4.42-13.74,31.22,31.22,0,0,1,10.48-9.91.6.6,0,0,1,.76.16l16,20a.57.57,0,0,1,.13.47.66.66,0,0,1-.27.42c-.06,0-6.29,4.1-9.7,7.84a53.47,53.47,0,0,0-7.73,12,.6.6,0,0,1-.48.36Zm-12.29-17.82,12.17,16a52,52,0,0,1,7.5-11.44,58.15,58.15,0,0,1,9.38-7.67l-15.24-19.1a30.41,30.41,0,0,0-9.58,9.22A31.66,31.66,0,0,0,188.55,142.41Z"/><polygon class="cls-6" points="256.47 148.55 228.31 142 242.67 101.6 271.02 107.65 256.47 148.55"/><path class="cls-5" d="M256.47,149.16l-.14,0-28.16-6.55a.59.59,0,0,1-.39-.3.58.58,0,0,1,0-.5L242.1,101.4a.61.61,0,0,1,.7-.39l28.35,6a.64.64,0,0,1,.4.3.61.61,0,0,1,0,.51L257,148.75A.61.61,0,0,1,256.47,149.16Zm-27.36-7.6,27,6.27,14.14-39.73-27.14-5.79Z"/><path class="cls-6" d="M248.24,106.51c-.11.25-5.84-4.92-5.84-4.92L228.09,141.8l5.59,5.61Z"/><path class="cls-5" d="M233.68,148a.6.6,0,0,1-.43-.18l-5.59-5.61a.63.63,0,0,1-.15-.64l14.31-40.21a.62.62,0,0,1,1-.25c2.34,2.11,5,4.41,5.57,4.79l.08,0a.62.62,0,0,1,.36.78l-14.55,40.9a.64.64,0,0,1-.44.39Zm-4.89-6.38,4.64,4.66,14.07-39.52c-.7-.49-2-1.62-4.84-4.13Z"/><polygon class="cls-6" points="261.55 152.69 233.68 147.41 248.24 106.51 276.1 111.79 261.55 152.69"/><path class="cls-5" d="M261.55,153.3h-.12L233.57,148a.59.59,0,0,1-.42-.3.62.62,0,0,1,0-.5l14.55-40.9a.62.62,0,0,1,.69-.4l27.86,5.29a.59.59,0,0,1,.46.8l-14.55,40.9A.61.61,0,0,1,261.55,153.3Zm-27.06-6.36L261.15,152l14.14-39.74-26.65-5.05Z"/><polygon class="cls-4" points="265.58 126.58 247.59 122.77 249.48 117.45 267.47 121.26 265.58 126.58"/><polygon class="cls-6" points="287.58 176.02 291.77 170.18 285.89 163.72 282.75 168.69 287.58 176.02"/><polygon class="cls-6" points="292.54 169.11 296.92 162.77 290 156.98 286.52 162.75 292.54 169.11"/><polygon class="cls-5" points="293.92 216.09 318.98 184.28 296.32 166.13 279.69 190.69 293.92 216.09"/><path class="cls-4" d="M293.92,216.7h-.05a.64.64,0,0,1-.48-.31L279.15,191a.61.61,0,0,1,0-.64l16.63-24.56a.61.61,0,0,1,.42-.26.6.6,0,0,1,.47.12l22.66,18.15a.63.63,0,0,1,.1.86L294.4,216.47A.65.65,0,0,1,293.92,216.7Zm-13.52-26L294,215l24.13-30.62L296.45,167Z"/><polygon class="cls-5" points="294.11 208.06 301.82 198.53 292.66 187.21 286.61 195.09 294.11 208.06"/><path class="cls-4" d="M294.11,208.67h-.05a.63.63,0,0,1-.48-.3l-7.5-13a.62.62,0,0,1,0-.68l6.05-7.87a.61.61,0,0,1,.48-.24h0a.63.63,0,0,1,.47.23l9.17,11.31a.62.62,0,0,1,0,.77l-7.72,9.54A.62.62,0,0,1,294.11,208.67Zm-6.77-13.54L294.19,207l6.85-8.46-8.37-10.34Z"/><polygon class="cls-5" points="299.38 190.24 307.23 180.59 301.41 175.56 294.57 184.66 299.38 190.24"/><path class="cls-4" d="M299.38,190.85a.62.62,0,0,1-.46-.21l-4.81-5.58a.62.62,0,0,1,0-.77l6.85-9.1a.58.58,0,0,1,.42-.23.6.6,0,0,1,.46.14l5.82,5a.62.62,0,0,1,.08.85l-7.86,9.64a.59.59,0,0,1-.46.23Zm-4-6.22,4,4.66,7-8.62-4.88-4.22Z"/><path class="cls-4" d="M294.23,208a.61.61,0,0,1-.61-.56l-1.57-20.14a.61.61,0,1,1,1.21-.1l1.58,20.14a.62.62,0,0,1-.56.66Z"/><path class="cls-4" d="M301.82,199.14l-.13,0-15.22-3.44A.61.61,0,0,1,286,195a.61.61,0,0,1,.73-.46L302,197.93a.61.61,0,0,1-.14,1.21Z"/><path class="cls-4" d="M313,186.53a.6.6,0,0,1-.4-.15l-4-3.5a.61.61,0,0,1-.05-.86.61.61,0,0,1,.86-.06l4,3.5a.61.61,0,0,1,.05.86A.6.6,0,0,1,313,186.53Z"/><path class="cls-4" d="M311.11,188.6a.59.59,0,0,1-.41-.16l-3.6-3.21a.61.61,0,0,1,.81-.91l3.6,3.21a.61.61,0,0,1,.05.86A.6.6,0,0,1,311.11,188.6Z"/><path class="cls-4" d="M309.24,190.83a.61.61,0,0,1-.42-.16l-3.61-3.38a.61.61,0,0,1,0-.86.6.6,0,0,1,.86,0l3.61,3.38a.6.6,0,0,1,0,.86A.59.59,0,0,1,309.24,190.83Z"/><path class="cls-2" d="M204.77,263.9c-.85-1.12-2.3-2.13-5.58-.69s-6.07,6.55-4.88,8.45,4.18,2.78,5.76.9a24.67,24.67,0,0,1,4.37-4.63C206.19,266.66,205.38,264.7,204.77,263.9Z"/><ellipse class="cls-6" cx="256.39" cy="274.08" rx="12.01" ry="6.05" transform="translate(-94.3 140.38) rotate(-26.04)"/><path class="cls-4" d="M260.3,273.11c-1.22,2.22-5.36,4.09-7.7,3.12-7.93-3.27-10.11-12.74-10.11-12.74l15.05-6.61S263.14,267.94,260.3,273.11Z"/><ellipse class="cls-6" cx="250.03" cy="260.23" rx="8.22" ry="2.28" transform="translate(-83.5 122.43) rotate(-23.7)"/><path class="cls-4" d="M260.47,268.48l-.78-.94s3.89-3.28,4-6.29a3.14,3.14,0,0,0-1.05-2.47,1.49,1.49,0,0,0-1.25-.49c-1.18.15-2.39,1.74-2.75,2.33l-1-.63c.16-.27,1.67-2.65,3.63-2.9a2.69,2.69,0,0,1,2.25.81,4.35,4.35,0,0,1,1.42,3.39C264.77,264.85,260.65,268.33,260.47,268.48Z"/><path class="cls-2" d="M251.24,261.15s-7.59-11.48-20.05-12.46-12.73,10-14.4,13.05c-3.31,6-10.71,7.59-9.54,13s5.65,7,10.51,6.23,12.65-6,16.55-12.07,5.25-9.54,8.37-9.54S251.24,261.15,251.24,261.15Z"/></g></svg>