<svg xmlns="http://www.w3.org/2000/svg" xmlns:xlink="http://www.w3.org/1999/xlink" viewBox="0 0 423.21 403.97"><defs><style>.cls-1{fill:url(#linear-gradient);}.cls-2{fill:#ef6744;}.cls-3{fill:#151e27;}.cls-4{fill:#2755a3;}.cls-5{fill:url(#linear-gradient-2);}.cls-6{fill:#fff;}.cls-7{fill:url(#linear-gradient-3);}.cls-8{fill:url(#linear-gradient-4);}.cls-9{fill:#f1c4d9;}.cls-10,.cls-11{fill:none;}.cls-10{stroke:#2755a3;stroke-linecap:round;stroke-linejoin:round;}</style><linearGradient id="linear-gradient" x1="-555.73" y1="-90.6" x2="-629.76" y2="123.06" gradientTransform="translate(756.23 -28.41) rotate(-19.11)" gradientUnits="userSpaceOnUse"><stop offset="0" stop-color="#ef6744"/><stop offset="0.07" stop-color="#ef755b"/><stop offset="0.21" stop-color="#f08d81"/><stop offset="0.35" stop-color="#f0a1a1"/><stop offset="0.49" stop-color="#f1b0ba"/><stop offset="0.64" stop-color="#f1bbcb"/><stop offset="0.81" stop-color="#f1c2d6"/><stop offset="1" stop-color="#f1c4d9"/></linearGradient><linearGradient id="linear-gradient-2" x1="2901.67" y1="-198.51" x2="2988.6" y2="-198.51" gradientTransform="matrix(-0.93, 0.36, 0.36, 0.93, 3144.7, -628.72)" gradientUnits="userSpaceOnUse"><stop offset="0.28" stop-color="#151e27"/><stop offset="0.39" stop-color="#192a41"/><stop offset="0.58" stop-color="#1f3c6b"/><stop offset="0.75" stop-color="#234a8a"/><stop offset="0.9" stop-color="#26529c"/><stop offset="1" stop-color="#2755a3"/></linearGradient><linearGradient id="linear-gradient-3" x1="2864.21" y1="-2717.46" x2="2998.89" y2="-2717.46" gradientTransform="translate(-843.84 -3630.71) rotate(119.19)" xlink:href="#linear-gradient-2"/><linearGradient id="linear-gradient-4" x1="1023.74" y1="415.46" x2="1114.55" y2="415.46" gradientTransform="translate(-651.38 -574.63) rotate(24.85)" xlink:href="#linear-gradient-2"/></defs><title>Craftwork_illustrations</title><g id="background"><path class="cls-1" d="M235.24,243c1.63-7.86-1-22.51,14.47-36.47,13-11.76,64-31,51.36-86.35s-66.36-63.84-118.82-39c-47.48,22.49-80.38,62.2-82.24,112.33-1.64,43.9,12.26,79.81,47.65,95.38C178.69,302.55,225.56,289.66,235.24,243Z"/></g><g id="character"><path class="cls-2" d="M308,330c1.21-1.67,1.39-6.9,1.13-11.27s3.39-7.24,3.39-7.24h0l.24-.41-7.86,1.79a.15.15,0,0,0,0,.07c-1.13,8.16-1,21.89-1,22.45.12-1.18.17-2,.17-2A13.33,13.33,0,0,0,308,330Z"/><path class="cls-3" d="M303.43,347.82a17.73,17.73,0,0,0,6.82-8c2.51-6.5,3.87-10,3.87-10s-.83-2.94-.15-3.79a1,1,0,0,1,.69-.36c.81-.14,1.25-.42,1.46-1l2.49-6.45a2.78,2.78,0,0,0-.48-2.12,9.36,9.36,0,0,0-2.29-2.67,10.71,10.71,0,0,0-3.36-1.89h0s-3.64,2.87-3.39,7.24.08,9.6-1.13,11.27a13.33,13.33,0,0,1-3.91,3.41s-.05.81-.17,2a46.11,46.11,0,0,1-1,6.42,50.09,50.09,0,0,0-1,5.05A1,1,0,0,0,303.43,347.82Z"/><path class="cls-2" d="M399.81,230.53c-2.06,0-6.44,2.85-9.86,5.57s-7.87,1.41-7.87,1.41h0l-.47,0,6,5.4.07,0c7.31-3.79,18.45-11.83,18.9-12.16-1,.59-1.72,1-1.72,1A13.26,13.26,0,0,0,399.81,230.53Z"/><path class="cls-3" d="M417,224a17.62,17.62,0,0,0-10.47-1l-10.41,2.61s-1.92,2.37-3,2.31a1,1,0,0,1-.7-.36,1.58,1.58,0,0,0-1.67-.61l-6.7,1.69c-.68.19-1.15,1-1.45,1.61a9.46,9.46,0,0,0-.87,3.42,10.75,10.75,0,0,0,.4,3.83h0s4.44,1.32,7.87-1.41,7.8-5.6,9.86-5.57a13.26,13.26,0,0,1,5,1.22s.69-.42,1.72-1a47.27,47.27,0,0,1,5.83-2.88,49,49,0,0,0,4.68-2.12A1,1,0,0,0,417,224Z"/><path class="cls-4" d="M381.61,237.53l0,0-1.55,0C380.73,237.56,381.26,237.55,381.61,237.53Z"/><path class="cls-4" d="M387.6,242.93l-6-5.4c-.35,0-.88,0-1.58,0l-1.89,0a57.81,57.81,0,0,1-9.87-1.2c-5-.94-11.84-2.48-20.43-4.88A37.66,37.66,0,0,0,317.9,236s3.31-4.17,7.27-14,12-19,5-34.64c-6.05-13.56-18.51-14.47-18.51-14.47s-12.07,9.65-16.78,36.4c-3,17.29-.61,42.9,3.46,46.62s17.19,6.29,43.66,2.93A119.21,119.21,0,0,0,387.64,243Z"/><path class="cls-5" d="M302.86,253.17c-.22-3.1-.31-6.33-.36-8.55a118.32,118.32,0,0,1,1-26.71c4.67-26.75,5.7-29.43,5.7-29.43s21.32-13.42,21.39-13.5c10.37-11.48,13.78-1.91,15.48,2.78,6.47,17.8-8.33,43-12.27,52.83-3.29,8.17-1.25,32.47-10,62.5-3.66,12.55-10.36,19.87-10.72,20.08-2.31,1.31-8.31-.53-8.31-.53S303.72,265.53,302.86,253.17Z"/><path class="cls-6" d="M310.67,314.25a23.72,23.72,0,0,1-6.05-1l-.42-.13v-.44c0-.47-1.09-47.24-1.94-59.44h0c-.21-3.12-.31-6.39-.36-8.57a118.18,118.18,0,0,1,1-26.83c4.63-26.51,5.69-29.44,5.73-29.55l.07-.19.17-.11c7.05-4.44,20.35-12.81,21.32-13.44,3.84-4.24,7.07-6,9.88-5.49,3.75.74,5.5,5.57,6.55,8.46,5.48,15.06-3.87,35.11-9.46,47.09-1.14,2.46-2.13,4.58-2.8,6.24-1.25,3.12-1.73,8.91-2.34,16.25-1,11.77-2.3,27.88-7.63,46.19-3.7,12.69-10.52,20.16-11,20.44A5.73,5.73,0,0,1,310.67,314.25Zm-5.27-2.07c1.86.52,5.84,1.36,7.41.46.72-.59,7-7.92,10.44-19.72,5.3-18.19,6.62-34.23,7.59-46,.64-7.73,1.1-13.32,2.42-16.61.68-1.69,1.68-3.82,2.83-6.29,5.5-11.81,14.72-31.58,9.44-46.1-1-2.71-2.59-7.14-5.66-7.74-2.33-.45-5.29,1.28-8.8,5.16-.07.09-.12.14-21.33,13.48-.27.93-1.56,6-5.61,29.15a116.36,116.36,0,0,0-1,26.56c0,2.21.14,5.45.36,8.54h0C304.28,264.71,305.28,307.33,305.4,312.18Z"/><path class="cls-2" d="M250.34,152.58a6.65,6.65,0,0,1,2,4.82,9.44,9.44,0,0,1-1.13,5.12,32.66,32.66,0,0,1-8.77-.39c-4.79-.86-7.29-2.85-7.73-3.44-1.27-1.74-.18-2.21-.18-2.21s-.62-1.41.1-2.26c.53-.62,1.65-.11,1.65-.11s-.18-1,.62-1.38,3.27,1.76,4.83,2a15.76,15.76,0,0,0,2.71.23s-1.81-1.59-1-2.23,2.26.29,3.89.24A15.75,15.75,0,0,0,250.34,152.58Z"/><path d="M44.45,293.36l-10.88,6.09,9,48.75,11.24-.58a138.88,138.88,0,0,0,6-25.35,55.17,55.17,0,0,0,.45-12.85Z"/><path class="cls-6" d="M58.15,313.28h0c-.08,0-2.1-.08-5.49-2.46-3.73-2.63-4.44-5.22-4.47-5.33a.61.61,0,0,1,1.18-.31s.67,2.31,4,4.64c3,2.14,4.81,2.24,4.83,2.24a.62.62,0,0,1,.58.63A.61.61,0,0,1,58.15,313.28Z"/><path class="cls-6" d="M57,317.92h0c-.08,0-2.1-.07-5.49-2.46-3.73-2.62-4.44-5.21-4.47-5.32a.61.61,0,0,1,1.18-.31s.67,2.3,4,4.63c3,2.15,4.81,2.24,4.83,2.24a.62.62,0,0,1,.58.63A.61.61,0,0,1,57,317.92Z"/><path class="cls-6" d="M55.94,322.56h0c-.09,0-2.1-.07-5.5-2.46-3.73-2.62-4.44-5.21-4.47-5.32a.61.61,0,0,1,1.18-.31s.67,2.3,4,4.64c3,2.14,4.81,2.24,4.83,2.24a.61.61,0,0,1,0,1.21Z"/><path class="cls-6" d="M55.08,327.2h0c-.08,0-2.09-.08-5.49-2.46-3.73-2.63-4.44-5.21-4.47-5.32a.62.62,0,0,1,.44-.75.61.61,0,0,1,.74.44s.67,2.29,4,4.63c3,2.14,4.81,2.24,4.83,2.24a.61.61,0,0,1,.58.63A.6.6,0,0,1,55.08,327.2Z"/><path class="cls-2" d="M35.7,298.24l8.23,43.53a2.94,2.94,0,0,0,2.63,2.38l8.12.72-1,3a2.28,2.28,0,0,1-2.2,1.59l-8,0a2.3,2.3,0,0,1-2.24-1.8l-9.93-45.07a2.31,2.31,0,0,1,1.12-2.51Z"/><path class="cls-7" d="M114.57,216s-5.59,6.81-14.27,24.64c-5.48,11.24-9.83,22-9.83,22l-46,30.74,15.8,16.06,50.25-28.29a31.49,31.49,0,0,0,12.88-13.21l32.91-59.12Z"/><path class="cls-6" d="M66.92,303.75a.59.59,0,0,1-.44-.19L54.51,291a.59.59,0,0,1,0-.86.6.6,0,0,1,.86,0l12,12.58a.6.6,0,0,1-.44,1Z"/><path d="M121.39,286l-11,6.71,30.67,39.83,9.46-6.08a137.73,137.73,0,0,0-7.35-25,55.33,55.33,0,0,0-6-11.37Z"/><path class="cls-6" d="M135.25,298.53a19.06,19.06,0,0,1-1.91-.09c-4.54-.43-6.44-2.32-6.52-2.4a.6.6,0,0,1,0-.86.61.61,0,0,1,.86,0s1.72,1.66,5.76,2c3.71.35,5.29-.45,5.31-.45a.61.61,0,1,1,.57,1.07A9.29,9.29,0,0,1,135.25,298.53Z"/><path class="cls-6" d="M136.58,303.12a19.06,19.06,0,0,1-1.91-.09c-4.55-.42-6.45-2.32-6.53-2.4a.61.61,0,1,1,.87-.85c.05,0,1.75,1.66,5.77,2,3.7.35,5.29-.44,5.3-.45a.61.61,0,0,1,.82.25.6.6,0,0,1-.24.82A9.29,9.29,0,0,1,136.58,303.12Z"/><path class="cls-6" d="M138,307.69c-.57,0-1.21,0-1.91-.1-4.54-.42-6.45-2.31-6.53-2.39a.62.62,0,0,1,0-.87.61.61,0,0,1,.86,0s1.74,1.66,5.77,2c3.71.35,5.29-.44,5.3-.45a.61.61,0,0,1,.82.26.59.59,0,0,1-.24.81A9,9,0,0,1,138,307.69Z"/><path class="cls-6" d="M139.5,312.14c-.57,0-1.21,0-1.91-.09-4.54-.43-6.45-2.32-6.52-2.4a.61.61,0,0,1,.86-.86s1.73,1.67,5.77,2c3.71.35,5.29-.44,5.31-.45a.61.61,0,0,1,.57,1.08A9.29,9.29,0,0,1,139.5,312.14Z"/><path class="cls-2" d="M110.45,292.67l28.61,33.56a3,3,0,0,0,3.47.76l7.41-3.41.65,3.1a2.3,2.3,0,0,1-1.12,2.47l-6.95,3.93a2.31,2.31,0,0,1-2.84-.45l-31.8-35.38c-.68-.76-1.45-1.79-.26-2.73Z"/><path class="cls-8" d="M151.65,211.21s40.49,13.79,45.63,29.52-60.1,49.32-60.1,49.32L121.39,286s5.5-9.23,16.75-20.79a164.89,164.89,0,0,1,17.32-15.26s-17.81-1.11-33-7.83c-13.14-5.82-15.41-22.36-9.36-30.73s11.52-10.81,11.52-10.81Z"/><path class="cls-6" d="M137.25,290.69l-16.8-4.33.41-.7a128.69,128.69,0,0,1,16.85-20.9,166.71,166.71,0,0,1,16.13-14.36c-4.72-.46-19.13-2.22-31.63-7.76a21.36,21.36,0,0,1-12.09-14.3c-1.69-6.24-.74-12.89,2.48-17.34,6.07-8.41,11.54-10.9,11.77-11l.23-.11,27.26,10.75c1.86.64,40.84,14.11,46,29.9,5.23,16-57.72,48.67-60.41,50Zm-14.91-5.1,14.76,3.81c1.94-1,17.2-9,31.72-18.63,20.24-13.39,29.88-23.71,27.88-29.85-5-15.26-44.84-29-45.24-29.13h0l-26.79-10.56c-1.07.55-5.86,3.31-11.06,10.5-3,4.16-3.88,10.41-2.29,16.31a20.22,20.22,0,0,0,11.41,13.5c14.93,6.61,32.62,7.77,32.79,7.78l1.66.11-1.33,1a165.06,165.06,0,0,0-17.24,15.2A133.22,133.22,0,0,0,122.34,285.59Z"/><path class="cls-6" d="M160.21,249.21a.61.61,0,0,1-.16-1.2l7.2-1.89a.61.61,0,0,1,.31,1.18l-7.2,1.89Z"/><path class="cls-6" d="M164,253.44h-.13l-4.49-1a.61.61,0,1,1,.26-1.19l4.49,1a.62.62,0,0,1,.46.73A.6.6,0,0,1,164,253.44Z"/><path class="cls-6" d="M159.62,213.2s5.12-37.26,6.22-48.8-3.9-21.16-9.8-22.21-16.79-2-16.79-2-12.68-4-18.16,13.57S110,210.61,110,210.61a32.08,32.08,0,0,0,28.24,4.94A61.32,61.32,0,0,1,159.62,213.2Z"/><path class="cls-9" d="M310.58,125.16c-13.36-17.37-29-2-29-2a49.21,49.21,0,0,1-5.17,1.78c-5.29,1.13-8.77,7.39-9.44,14.73C253.64,153.05,248,153,248,153l2.89,9.58s8.15,1.49,22.52-2.67c.11.1.2.21.3.32a28.15,28.15,0,0,1,2.36,2.77,50.75,50.75,0,0,1-7.8,3.81,95.06,95.06,0,0,1-28.52,5.92l1.82,9.79s5.26,2.34,22.66,2.07A76.58,76.58,0,0,0,286.88,181c4.1,7.91,7.18,14.81,7.18,14.81a57.68,57.68,0,0,1,20.84-5.52c29.3-2,39.36-39.59,39.36-39.59S325.35,144.36,310.58,125.16Z"/><path class="cls-2" d="M242.4,172.54a6.69,6.69,0,0,1,1.28,5.05,9.33,9.33,0,0,1-1.82,4.91,32.3,32.3,0,0,1-8.63-1.58c-4.63-1.52-6.83-3.83-7.18-4.48-1-1.89.12-2.21.12-2.21s-.43-1.48.41-2.22c.61-.55,1.65.12,1.65.12s0-1,.8-1.28,3,2.19,4.51,2.66a15.28,15.28,0,0,0,2.65.59s-1.58-1.82-.69-2.34,2.2.59,3.82.77A15.32,15.32,0,0,0,242.4,172.54Z"/><path class="cls-2" d="M273.65,107.68c-5-1.19-5,7.49-5,7.49h0q.06.42.15.81a12.42,12.42,0,0,0,3.87,6,2,2,0,0,0,1.93.4l1-.31s.35,1.22.52,2.1c.34,1.79,2.15,1.87,3.84,1a7.63,7.63,0,0,0,2.14-2l0,0a9.7,9.7,0,0,1-2.48-1.5C276.46,119.1,278.45,108.82,273.65,107.68Z"/><path class="cls-3" d="M339.15,62.69c-16.4-14.72-38.24-7.16-46.3.87-7.24,7.22-4,15.58-5.88,20.12s-3.27,7.51-10.37,7.45-11.76,2.88-13.36,9.65c-2.19,9.19,5.2,14.28,5.35,14.38h0s.06-8.68,5-7.49c4.8,1.14,2.81,11.42,5.94,14a9.7,9.7,0,0,0,2.48,1.5c5.51,2.16,9.67-4.09,15.43-6.6,3-1.32,6.46,1.23,11.48-1.92,8.79-5.52,8.81-19.14,18.65-16.1C340.64,102.55,361.13,82.4,339.15,62.69Z"/><path d="M270.73,116.56a.32.32,0,0,1-.2-.08.28.28,0,0,1-.1-.23l0-2.73c0-.17.11-.28.31-.3a.31.31,0,0,1,.3.31l0,2.37.95-.13a.3.3,0,0,1,.08.6l-1.3.19Z"/><path d="M272.36,119h-.25a.31.31,0,0,1-.28-.32.3.3,0,0,1,.33-.28c.88.06,1-.3,1-.31a.3.3,0,0,1,.38-.19.3.3,0,0,1,.2.36S273.55,119,272.36,119Z"/><path d="M273.45,113.44a1.69,1.69,0,0,1-.93-.29.31.31,0,0,1,.35-.5h0a1.06,1.06,0,0,0,.73.16,1.24,1.24,0,0,0,.77-.59.3.3,0,1,1,.5.34,1.78,1.78,0,0,1-1.17.85Z"/><line class="cls-10" x1="313.73" y1="184.53" x2="315.2" y2="181.15"/><line class="cls-10" x1="283.35" y1="174.56" x2="284.81" y2="171.18"/><line class="cls-10" x1="339.02" y1="170.46" x2="335.35" y2="170.13"/><line class="cls-10" x1="293.97" y1="165.85" x2="296.92" y2="163.64"/><line class="cls-10" x1="300.77" y1="125.92" x2="298.07" y2="123.43"/><line class="cls-10" x1="305.68" y1="135.51" x2="309.36" y2="135.27"/><line class="cls-10" x1="291.4" y1="130.65" x2="294.34" y2="128.44"/><line class="cls-10" x1="302.11" y1="174.9" x2="299.84" y2="173.49"/><line class="cls-10" x1="333.51" y1="177.42" x2="334.26" y2="179.99"/><line class="cls-10" x1="293.64" y1="177.58" x2="290.75" y2="177.57"/><line class="cls-10" x1="303.2" y1="187.47" x2="303.18" y2="184.58"/><line class="cls-10" x1="320.42" y1="175.36" x2="319.36" y2="172.91"/><line class="cls-10" x1="312.4" y1="172.57" x2="309.65" y2="173.43"/><line class="cls-10" x1="326.32" y1="181.45" x2="324.71" y2="183.84"/><line class="cls-10" x1="342.63" y1="162.41" x2="340.28" y2="161.13"/><line class="cls-10" x1="332.99" y1="162.5" x2="331.34" y2="164.87"/><line class="cls-10" x1="350.01" y1="152.8" x2="350.22" y2="155.68"/><line class="cls-10" x1="298.91" y1="152.54" x2="295.77" y2="151.22"/><line class="cls-10" x1="342.86" y1="154.98" x2="339.57" y2="155.86"/><line class="cls-10" x1="288.01" y1="156.93" x2="286.06" y2="159.99"/><line class="cls-10" x1="326.36" y1="152.74" x2="324.41" y2="155.8"/><line class="cls-10" x1="306.48" y1="161.85" x2="306.21" y2="158.45"/><line class="cls-10" x1="315.72" y1="161.4" x2="312.11" y2="161.07"/><line class="cls-10" x1="296.67" y1="188.06" x2="295.1" y2="184.79"/><line class="cls-10" x1="285.47" y1="135.18" x2="282.33" y2="133.86"/><line class="cls-10" x1="329.75" y1="146.76" x2="326.61" y2="145.44"/><line class="cls-10" x1="317.15" y1="153.9" x2="314.01" y2="152.58"/><line class="cls-10" x1="262.34" y1="173.62" x2="259.24" y2="175.5"/><line class="cls-10" x1="287.3" y1="144.42" x2="288.53" y2="141.46"/><line class="cls-10" x1="315.14" y1="143.41" x2="316.38" y2="140.45"/><line class="cls-10" x1="280.44" y1="145.15" x2="278.63" y2="142.48"/><line class="cls-10" x1="287.25" y1="124.18" x2="284.29" y2="125.45"/><line class="cls-10" x1="275.49" y1="170.52" x2="273.68" y2="167.85"/><line class="cls-10" x1="271.44" y1="147.56" x2="269.63" y2="144.89"/><line class="cls-10" x1="309.08" y1="146.92" x2="307.27" y2="144.24"/><line class="cls-10" x1="327.9" y1="172.33" x2="327.06" y2="169.24"/><line class="cls-10" x1="300.68" y1="138.57" x2="298.87" y2="135.9"/><line class="cls-10" x1="251.87" y1="176.75" x2="250.85" y2="179.81"/><line class="cls-10" x1="273.87" y1="176.78" x2="276.4" y2="178.78"/><line class="cls-10" x1="265.47" y1="177.22" x2="264.44" y2="180.28"/><line class="cls-10" x1="265.8" y1="152.14" x2="263" y2="154.44"/><line class="cls-10" x1="275.64" y1="134.62" x2="272.84" y2="136.92"/><line class="cls-10" x1="255.89" y1="156.72" x2="255.3" y2="159.89"/><line class="cls-10" x1="269.41" y1="155.26" x2="268.82" y2="158.43"/><line class="cls-10" x1="277.83" y1="156.63" x2="276.02" y2="153.95"/><rect class="cls-6" x="159.79" y="138.1" width="53.99" height="47.84" transform="translate(-26.51 36.94) rotate(-10.55)"/><path class="cls-4" d="M164.63,191.09a.62.62,0,0,1-.6-.5l-8.76-47a.62.62,0,0,1,.1-.46.61.61,0,0,1,.39-.25L208.84,133a.61.61,0,0,1,.71.49l8.76,47a.6.6,0,0,1-.1.45.59.59,0,0,1-.39.26l-53.08,9.88Zm-8-47.16,8.54,45.84L217,180.1l-8.54-45.83Z"/><polygon class="cls-6" points="208.95 133.56 221.69 119.24 229.31 160.14 217.71 180.59 208.95 133.56"/><path class="cls-4" d="M217.71,181.2h-.1a.62.62,0,0,1-.5-.49l-8.76-47a.64.64,0,0,1,.14-.52l12.74-14.31a.59.59,0,0,1,.62-.18.6.6,0,0,1,.44.47L229.9,160a.54.54,0,0,1-.07.41l-11.59,20.45A.61.61,0,0,1,217.71,181.2Zm-8.11-47.46,8.4,45.1L228.67,160l-7.35-39.45Z"/><polygon class="cls-6" points="155.87 143.44 169.99 128.7 221.61 119.09 208.95 133.56 155.87 143.44"/><path class="cls-4" d="M155.87,144.05a.61.61,0,0,1-.44-1l14.12-14.74a.67.67,0,0,1,.33-.18l51.62-9.61a.59.59,0,0,1,.64.29.62.62,0,0,1-.07.71L209.41,134a.69.69,0,0,1-.35.2L156,144Zm14.43-14.79L157.62,142.5l51-9.5L220,120Z"/><path class="cls-4" d="M220.45,150a.61.61,0,0,1-.49-.25l-11.5-15.86a.61.61,0,0,1,1-.72l10.47,14.44L221,119.06a.59.59,0,0,1,.64-.58.6.6,0,0,1,.58.63l-1.16,30.33a.6.6,0,0,1-.43.56A.57.57,0,0,1,220.45,150Z"/><path class="cls-4" d="M217.71,181.2a.62.62,0,0,1-.61-.6l-.68-35.92a.61.61,0,0,1,.6-.62.59.59,0,0,1,.62.6l.68,35.92a.62.62,0,0,1-.6.62Z"/><path class="cls-4" d="M229.3,160.75a.6.6,0,0,1-.55-.36l-8.51-18.71a.62.62,0,0,1,.3-.81.62.62,0,0,1,.81.3l8.51,18.72a.6.6,0,0,1-.3.8A.62.62,0,0,1,229.3,160.75Z"/><polygon class="cls-2" points="182.01 134.49 177.16 139.3 178.75 147.82 184.68 146.72 183.09 138.2 188.31 133.31 182.01 134.49"/><path class="cls-6" d="M129,141.4c-8.39,3.54-17.81,23.5-4.75,39.2,13.45,16.17,32.75,18.93,52.06,16.91,11.7-1.23,15.8-4.09,15.8-4.09l-1.86-9.78s-4.8,1.35-20.34-2.14c-11.75-2.63-22.73-11.38-25.49-14.44-5.07-5.62.67-23.4.67-23.4S140,136.77,129,141.4Z"/><path class="cls-4" d="M186.12,184.32c-37.31,0-46.77-25.71-46.86-26a.6.6,0,0,1,.37-.78.62.62,0,0,1,.78.37c.08.26,9.31,25.16,45.71,25.16h.38a.61.61,0,0,1,0,1.21Z"/><path class="cls-2" d="M190.14,183.67a6.69,6.69,0,0,0-.56,5.18,9.33,9.33,0,0,0,2.5,4.6,32.51,32.51,0,0,0,8.32-2.79c4.36-2.15,6.22-4.75,6.47-5.44.75-2-.43-2.17-.43-2.17s.21-1.53-.72-2.15c-.68-.45-1.62.36-1.62.36s-.1-1-1-1.16-2.66,2.59-4.08,3.28a15.18,15.18,0,0,1-2.55,1s1.31-2,.35-2.42-2.09.9-3.67,1.3A15.28,15.28,0,0,1,190.14,183.67Z"/><path class="cls-4" d="M242.55,173.24a.61.61,0,0,1,0-1.21c41.63-2.18,51.56-31.49,51.65-31.79a.61.61,0,0,1,1.16.37c-.1.31-10.24,30.41-52.74,32.63Z"/><path class="cls-11" d="M150.5,124.82s-.06-.12-.17-.29Z"/><path class="cls-2" d="M153.18,128.27l-.11-2.64s-1.89.23-2.57-.81l-.17-.29c-.68-1.14-3.33-5.09-5.39-1.64a10.5,10.5,0,0,0-1.77,6.41c.19,1.72.92,2.36.56,3.93a.29.29,0,0,1,0,.1c-.3,1-1.49,1.76-2,2.13l-.14.43-1.47,4.43s.67,1.69,3.4,1.92a4,4,0,0,0,3.4-1.3l1.29-4.86c2-.51,5.26-1.94,6.13-3.15C155.27,131.55,153.18,128.27,153.18,128.27Z"/><path d="M141.78,135.08l-.1.3C141.77,135.24,141.83,135.13,141.78,135.08Z"/><path d="M141.68,135.38l-.05.1,0,0Z"/><path d="M150.55,119c-1.83-2-3.18-.36-3.18-.36s-.93-3.89-3.42-4.14-3.88,3.07-3.88,3.07a6.25,6.25,0,0,0-6.2,1.28c-2.63,2.58-.52,7.87-.52,7.87s-2.68.91-1.93,4.49c1.12,5.36,8.27,5.68,10.09,4.38l.15-.1c.55-.37,1.74-1.09,2-2.13a.29.29,0,0,0,0-.1c.36-1.57-.37-2.21-.56-3.93a10.5,10.5,0,0,1,1.77-6.41c2.06-3.45,4.71.5,5.39,1.64.11.17.17.29.17.29S152.39,121,150.55,119Z"/><path d="M151.24,130.5a1.26,1.26,0,0,1-.66-.18.31.31,0,0,1,.35-.5s.49.29,1.17-.36a.3.3,0,1,1,.42.44A1.87,1.87,0,0,1,151.24,130.5Z"/><path d="M145.93,127.72a.31.31,0,0,1-.3-.27,7.78,7.78,0,0,1,.08-2.14c.37-1.89,1.3-2,1.41-2h0a.29.29,0,0,1,.3.3.3.3,0,0,1-.29.31s-.56.11-.82,1.45a7.38,7.38,0,0,0-.08,2,.31.31,0,0,1-.26.34Z"/><path d="M147.87,127.24a.29.29,0,0,1-.3-.29,1.21,1.21,0,0,1,1-1.34c.16,0,.31.12.32.29a.3.3,0,0,1-.28.32c-.48,0-.48.64-.47.71a.3.3,0,0,1-.3.31Z"/></g><g id="other_details" data-name="other details"><path class="cls-2" d="M260.72,297.67a2.83,2.83,0,0,0,0,.29l0-.29Z"/><path class="cls-2" d="M298.67,347.35a20.34,20.34,0,0,0,.08-2.12c-.4-22.51-23.37-44.56-24.68-46.61a3.9,3.9,0,0,1-.19-.35h-.05l.41,1.34s-2.17,1.46-6.63,1.39a13.93,13.93,0,0,1-6.81-2.08c.57,8.52,2.23,33.86,1.81,36.86-.5,3.61-1.21,8.09-2,8.88-4.8,4.8-4,8-4,8l10.24-.22a2.9,2.9,0,0,0-.85,3.73s19.14-.4,22-.4a14.92,14.92,0,0,0,6.38-1c-.1.31-.21.62-.34.95-1.32,3.14-6.62,3.57-9.59,3.56a.54.54,0,0,0-.26,1c2.65,1.41,8.12,3.49,12.46-.87C300.31,355.72,299.53,350.37,298.67,347.35Z"/><path class="cls-4" d="M260.8,298.92h0c0-.35,0-.68-.06-1Z"/><path class="cls-4" d="M273.83,298.28l-.6-1.9-1.27.06c-3.55,2.14-8.82,1.9-11.4-1.91l0,0,.2,3.16,0,.29c0,.29,0,.62.06,1a13.93,13.93,0,0,0,6.81,2.08c4.46.07,6.63-1.39,6.63-1.39Z"/><path class="cls-2" d="M272.84,283.06a14.77,14.77,0,0,1-1.53-9.5l-3.41-2.21a7.17,7.17,0,0,0-5.3,6.66,17.61,17.61,0,0,1-.92,4.67c-1.55,1.14-1.7-5-1.81-6.12s-.55-.9-.87-.67-.3,3.06-.15,5.39c.52,8.07-.37,8.05.55,10.69a8.49,8.49,0,0,0,1.16,2.56c2.58,3.81,7.85,4.05,11.4,1.91a7,7,0,0,0,3.55-5.29C275.82,288,275.06,287,272.84,283.06Z"/><path class="cls-3" d="M279.17,320.16c2.53,5,4.67,6.78,6.61,8.13,1.67,1.17,5.81.68,4.52-2.82s-3.62-5.07-5.28-9.42c-1.06-2.8-2.81-5.48-4.1-5.11S276.64,315.17,279.17,320.16Z"/><path class="cls-3" d="M294.57,328s-2.85.82-.76,6.94,4.75,7.32,4.75,7.32a31.83,31.83,0,0,0-1.4-7.37A59.15,59.15,0,0,0,294.57,328Z"/><path class="cls-3" d="M267,271.68s2.93-1.42,4.11-.11-.54,3.6-1.52,4a2,2,0,0,1-2.51-1.31A4.66,4.66,0,0,1,267,271.68Z"/><path d="M268.85,285.61a.31.31,0,0,1-.29-.2,3,3,0,0,1,0-2.72,1.43,1.43,0,0,1,1.14-.54.31.31,0,0,1,0,.61h0a.81.81,0,0,0-.63.3c-.19.28-.34.87.11,2.15a.31.31,0,0,1-.19.39Z"/><path class="cls-3" d="M270.86,288.64a.43.43,0,0,1,.39-.54,4.37,4.37,0,0,1,4.61,3c1.31,3.14,2.6,7.46,3,8.9a2.79,2.79,0,0,1,.09,1.25,3.81,3.81,0,0,1-3.41,3.35c-1.8.28-5.24-.82-5.59-3.88s.52-8,.83-9.51A6.53,6.53,0,0,0,270.86,288.64Z"/><rect class="cls-9" x="221.23" y="289.64" width="26.93" height="65.44"/><path class="cls-4" d="M231.82,284.34a41.76,41.76,0,0,0-1.82-9.25,5.39,5.39,0,0,0,.95-2.68c.21-2-1.27-5.54-3-8.78a7.18,7.18,0,0,0,2.75.3,60,60,0,0,1,1.64,10.57,119,119,0,0,1,.27,15.14h3.5c.6-6,1.92-15.27,4.79-21.92a62.87,62.87,0,0,0,4.58-14.34,5.76,5.76,0,0,0,1.68-.9c5.29-4,4.74-10.94,4.34-13.41a1.19,1.19,0,0,0-1.05-1,1.23,1.23,0,0,1-.61-2.18l1-.79a1.21,1.21,0,0,0,.43-1.23,49.51,49.51,0,0,0-3.41-9.77,125.7,125.7,0,0,0-6.54-11.83,1.24,1.24,0,0,0-.92-.57l-1.5-.15.91-2.31a1.19,1.19,0,0,0,0-1c-.26-.57-.77-1.64-1.54-3.12s-2.17-4-3.18-5.82a1.23,1.23,0,0,0-2.19.09,18.43,18.43,0,0,0-1.33,4.08c-.64,3.32-.37,4.56-1.12,12.13a114.62,114.62,0,0,0-.62,11.54,1.22,1.22,0,0,0,.77,1.12l1.63.66-1,.72a1.21,1.21,0,0,0-.46,1.25c.35,1.58,1.23,5.4,2.36,9.3s4.92,11.87,9.56,13.21a62.74,62.74,0,0,1-4.32,13.21,56.23,56.23,0,0,0-3.12,10.23c0-.84-.11-1.71-.18-2.59a60.29,60.29,0,0,0-2-11.9,11.75,11.75,0,0,0,2.77-10.71c-1.86-7.16-11.15-19-16.59-22.82s-6.77-5.45-6.77-5.45-1.06,2.13-2,1.6-1.33-3.19-2.25-3.45-6.77-4.52-7.83-3.19.13,7.7,6.76,14.73,8.9,8,10.62,15c.33,1.33.71,2.63,1.14,3.88-4.59-2.28-9.54-6.43-12.29-8.39a31.88,31.88,0,0,0-4.91-2.74,1.23,1.23,0,0,0-1.73,1.34,36.34,36.34,0,0,0,3.46,9.36c3.85,7.56,6.5,8,10.48,12.61s5.18,8.22,9.42,11a6.69,6.69,0,0,0,4.14,1.34,42.06,42.06,0,0,1,1.51,8.12c.19,1.88.35,3.54.47,5h2.76C232.19,288.09,232,286.34,231.82,284.34Z"/><path class="cls-4" d="M273.53,240.83a25,25,0,0,0-11.43,7.09c-3.52,3.79-9.09,6.68-11.06,7.64a1,1,0,0,0-.55,1.13l.57,2.72-1.76-1a1,1,0,0,0-1.25.21c-1.44,1.6-5.34,6.19-6.86,10.54-1.06,3-.81,5,0,6.43a50.54,50.54,0,0,0-2.94,7.48c-.69,2.26-1.26,4.47-1.75,6.54h2.82c.44-1.84.95-3.78,1.55-5.74a49.63,49.63,0,0,1,2.38-6.21l.34.2c1.79,1,5.88-.15,8-.85a1,1,0,0,0,.5-1.58l-2.85-3.9,3.85,3a1,1,0,0,0,1.43-.16c2-2.53,8.62-10.83,12.45-17.94,3.16-5.89,6.19-11.35,7.76-14.15A1,1,0,0,0,273.53,240.83Z"/><path class="cls-6" d="M244.39,252.78h0a.27.27,0,0,1-.25-.29c.83-9.82-1-15-5.13-25.9-4-10.48-5.4-26.07-5.41-26.23a.26.26,0,0,1,.24-.29.28.28,0,0,1,.3.24c0,.16,1.4,15.68,5.38,26.09,4.18,10.94,6,16.2,5.16,26.14A.27.27,0,0,1,244.39,252.78Z"/><path class="cls-6" d="M231.31,262a.27.27,0,0,1-.25-.18c0-.09-3.72-9.42-6.45-16.71s-6.5-10.6-12.1-13.92-11.44-11.52-11.49-11.6a.26.26,0,0,1,.06-.37.27.27,0,0,1,.38.06c.06.08,5.79,8.17,11.32,11.45,5.71,3.37,9.55,6.78,12.33,14.19s6.42,16.61,6.45,16.71a.27.27,0,0,1-.15.35Z"/><path class="cls-6" d="M228.09,275a.25.25,0,0,1-.21-.1,50.38,50.38,0,0,1-5-7.07c-1.21-2.15-5.6-9.53-11.34-14.09-5-4-10.36-11.16-10.42-11.23a.28.28,0,0,1,.44-.33c.05.08,5.34,7.17,10.32,11.13,5.81,4.62,10.25,12.08,11.48,14.26a49,49,0,0,0,4.92,7,.26.26,0,0,1,0,.38A.23.23,0,0,1,228.09,275Z"/><path class="cls-6" d="M242.49,276.54l-.08,0a.26.26,0,0,1-.18-.34c.08-.24,2-5.9,9.19-12.11a100.36,100.36,0,0,0,14.23-15.41l.25-.33c2.3-3,7.33-6.7,7.54-6.85a.26.26,0,0,1,.38.06.26.26,0,0,1-.06.37c-.05,0-5.18,3.82-7.43,6.75l-.25.33a101.27,101.27,0,0,1-14.31,15.5c-7.11,6.09-9,11.8-9,11.86A.29.29,0,0,1,242.49,276.54Z"/><rect class="cls-4" x="221.22" y="292.9" width="26.94" height="1.08"/><rect class="cls-4" x="221.22" y="296.54" width="26.94" height="1.08"/></g></svg>