<svg xmlns="http://www.w3.org/2000/svg" xmlns:xlink="http://www.w3.org/1999/xlink" viewBox="0 0 423.21 403.97"><defs><style>.cls-1{fill:#ef6744;}.cls-2{fill:#151e27;}.cls-3{fill:url(#linear-gradient);}.cls-4{fill:url(#linear-gradient-2);}.cls-5{fill:#fff;}.cls-6{fill:url(#linear-gradient-3);}.cls-7{fill:url(#linear-gradient-4);}.cls-8{fill:url(#linear-gradient-5);}.cls-9{fill:none;stroke:#fff;stroke-linecap:round;stroke-linejoin:round;}.cls-10{fill:#2755a3;}</style><linearGradient id="linear-gradient" x1="-816.44" y1="-1737.97" x2="-791.49" y2="-1737.97" gradientTransform="matrix(0.6, -0.76, 0.8, 0.57, 2078.54, 485.43)" gradientUnits="userSpaceOnUse"><stop offset="0.07" stop-color="#ef6744"/><stop offset="0.25" stop-color="#f08777"/><stop offset="0.43" stop-color="#f0a1a1"/><stop offset="0.58" stop-color="#f1b4c0"/><stop offset="0.72" stop-color="#f1c0d2"/><stop offset="0.81" stop-color="#f1c4d9"/></linearGradient><linearGradient id="linear-gradient-2" x1="-768.76" y1="-1812.91" x2="-711.84" y2="-1812.91" gradientTransform="translate(1963.79 946.07) rotate(-43.75)" gradientUnits="userSpaceOnUse"><stop offset="0.28" stop-color="#151e27"/><stop offset="0.39" stop-color="#192a41"/><stop offset="0.58" stop-color="#1f3c6b"/><stop offset="0.75" stop-color="#234a8a"/><stop offset="0.9" stop-color="#26529c"/><stop offset="1" stop-color="#2755a3"/></linearGradient><linearGradient id="linear-gradient-3" x1="-56.52" y1="-3665.18" x2="15.84" y2="-3665.18" gradientTransform="matrix(0.1, -1, 1, 0.1, 3918.5, 481)" gradientUnits="userSpaceOnUse"><stop offset="0.07" stop-color="#ef6744"/><stop offset="0.21" stop-color="#ef7052"/><stop offset="0.46" stop-color="#f08878"/><stop offset="0.81" stop-color="#f1adb5"/><stop offset="1" stop-color="#f1c4d9"/></linearGradient><linearGradient id="linear-gradient-4" x1="-671.92" y1="-2561.41" x2="-563.08" y2="-2561.41" gradientTransform="translate(2748.46 933.34) rotate(-60.46)" xlink:href="#linear-gradient"/><linearGradient id="linear-gradient-5" x1="-634.79" y1="-3247.57" x2="-478.2" y2="-3247.57" gradientTransform="translate(3414.53 702.47) rotate(-70.78)" xlink:href="#linear-gradient-2"/></defs><title>Craftwork_illustrations</title><g id="character"><path class="cls-1" d="M231.16,186.43s-6.75,33.82-15.24,45.73c-12.5,17.53-26.08,16.94-26.08,16.94s-5.08-32.18-2.37-44,16.59-37.26,16.59-37.26l12.88-.34Z"/><rect class="cls-2" x="195.74" y="103.33" width="15.38" height="26.92" rx="0.97" transform="translate(22.61 -32.64) rotate(9.71)"/><rect class="cls-3" x="197.14" y="105.55" width="12.8" height="21.26" rx="0.81" transform="translate(22.51 -32.66) rotate(9.71)"/><path class="cls-4" d="M175.37,172.47c25.55-11.2,29.24-34.79,29.24-34.79l-8.83-2.38S183.53,146.39,172,147.15c-5,.33-23-9.47-28,4.56C141.2,159.59,165.45,176.82,175.37,172.47Z"/><path class="cls-1" d="M195.48,135.59s1,1.75,4.43,2.46,4.65-.07,4.65-.07,2.43-5.22,2.12-6.95c0-.13-7.81-1.82-7.81-1.82s-1.59-3.06-2.42-2.33-.32,2.87-.24,4.61A12.56,12.56,0,0,1,195.48,135.59Z"/><path class="cls-5" d="M202.55,119.11h0a.59.59,0,0,1-.52-.34l-1.68-3.54a.61.61,0,0,1,1.11-.52l1.18,2.5,3.41-5.75a.61.61,0,1,1,1,.62l-4,6.74A.62.62,0,0,1,202.55,119.11Z"/><path class="cls-6" d="M234.21,180.33c3-2.85,6.36-14.11,6.36-14.11a33,33,0,0,0,8.33,2.09c8.89.81,24.92,0,35.77-9.34,21.24-18.27,31.86-31.51,31.86-31.51l.16-10.2s-22.48,6.84-52.62,15.93c-25,7.55-35.82,9.48-40.23,14.27C217.68,154.15,225.22,189,234.21,180.33Z"/><path class="cls-1" d="M178.66,80.88l-5.72,1.5s-4.21-12.81-5.21-17.92,0-8.36.42-9c1.23-1.95,2.13-1,2.13-1s1.16-1.17,2.29-.78c.82.28.75,1.6.75,1.6a.9.9,0,0,1,1.33-.12c.67.66,0,4.1.15,5.79a13.58,13.58,0,0,0,.76,3.35s5.16-2.7,5.92,1.75c.19,1.09-3.92-.67-2.74,3.15C180.9,76.14,178.66,80.88,178.66,80.88Z"/><path class="cls-1" d="M246.54,229.61s5.36,9.17,5.63,18-1.54,24-1.54,24l-7.1-7.46.7-19a19.21,19.21,0,0,0-5.14-12.08c-3.67-4-.69-2.8-.69-2.8Z"/><path class="cls-2" d="M244.23,245.19s3.54,3.46,2.77,8.07-1.17,10.2-.07,12.11a14.07,14.07,0,0,0,3.76,4.07,60.63,60.63,0,0,0,.29,9.08,52.72,52.72,0,0,1,.45,5.46,1,1,0,0,1-1.73.82,18.91,18.91,0,0,1-6.34-9.29l-3-11.07s1.22-3,.59-4a1.05,1.05,0,0,0-.69-.46c-.85-.23-1.28-.59-1.44-1.24l-1.91-7.14a3,3,0,0,1,.76-2.19,10.06,10.06,0,0,1,2.73-2.58A11.43,11.43,0,0,1,244.23,245.19Z"/><path class="cls-7" d="M162.4,235.54S174,255.72,193.54,248c25.22-10,19.27-38.28,14.94-53.2-3.48-12-1.91-17.3-1.91-17.3a44.41,44.41,0,0,0,11.79,33.71c14.24,15,21.2,24.64,23,28.27l1.82,3.63,9.52,3.51a147.46,147.46,0,0,0-9-56.56c-11.06-29.47-21-41.73-27.09-43.94S185,161,173.48,178.19C152.44,209.54,162.4,235.54,162.4,235.54Z"/><path class="cls-5" d="M184.77,250.33c-14.41,0-22.8-14.31-22.9-14.49l0-.08c-.1-.26-9.83-26.66,11.14-57.91,11.49-17.11,37.06-34.76,43.85-32.34,3.76,1.35,14,8.38,27.45,44.3a149.37,149.37,0,0,1,9.06,56.82l-.06.8-10.5-3.87-1.93-3.84c-1.93-3.85-9.09-13.52-22.92-28.13a43.28,43.28,0,0,1-7-9.88c5.46,24.41-.29,40.14-17.13,46.81A24.19,24.19,0,0,1,184.77,250.33ZM163,235.28A34.36,34.36,0,0,0,171,244.2c6.9,5.25,14.4,6.32,22.3,3.19,18-7.13,22.76-24.29,14.57-52.46-3.49-12-2-17.42-1.9-17.64l1.19.25c0,.18-2.24,18.57,11.62,33.21s21.16,24.5,23.13,28.42l1.72,3.42,8.51,3.14a149.4,149.4,0,0,0-9-55.49c-13.68-36.44-23.92-42.57-26.73-43.59-5.62-2-31,14.79-42.42,31.88C153.76,208.66,162.51,234.06,163,235.28Z"/><path class="cls-1" d="M150.84,139.77l-3.14-3.23.86-.8a2.2,2.2,0,0,0,.68-2,13.28,13.28,0,0,0-3.44-6.83c-.21-.2-.43-.39-.66-.58v0s-8-4.66-9.64.58c-1.55,5.05,6,7.66,6.68,11.92,0,.14,0,.27,0,.41l2.95,3.94a12.17,12.17,0,0,0,3.23-1.39A11,11,0,0,0,150.84,139.77Z"/><path class="cls-2" d="M142.18,138.86c-.65-4.26-8.23-6.87-6.68-11.92,1.61-5.24,9.64-.58,9.64-.58v0c0-.19-.7-9.75-10.34-12.72-7.11-2.19-12.36.5-16.14,7.07s-7.29,6.27-12.48,5.51S95,118,84.47,120.71c-11.78,3.08-30.57,19.09-25.91,42.18,6.24,30.92,35.9,23,39.25,8.81,2.54-10.71,15.09-3.34,24.94-8.45,5.63-2.91,5.13-7.45,8-9.53,6.11-4.44,12.61-5.55,11.47-14.45C142.2,139.13,142.2,139,142.18,138.86Z"/><path d="M144.11,130.31a.33.33,0,0,1-.19-.06.31.31,0,0,1,0-.43l.66-.82-2.23-1.28a.31.31,0,0,1,.31-.53l2.53,1.46a.29.29,0,0,1,.14.2.28.28,0,0,1-.06.25l-.87,1.1A.32.32,0,0,1,144.11,130.31Z"/><path d="M145.31,132.77a.65.65,0,0,1-.16,0,.29.29,0,0,1-.22-.37.3.3,0,0,1,.36-.22s.45.05.86-.79a.31.31,0,0,1,.41-.14.3.3,0,0,1,.14.41C146.21,132.63,145.6,132.77,145.31,132.77Z"/><path d="M139.32,130.7a.3.3,0,0,1-.31-.28.31.31,0,0,1,.29-.33,1.36,1.36,0,0,0,1-.39,1.19,1.19,0,0,0,.25-.77.3.3,0,0,1,.6-.06,1.7,1.7,0,0,1-.38,1.22,2,2,0,0,1-1.42.61Z"/><path class="cls-1" d="M178.66,80.88s3.69-5.72,4.34-8.57.08-4.6-.92-5.52c-.29-.27-1.26-.5-1.37,1s-2.08,3.94-2.41,3.72S178.66,80.88,178.66,80.88Z"/><path class="cls-8" d="M171.77,82.33s-1,27.06-14.27,48.79c-12.31,20.17-17.67,7.39-23.87,17s2.4,25.21,4.16,32.06c15.41,60.06,32.67,63.57,32.67,63.57s-12.35-41.18,4-65.06c11.86-17.31,1.55-24.31,1.55-24.31s6.23-5.25,10.54-34.51c4.9-33.22-6.56-38.61-6.56-38.61Z"/><path class="cls-9" d="M145.44,164.39s23.16,6.48,36.09-20.06"/><path class="cls-10" d="M252.4,217.11h-.08a.62.62,0,0,1-.53-.68l4.83-40.79a.61.61,0,1,1,1.21.14L253,216.57A.61.61,0,0,1,252.4,217.11Z"/><path class="cls-10" d="M277.06,307.21a.61.61,0,0,1-.61-.6,17.55,17.55,0,0,0-17.53-17.54H181c-31.67,0-38.37-.5-38.37-15.09,0-13.25,2.86-16.48,14.58-16.48H228a.61.61,0,0,1,.61.61.61.61,0,0,1-.61.61H157.22c-11.61,0-13.37,3.43-13.37,15.26,0,13,4.67,13.88,37.16,13.88h77.91a18.77,18.77,0,0,1,18.75,18.75A.6.6,0,0,1,277.06,307.21Z"/><path class="cls-10" d="M159.3,321a12.21,12.21,0,1,1,12.21-12.2A12.21,12.21,0,0,1,159.3,321Zm0-23.19a11,11,0,1,0,11,11A11,11,0,0,0,159.3,297.83Z"/><polygon class="cls-5" points="159.98 292.72 159.98 309.6 172.12 292.72 159.98 292.72"/><path class="cls-10" d="M160,310.2a.63.63,0,0,1-.19,0,.6.6,0,0,1-.42-.57V292.72a.61.61,0,0,1,.61-.61h12.14a.6.6,0,0,1,.54.33.58.58,0,0,1,0,.63L160.47,310A.6.6,0,0,1,160,310.2Zm.61-16.87v14.38l10.34-14.38Z"/><path class="cls-10" d="M249.63,321a12.21,12.21,0,1,1,12.21-12.2A12.21,12.21,0,0,1,249.63,321Zm0-23.19a11,11,0,1,0,11,11A11,11,0,0,0,249.63,297.83Z"/><polygon class="cls-5" points="250.31 292.72 250.31 309.6 262.45 292.72 250.31 292.72"/><path class="cls-10" d="M250.31,310.2l-.19,0a.6.6,0,0,1-.42-.57V292.72a.61.61,0,0,1,.61-.61h12.14a.6.6,0,0,1,.54.33.6.6,0,0,1,0,.63L250.81,310A.63.63,0,0,1,250.31,310.2Zm.61-16.87v14.38l10.34-14.38Z"/><path class="cls-10" d="M143.05,227.5a.57.57,0,0,1-.55-.42.64.64,0,0,1,.42-.78c1-.32,67.26-.11,87.56,0a.61.61,0,0,1,0,1.22h0c-29.44-.11-85.56-.25-87.25,0A.62.62,0,0,1,143.05,227.5Z"/><path class="cls-10" d="M272.86,227.49H253.41a.61.61,0,0,1-.61-.61.61.61,0,0,1,.61-.61h19.45a.6.6,0,0,1,.6.61A.61.61,0,0,1,272.86,227.49Z"/><path class="cls-10" d="M207.63,200.44H138a.61.61,0,0,1-.61-.61.61.61,0,0,1,.61-.61h69.62a.61.61,0,0,1,.61.61A.61.61,0,0,1,207.63,200.44Z"/><path class="cls-10" d="M278.33,200.44H247.76a.61.61,0,0,1-.61-.61.61.61,0,0,1,.61-.61h30.57a.61.61,0,0,1,.61.61A.62.62,0,0,1,278.33,200.44Z"/><path class="cls-10" d="M235.8,252.7h-88a.6.6,0,0,1-.6-.5l-14.79-76.68a.65.65,0,0,1,.13-.5.62.62,0,0,1,.47-.22h73.71a.61.61,0,0,1,0,1.22h-73l14.55,75.46H235.8a.61.61,0,1,1,0,1.22Z"/><path class="cls-10" d="M268.16,252.7H253.3a.61.61,0,1,1,0-1.22h14.36l14.67-75.2H239.41a.61.61,0,0,1-.61-.61.61.61,0,0,1,.61-.61h43.66a.59.59,0,0,1,.47.22.58.58,0,0,1,.13.5l-14.91,76.43A.6.6,0,0,1,268.16,252.7Z"/><path class="cls-10" d="M166.2,251.9a.61.61,0,0,1-.6-.53l-9.73-75.59a.61.61,0,0,1,1.21-.15l9.73,75.58a.62.62,0,0,1-.53.68Z"/><path class="cls-10" d="M189.05,251.9a.62.62,0,0,1-.61-.55l-7.11-75.59a.61.61,0,0,1,.55-.66.62.62,0,0,1,.66.55l7.11,75.58a.6.6,0,0,1-.55.66Z"/><path class="cls-10" d="M210.2,251.9a.61.61,0,0,1-.61-.58l-2.74-51.24a.61.61,0,0,1,1.21-.07l2.75,51.25a.61.61,0,0,1-.58.64Z"/><path class="cls-10" d="M231.26,252.51a.61.61,0,0,1-.61-.6L230.18,227a.6.6,0,0,1,.6-.62h0a.61.61,0,0,1,.61.59l.47,24.89a.63.63,0,0,1-.6.62Z"/><path class="cls-10" d="M133,176a.6.6,0,0,1-.59-.48l-1.4-6.17-27,.12h0a.61.61,0,0,1,0-1.22l27.5-.12h0a.59.59,0,0,1,.59.47l1.51,6.66a.6.6,0,0,1-.45.72Z"/><path class="cls-2" d="M325.1,121.7l.08.13A12.66,12.66,0,0,0,328,125a10.51,10.51,0,0,0,3.53,1.93,3.17,3.17,0,0,0,2.47,0l6.61-4.29a1.79,1.79,0,0,0,.79-1.87,1.14,1.14,0,0,1,.24-.85c.79-1,4.27-.72,4.27-.72l10.26-6.65c4.34-2.82,6.31-7.06,7.34-9.49a1.11,1.11,0,0,0-1.39-1.49,57.64,57.64,0,0,0-5.41,2.26,64.88,64.88,0,0,1-9.11,3.28l0,0a15,15,0,0,1-2.88,5.1c-1.58,1.75-7.38,3.16-12.31,3.9S325.1,121.7,325.1,121.7Z"/><path class="cls-1" d="M316.51,127.48c2.34-3.2,8.57-5.62,8.57-5.62l.1,0-.08-.13s2.35-4.73,7.29-5.47,10.73-2.15,12.31-3.9a15,15,0,0,0,2.88-5.1c-6.19,2-23.16,7.38-25.14,8.1-2.28.83-3.86,1.26-5.78,1.93C316.67,117.26,316.52,127.48,316.51,127.48Z"/></g></svg>