<svg xmlns="http://www.w3.org/2000/svg" xmlns:xlink="http://www.w3.org/1999/xlink" viewBox="0 0 423.21 403.97"><defs><style>.cls-1{fill:url(#linear-gradient);}.cls-2{fill:#ef6744;}.cls-3{fill:#151e27;}.cls-4{fill:url(#linear-gradient-2);}.cls-5{fill:url(#linear-gradient-3);}.cls-6{fill:#2755a3;}.cls-7{fill:url(#linear-gradient-4);}.cls-8{fill:#fff;}.cls-11,.cls-9{fill:none;}.cls-10{fill:#f1c4d9;}.cls-11{stroke:#fff;stroke-linecap:round;stroke-linejoin:round;}</style><linearGradient id="linear-gradient" x1="146.46" y1="163.67" x2="280.94" y2="86.02" gradientUnits="userSpaceOnUse"><stop offset="0.07" stop-color="#ef6744"/><stop offset="0.25" stop-color="#f08777"/><stop offset="0.43" stop-color="#f0a1a1"/><stop offset="0.58" stop-color="#f1b4c0"/><stop offset="0.72" stop-color="#f1c0d2"/><stop offset="0.81" stop-color="#f1c4d9"/></linearGradient><linearGradient id="linear-gradient-2" x1="48.05" y1="149.09" x2="208.18" y2="149.09" gradientUnits="userSpaceOnUse"><stop offset="0.28" stop-color="#151e27"/><stop offset="0.39" stop-color="#192a41"/><stop offset="0.58" stop-color="#1f3c6b"/><stop offset="0.75" stop-color="#234a8a"/><stop offset="0.9" stop-color="#26529c"/><stop offset="1" stop-color="#2755a3"/></linearGradient><linearGradient id="linear-gradient-3" x1="112.08" y1="204.57" x2="205.56" y2="204.57" xlink:href="#linear-gradient-2"/><linearGradient id="linear-gradient-4" x1="12.52" y1="251.67" x2="2470.02" y2="251.67" gradientUnits="userSpaceOnUse"><stop offset="0.08" stop-color="#151e27"/><stop offset="0.09" stop-color="#1b2f4e"/><stop offset="0.11" stop-color="#21447c"/><stop offset="0.13" stop-color="#255098"/><stop offset="0.14" stop-color="#2755a3"/></linearGradient></defs><title>Craftwork_illustrations</title><g id="background"><path class="cls-1" d="M201.53,225a14.75,14.75,0,0,1-22.19-4.34c-20.93-37.93-69.48-136.29-22.29-156,28-11.74,45.55,5.76,53.75,17.85a10.28,10.28,0,0,0,14.32,2.71c12-8.17,34.42-17.82,56,3.51C317.5,124.63,235.26,197.65,201.53,225Z"/></g><g id="character"><path class="cls-2" d="M116.92,228.83s-.88,1.9-9.06,3l0,.06L115.85,253a8.67,8.67,0,0,0,1.75-.24l2.54-.64a30.23,30.23,0,0,1-.42-9.23c.41-2.89,3-7.1,3-7.1Z"/><path class="cls-3" d="M103.46,235l4.24,15.84h0s5,23.49,14.28,20.62.23-19.81.23-19.81l-2.06.52-2.54.64a8.67,8.67,0,0,1-1.75.24l-7.95-21.11,0-.06a1.43,1.43,0,0,0-1-.65h0A3,3,0,0,0,103.46,235Z"/><path class="cls-2" d="M108.67,146.35c-4.39,0-3.6-6-5.61-7.54l0,.07L85.92,153.6a8.57,8.57,0,0,0,.83,1.55l1.48,2.17a30.19,30.19,0,0,1,8.51-3.57c2.85-.61,5.35-.05,7.49.21A68.53,68.53,0,0,0,108.67,146.35Z"/><path class="cls-3" d="M98.62,135.76l-13.43,9.42h0S64.87,158,70.73,165.66s18.69-6.59,18.69-6.59l-1.19-1.75-1.48-2.17a8.57,8.57,0,0,1-.83-1.55L103,138.88l0-.07a1.47,1.47,0,0,0,.28-1.13h0A3,3,0,0,0,98.62,135.76Z"/><path class="cls-4" d="M194.94,139.06c.45-.41.9-.81,1.35-1.19.71-.61,1.38-1.15,2-1.65h0a21.78,21.78,0,0,0-2.57-2.06c-4.3-2.95-7.26-2.72-7.26-2.72s-5.21-.74-6.55,2.49a2.11,2.11,0,0,0-.12.43h0A49.46,49.46,0,0,1,189,112.87c2.55-4.12,6.56-7.15,10.86-9.39-2.39-1-15-5.66-26.82,1-13.18,7.44-17.9,15.06-22.48,30.55-2.86,9.68-6.21,21.69-8.32,28.92a1,1,0,0,1-1.86.3c-2.62-3.92-9.09-9.18-14.4-13.23-7.22-5.53-14.22-10.39-14.22-10.39L101,160l34,32.19.49.46a16.79,16.79,0,0,0,24-.9l21-23.09c.12-.75.24-1.49.38-2.25C183.18,153.54,188.75,144.8,194.94,139.06Z"/><path class="cls-5" d="M180.56,168.63l-21,23.09a16.79,16.79,0,0,1-24,.9l-.49-.46c-10.06,13.65-23,30.87-23,30.87l14.51,17.49s27.23-21.64,42.42-37.86c3.34-3.57,7-7.39,10.63-11.19C178.61,183.49,179.29,176.36,180.56,168.63Z"/><path class="cls-3" d="M201.13,264.37l1.58,16.32h0s1.13,24,10.7,22.68,3.48-19.5,3.48-19.5l-2.12.17-2.61.21a8.62,8.62,0,0,1-1.76,0L206,262.08l0-.07a1.43,1.43,0,0,0-.85-.8h0A3,3,0,0,0,201.13,264.37Z"/><path class="cls-3" d="M236.24,299.22l9.34,13.49h0s12.69,20.41,20.4,14.6-6.47-18.73-6.47-18.73l-1.76,1.18-2.18,1.46A8.61,8.61,0,0,1,254,312l-14.61-17.18-.07-.05a1.39,1.39,0,0,0-1.13-.28h0A3,3,0,0,0,236.24,299.22Z"/><path class="cls-2" d="M215.38,260.66c-2.27,3.3-7.14.38-9.4,1.35l0,.07,4.38,22.13a8.62,8.62,0,0,0,1.76,0l2.61-.21a30.39,30.39,0,0,1,1.1-9.17c.84-2.65,2.81-4.76,4.1-6.46a45.76,45.76,0,0,1-2.61-3.91A34.55,34.55,0,0,1,215.38,260.66Z"/><path class="cls-6" d="M256.27,238.86c-8.4.07-15.46-.17-21.37-.6-2,1.28-4.14,2.63-6.28,4C217.89,249.36,214,254,214,254s-.56,2.14,1.37,6.65a34.55,34.55,0,0,0,2,3.84,45.76,45.76,0,0,0,2.61,3.91,54.59,54.59,0,0,0,4,4.81s20.57-10,35.53-18.14a217.26,217.26,0,0,1,14.61-17.78S262.51,238.8,256.27,238.86Z"/><path class="cls-2" d="M247,288.93h0c0,4.39-6.1,3.87-7.65,5.87l.07.05L254,312a8.61,8.61,0,0,0,1.56-.82l2.18-1.46a29.68,29.68,0,0,1-3.51-8.54c-.59-2.82,0-5.27.24-7.4-.78-.45-1.62-1-2.56-1.55C249.92,291,248.31,289.92,247,288.93Z"/><path class="cls-2" d="M247,288.93c1.33,1,2.94,2.09,4.93,3.33.94.59,1.78,1.1,2.56,1.55,0,0,0-.06,0-.09A72.22,72.22,0,0,0,247,288.93Z"/><path class="cls-7" d="M301.92,217a104.14,104.14,0,0,0-28-8.63c-7-1.12-12.74-1.73-17.29-2,.13.44.3.91.49,1.42a14.38,14.38,0,0,0,2.55,4s-9.19,7-24.39,7.23c-2.42,0-4.68,0-6.79-.08-7.52,7.25-15,14.64-16.23,15.83,4,1.16,11.18,2.67,22.66,3.49,5.91.43,13,.67,21.37.6,6.24-.06,17.82-1.56,17.82-1.56a217.26,217.26,0,0,0-14.61,17.78,213.41,213.41,0,0,0-17.7,27.82c-.35.66.57,2.58,5.2,6,1.33,1,2.94,2.09,4.93,3.33.94.59,1.78,1.1,2.56,1.55a36.49,36.49,0,0,0,6.37,3.22s34.31-37.67,43.32-53.22a84.54,84.54,0,0,0,4.55-8.94A13.8,13.8,0,0,0,301.92,217Z"/><path class="cls-8" d="M228,266.6a.59.59,0,0,1-.35-.12,24.32,24.32,0,0,1-5.41-6.33,23.46,23.46,0,0,1-3.55-7.95.6.6,0,0,1,.49-.7.61.61,0,0,1,.71.49,22.86,22.86,0,0,0,3.37,7.5,23.71,23.71,0,0,0,5.1,6,.62.62,0,0,1,.14.85A.61.61,0,0,1,228,266.6Z"/><path class="cls-8" d="M265.37,288.78a.46.46,0,0,1-.23,0C252.28,283.42,248,277.57,248,277.52a.61.61,0,0,1,1.06-.6c.12.16,4.52,5.71,16.57,10.69a.6.6,0,0,1,.33.79A.59.59,0,0,1,265.37,288.78Z"/><path class="cls-8" d="M141.37,176.21a.61.61,0,0,1-.61-.57l-.53-7.57a.6.6,0,0,1,.56-.65.59.59,0,0,1,.65.56l.53,7.57a.6.6,0,0,1-.56.65Z"/><path class="cls-8" d="M145.35,171.29a.62.62,0,0,1-.53-.31,18.25,18.25,0,0,0-2-3,.64.64,0,0,1-.4-.18.6.6,0,0,1,0-.86.77.77,0,0,1,.6-.2c.26,0,.86.11,2.88,3.65a.6.6,0,0,1-.23.83A.61.61,0,0,1,145.35,171.29Z"/><path class="cls-8" d="M108.53,162.17a.59.59,0,0,1-.29-.07.61.61,0,0,1-.25-.83l6.8-12.67a.61.61,0,1,1,1.07.58l-6.8,12.67A.61.61,0,0,1,108.53,162.17Z"/><path class="cls-8" d="M131.27,233.34a.6.6,0,0,1-.46-.21l-12.36-14.21a.61.61,0,0,1,.06-.86.6.6,0,0,1,.86.06l12.36,14.21a.61.61,0,0,1-.06.86A.62.62,0,0,1,131.27,233.34Z"/><path class="cls-2" d="M263.86,134.79c-.88-5.43-9.5-1.91-9.5-1.91v0a10.47,10.47,0,0,0-1.26.75,14.33,14.33,0,0,0-3.94,4.08,2.2,2.2,0,0,0-.11,2.11l.51,1.06s-1.23.57-2.13.89c-1.85.67-2.08,2.16-.93,3.81a6.72,6.72,0,0,0,2.75,1.74l.21.08,7-3.22C258.83,141.07,264.59,139.3,263.86,134.79Z"/><path class="cls-3" d="M315.43,135.58c-9.66-5.16-17.07,2.43-22.33,2.48s-8.78-.13-11.64-7.18-7.71-10.44-15.07-9.24c-9.84,1.6-11.92,10.75-12,11.2v0s8.62-3.52,9.5,1.91c.73,4.51-5,6.28-7.41,9.35a4.71,4.71,0,0,0-.85,1.57c-2.68,9,2.89,17.3,10.57,16.69,6.12-.49,9.23.4,9.94,4.31.93,5.09,4.31,15,19.08,17.72s26.11-9.71,28.75-17.77S325.1,140.74,315.43,135.58Z"/><path class="cls-8" d="M276.59,235.77a.61.61,0,0,1-.54-.34.62.62,0,0,1,.28-.82l8.22-4a.61.61,0,0,1,.53,1.1l-8.22,4A.66.66,0,0,1,276.59,235.77Z"/><path class="cls-8" d="M278,238.19a.61.61,0,0,1-.07-1.21l5.4-.63a.62.62,0,0,1,.67.53.61.61,0,0,1-.53.68l-5.4.63Z"/><polygon class="cls-8" points="292.15 208.28 262.59 206.94 250.12 217.64 280.72 219.13 292.15 208.28"/><path class="cls-6" d="M280.72,219.73h0l-30.61-1.48a.61.61,0,0,1-.54-.41.61.61,0,0,1,.18-.66l12.48-10.7a.53.53,0,0,1,.42-.14l29.56,1.33a.61.61,0,0,1,.54.4.58.58,0,0,1-.15.65l-11.44,10.85A.57.57,0,0,1,280.72,219.73Zm-29.05-2.62,28.82,1.39,10.21-9.67-27.89-1.26Z"/><polygon class="cls-8" points="280.72 219.13 289.47 188.38 300.02 180.95 292.15 208.28 280.72 219.13"/><path class="cls-6" d="M280.72,219.73a.61.61,0,0,1-.32-.08.63.63,0,0,1-.27-.69l8.76-30.75a.59.59,0,0,1,.23-.33l10.55-7.43a.61.61,0,0,1,.93.67l-7.86,27.33a.59.59,0,0,1-.17.27l-11.44,10.85A.57.57,0,0,1,280.72,219.73Zm9.28-31-8.09,28.4,9.71-9.2L299,182.44Z"/><path class="cls-9" d="M221.42,139.08l-.07.07.49.74Z"/><path class="cls-9" d="M227.14,150.23l-.71-1.4c.34.86.67,1.75,1,2.67Z"/><path class="cls-9" d="M229.73,166a26.9,26.9,0,0,0-.43-4.67c-4.64-1.17-7.3-7-7.3-7s-9.58-2.09-10.3,1.87,1.69,17.39,7.77,23.17c4.78,4.55,9.05,6.23,12.86,6.37A57,57,0,0,1,229.73,166Z"/><path class="cls-10" d="M257.1,207.74c-.19-.51-.36-1-.49-1.42-1-3.11-.52-4.61-.52-4.61a34.49,34.49,0,0,1-9.48,0c-1.24-.13-3-.46-4.92-.88a36.27,36.27,0,0,1-9.36-15.09c-3.81-.14-8.08-1.82-12.86-6.37-6.08-5.78-8.36-20.09-7.77-23.17,0,0,1.64.6,5.35-.05,4.93-.86,4.95-1.82,4.95-1.82s2.66,5.8,7.3,7a126.1,126.1,0,0,0-2.87-12.46,52.09,52.09,0,0,0-4.59-8.94s-2.27-3.12-2.63-3.4a37.63,37.63,0,0,0-3.22-2.22,7.43,7.43,0,0,1-5.42-.43c-3.7-1.54-3.81-2.94-3.81-2.94a27.22,27.22,0,0,0-5.83,3.37l-.19.13-.92.67-.29.22c-.4.29-.8.6-1.22.93-.64.5-1.31,1-2,1.65-.45.38-.9.78-1.35,1.19-6.19,5.74-11.76,14.48-14,27.32-.14.76-.26,1.5-.38,2.25-1.27,7.73-1.95,14.86-.92,22.84a77.47,77.47,0,0,0,5.81,20.31c7.13,16.86,26.6,23.17,26.6,23.17l.19-.18c1.2-1.19,8.71-8.58,16.23-15.83,2.11.09,4.37.13,6.79.08,15.2-.28,24.39-7.23,24.39-7.23A14.38,14.38,0,0,1,257.1,207.74Z"/><path class="cls-8" d="M247,104.82c-9.24-7.78-25.92-7.77-33.42-6.14a56.67,56.67,0,0,0-13.7,4.8c-4.3,2.24-8.31,5.27-10.86,9.39a49.46,49.46,0,0,0-7.23,21.49h0a2.11,2.11,0,0,1,.12-.43c1.34-3.23,6.55-2.49,6.55-2.49s3-.23,7.26,2.72a21.78,21.78,0,0,1,2.57,2.06A52.94,52.94,0,0,1,203,132.9a21.54,21.54,0,0,1,3.78-2s.11,1.4,3.81,2.94a7.43,7.43,0,0,0,5.42.43,37.63,37.63,0,0,1,3.22,2.22c.36.28,2.63,3.4,2.63,3.4a52.09,52.09,0,0,1,4.59,8.94,126.1,126.1,0,0,1,2.87,12.46,26.9,26.9,0,0,1,.43,4.67,57,57,0,0,0,2.6,19.77c4.19.16,7.81-1.55,10.93-3.34,6-3.43,9.91-9.37,8.47-21.45-1.23-10.28-2.2-13.06-2.47-13.66a6.72,6.72,0,0,1-2.75-1.74c-1.15-1.65-.92-3.14.93-3.81.9-.32,2.13-.89,2.13-.89l-.51-1.06a2.2,2.2,0,0,1,.11-2.11,14.33,14.33,0,0,1,3.94-4.08,59.43,59.43,0,0,0,2.08-6.68C257.18,118.45,254,110.73,247,104.82Z"/><path class="cls-2" d="M201.78,140.93a11.93,11.93,0,0,0-3.47-4.71,21.78,21.78,0,0,0-2.57-2.06c-4.3-2.95-7.26-2.72-7.26-2.72s-5.21-.74-6.55,2.49a2.11,2.11,0,0,0-.12.43c-.72,3.07,4.39,6,5.94,6.67s4.83,2.67,5.9,2.4-1.87-2.68-.46-1.74,2.47,3.51,3.78,3.71a1.15,1.15,0,0,0,1.26-.69s.87,1,1.66.62c1.09-.51,1.1-2.16,1.1-2.16S202.27,143.19,201.78,140.93Z"/><path d="M255.34,136.38a.32.32,0,0,1-.3-.21l-.41-1.35a.32.32,0,0,1,0-.25.31.31,0,0,1,.21-.14l2.9-.42a.3.3,0,1,1,.09.6l-2.55.37.31,1a.3.3,0,0,1-.2.38Z"/><path d="M253.39,138.26h0s-.92-.12-1-1.61a.31.31,0,0,1,.28-.33.29.29,0,0,1,.33.28c.07,1,.49,1.06.51,1.06a.32.32,0,0,1,.25.35A.31.31,0,0,1,253.39,138.26Z"/><path d="M259.66,138.52l-.13,0a1.89,1.89,0,0,1-1.08-1.09,1.7,1.7,0,0,1,.09-1.28.29.29,0,0,1,.4-.13.31.31,0,0,1,.14.41,1.11,1.11,0,0,0-.06.81,1.38,1.38,0,0,0,.77.73.31.31,0,0,1,.15.41A.3.3,0,0,1,259.66,138.52Z"/><path class="cls-11" d="M255.71,201.72a60.27,60.27,0,0,1-33.21-6c-9-4.5-12.48-12.14-14.09-19.56"/><path class="cls-8" d="M229.73,166c.14-5.19-.26-4.62-.26-4.62-4.38-1-7-6.1-7.42-6.9-.24.24-1.38,1.11-5.22,1.7a15,15,0,0,1-5.13.09c-.7,4,1.71,17.37,7.77,23.13,4.78,4.55,9.05,6.23,12.86,6.37A57,57,0,0,1,229.73,166Z"/><path class="cls-2" d="M219,148c-.82-1.55-.57-3.46-1.61-3.86-2-.76-1.67,2-1.67,2a16.54,16.54,0,0,1-1.07-2.71c-.49-1.63.25-4.69-.41-5.37a1.07,1.07,0,0,0-1.55-.18s0-1.32-.88-1.53c-1.17-.3-2.22,1-2.22,1s-1-1-2.12,1.39c-.33.72-1,3.87.42,8.89a35.1,35.1,0,0,0,3.77,8.62h.07a15,15,0,0,0,5.13-.09c3.84-.59,5-1.46,5.23-1.7l0-.06S219.81,149.55,219,148Z"/><path class="cls-6" d="M233.26,162.78a12.82,12.82,0,0,1-2.87-.34c-6.43-1.47-8.75-7.59-8.85-7.85a.63.63,0,0,1,.36-.79.61.61,0,0,1,.78.36c0,.06,2.21,5.77,8,7.09s8.24-2,8.26-2a.59.59,0,0,1,.85-.13.61.61,0,0,1,.13.85A8.28,8.28,0,0,1,233.26,162.78Z"/><path class="cls-6" d="M203.13,177.14H203l-3.89-.68a.61.61,0,0,1-.49-.71.59.59,0,0,1,.7-.49l3.89.68a.61.61,0,0,1-.1,1.21Z"/><path class="cls-6" d="M188.93,191.83h-.11l-3.89-.68a.6.6,0,0,1-.49-.7.61.61,0,0,1,.7-.5l3.89.68a.62.62,0,0,1,.5.71A.61.61,0,0,1,188.93,191.83Z"/><path class="cls-6" d="M200,150.5a.61.61,0,0,1-.57-.4.6.6,0,0,1,.36-.78L203.5,148a.61.61,0,0,1,.42,1.15l-3.71,1.35A.78.78,0,0,1,200,150.5Z"/><path class="cls-6" d="M194.74,185.6a.6.6,0,0,1-.57-.4.61.61,0,0,1,.37-.78l3.72-1.33a.6.6,0,0,1,.77.36.6.6,0,0,1-.36.78L195,185.56A.52.52,0,0,1,194.74,185.6Z"/><path class="cls-6" d="M203.66,166a.61.61,0,0,1-.21-1.18l3.72-1.33a.61.61,0,0,1,.78.37.62.62,0,0,1-.37.78l-3.72,1.33A.64.64,0,0,1,203.66,166Z"/><path class="cls-6" d="M235.16,207.68h-.11l-3.89-.68a.61.61,0,0,1,.21-1.2l3.89.68a.63.63,0,0,1,.5.71A.62.62,0,0,1,235.16,207.68Z"/><path class="cls-6" d="M224.63,215.15a.61.61,0,0,1-.21-1.18l3.72-1.33a.61.61,0,0,1,.41,1.15l-3.72,1.33A.69.69,0,0,1,224.63,215.15Z"/><path class="cls-6" d="M191.1,171.73h0a.61.61,0,0,1-.6-.63l.08-2.86a.67.67,0,0,1,.62-.6.61.61,0,0,1,.59.63l-.07,2.86A.62.62,0,0,1,191.1,171.73Z"/><path class="cls-6" d="M202.16,159.34h0a.61.61,0,0,1-.6-.62l.08-2.87a.61.61,0,0,1,.61-.59h0a.62.62,0,0,1,.6.62l-.08,2.87A.61.61,0,0,1,202.16,159.34Z"/><path class="cls-6" d="M182.83,178.1a.58.58,0,0,1-.33-.1.61.61,0,0,1-.18-.84l1.7-2.59a.61.61,0,0,1,.84-.18.6.6,0,0,1,.17.84l-1.69,2.59A.61.61,0,0,1,182.83,178.1Z"/><path class="cls-6" d="M189.43,156.14a.6.6,0,0,1-.5-.94l1.69-2.59a.61.61,0,0,1,.84-.18.62.62,0,0,1,.18.85l-1.7,2.59A.61.61,0,0,1,189.43,156.14Z"/><path class="cls-6" d="M208.71,194.79h-.11a.61.61,0,0,1-.49-.71l.67-3.59a.6.6,0,0,1,.71-.49.61.61,0,0,1,.49.71l-.67,3.59A.62.62,0,0,1,208.71,194.79Z"/><path class="cls-6" d="M200.61,198.76h0l-3.88-.06a.61.61,0,0,1-.6-.62c0-.34.28-.67.61-.6l3.89.06a.61.61,0,0,1,.6.62A.62.62,0,0,1,200.61,198.76Z"/><path class="cls-6" d="M251.54,210.09h-.11a.62.62,0,0,1-.49-.71l.67-3.6a.6.6,0,0,1,.71-.48.61.61,0,0,1,.49.71l-.67,3.59A.62.62,0,0,1,251.54,210.09Z"/><path class="cls-6" d="M243.44,214.05h0l-3.88-.06a.61.61,0,0,1,0-1.22h0l3.89.06a.61.61,0,0,1,0,1.22Z"/><path class="cls-6" d="M214.16,217.41h-.11a.61.61,0,0,1-.49-.71l.67-3.59a.6.6,0,0,1,.71-.49.61.61,0,0,1,.49.71l-.67,3.59A.62.62,0,0,1,214.16,217.41Z"/><path class="cls-6" d="M201.6,221.54h0l-3.88-.06a.61.61,0,0,1,0-1.22h0l3.88.06a.61.61,0,0,1,0,1.22Z"/><path class="cls-6" d="M215.54,204.09h-.12l-3.38-.65a.61.61,0,0,1-.48-.71.6.6,0,0,1,.71-.48l3.38.64a.6.6,0,0,1,.48.71A.61.61,0,0,1,215.54,204.09Z"/><path class="cls-6" d="M213.74,227.4h-.11l-3.38-.65a.61.61,0,1,1,.23-1.19l3.38.64a.61.61,0,0,1,.48.71A.62.62,0,0,1,213.74,227.4Z"/><path class="cls-6" d="M206.61,213.12a.6.6,0,0,1-.56-.37l-1.33-3.2a.6.6,0,0,1,.33-.79.61.61,0,0,1,.8.32l1.32,3.2a.61.61,0,0,1-.33.8A.59.59,0,0,1,206.61,213.12Z"/><path class="cls-6" d="M230.89,192.86h-.11l-3.38-.64a.63.63,0,0,1-.49-.72.62.62,0,0,1,.72-.48l3.37.64a.62.62,0,0,1,.49.71A.61.61,0,0,1,230.89,192.86Z"/><path class="cls-6" d="M220.31,188.85a.61.61,0,0,1-.56-.37l-1.33-3.2a.6.6,0,0,1,.33-.79.61.61,0,0,1,.8.33l1.32,3.19a.61.61,0,0,1-.32.8A.67.67,0,0,1,220.31,188.85Z"/><path class="cls-6" d="M192.74,209.16a.6.6,0,0,1-.56-.38l-1.33-3.19a.61.61,0,0,1,1.13-.47l1.32,3.2a.6.6,0,0,1-.33.79A.59.59,0,0,1,192.74,209.16Z"/><path class="cls-2" d="M273.29,198.55s0-1.65-1.09-2.17c-.79-.37-1.66.62-1.66.62s-.27-1.07-1.21-1.07-2.42,3.16-3.83,4.1a16.72,16.72,0,0,1-2.56,1.41s1.08-2.35,0-2.62-2.08,1.27-3.69,2a17,17,0,0,1-3.16.94s-.58,1.95,1,6a14.38,14.38,0,0,0,2.55,4,34.94,34.94,0,0,0,8.4-4.24c4.3-3,5.87-6,6-6.76C274.57,198.53,273.29,198.55,273.29,198.55Z"/><path class="cls-9" d="M225.63,119s-.08-.61-.26-1.42A12.57,12.57,0,0,0,225.63,119Z"/><path class="cls-2" d="M228,120.61s-2-.37-2.37-1.65a12.57,12.57,0,0,1-.26-1.42c-.49-2.24-1.77-6.08-4.49-3.64-1.94,1.74-4,6.75-4.18,7.32s-3.9,5.8-5.33,5.8a1.43,1.43,0,0,1-.22,0,39.85,39.85,0,0,1-4.38,4s.17,1.72,4.67,3.23a6.4,6.4,0,0,0,4.53.11l3.44-5.25s6,.55,7.5-.55.36-5.12.36-5.12Z"/><path d="M226.59,113.33c-1.24-2.67-2.19-1.72-2.19-1.72s.29-4.28-2.19-5.32-4.94,1.9-4.94,1.9-3.24-2.47-6.75-.67-3.05,7.9-3.05,7.9a4.1,4.1,0,0,0-3.9,4.09c-.09,3.9,5.52,5.14,5.52,5.14s.77,2.09,2.06,2.33a1.43,1.43,0,0,0,.22,0c1.43,0,5.14-5.23,5.33-5.8s2.24-5.58,4.18-7.32c2.72-2.44,4,1.4,4.49,3.64.18.81.26,1.42.26,1.42S227.83,116,226.59,113.33Z"/><path d="M225,125.06a1.34,1.34,0,0,1-1.06-.45.31.31,0,0,1,.06-.43.3.3,0,0,1,.42.06s.41.46,1.35,0a.3.3,0,1,1,.26.54A2.32,2.32,0,0,1,225,125.06Z"/><path d="M220.13,120.47h-.06a.31.31,0,0,1-.24-.36,8.43,8.43,0,0,1,.76-2.16c1-1.8,1.93-1.57,2-1.54a.3.3,0,0,1,.2.38.31.31,0,0,1-.37.21s-.62-.08-1.33,1.24a7.44,7.44,0,0,0-.7,2A.31.31,0,0,1,220.13,120.47Z"/><path d="M222.37,120.61h-.17a.3.3,0,0,1-.23-.36.3.3,0,0,1,.35-.24c.06,0,.48,0,.76-.62a.3.3,0,0,1,.4-.17.3.3,0,0,1,.16.4A1.41,1.41,0,0,1,222.37,120.61Z"/></g></svg>